<svg width="85" height="107" viewBox="0 0 85 107" fill="none" xmlns="http://www.w3.org/2000/svg">
<path d="M63.3431 11.7678C76.6826 16.871 79.3758 32.563 76.6599 44.9846C75.4131 50.6841 73.6845 56.274 71.6257 61.7287C65.1491 78.9019 53.4559 97.4157 33.104 98.1343C32.6528 98.1494 32.7097 98.8008 33.1413 98.8173C54.115 99.6803 66.7367 79.1993 73.2246 61.923C79.1974 46.0173 85.5133 19.1816 64.2306 11.8822C63.9529 11.7877 63.6728 11.7067 63.3868 11.6388C63.3133 11.6188 63.2713 11.7376 63.3431 11.7678Z" fill="#373533"/>
<path d="M16.9516 95.6858C17.8928 91.5446 22.5407 89.6025 24.5854 86.0659C25.8319 83.9096 25.2841 81.0162 23.1724 79.7467C23.1492 80.0791 23.125 80.4112 23.1008 80.7434C25.8796 79.9367 28.5481 80.9434 31.316 81.0074C31.7807 81.0193 31.8601 80.3604 31.4871 80.1684C28.8089 78.7885 25.7562 79.5329 22.9033 79.6887C22.4195 79.7156 22.2405 80.3114 22.5752 80.6332C26.0876 83.9897 21.9281 87.7281 19.4968 90.04C17.8996 91.5598 16.8763 93.4576 16.8166 95.676C16.8134 95.7561 16.9353 95.7565 16.9516 95.6858Z" fill="#373533"/>
<path d="M29.475 80.0198C28.7107 77.996 27.8737 75.6616 29.251 73.658C29.7575 72.9202 30.7608 72.3857 31.4192 71.7588C32.3648 70.8601 33.1381 69.9205 33.8721 68.8408C36.2148 65.3988 37.5484 60.9343 38.9789 57.0511C39.6745 55.1656 40.3061 53.2548 40.9177 51.3369C41.1761 50.5274 41.3056 49.1168 42.1701 48.6664C42.9769 48.2445 43.7568 47.6775 44.4405 47.0796C46.9602 44.8744 48.9953 42.1773 49.2123 38.76C49.2345 38.3959 48.7128 38.353 48.5627 38.6279C47.5242 40.5826 46.5648 42.5653 45.1499 44.2889C44.4674 45.1183 43.6252 45.8004 42.772 46.4455C42.0977 46.9504 40.9341 47.2604 40.3915 47.8692C39.3416 49.0474 38.9555 52.1159 38.4466 53.5647C37.588 56.0032 36.6359 58.4078 35.6239 60.7842C34.7385 62.864 33.7974 64.9235 32.7349 66.9126C32.0127 68.2677 31.1835 69.4917 30.1396 70.6219C29.4551 71.3598 28.5225 71.9279 27.9954 72.8127C26.3783 75.5241 27.5303 77.7879 29.2296 80.1378C29.318 80.2585 29.5319 80.17 29.475 80.0198Z" fill="#373533"/>
<path d="M51.6191 38.4661C52.7927 35.4873 54.4912 32.6922 56.6863 30.3597C58.4247 28.5108 60.5194 27.2646 60.9331 24.6004C61.2703 22.4099 60.1853 19.9967 60.0503 17.821C59.8667 14.9464 61.5132 12.5452 61.5071 9.81749C61.5064 9.58256 61.2177 9.45102 61.031 9.57581C57.5867 11.8773 58.2989 18.3919 59.0543 21.8194C59.5637 24.1382 59.2758 25.6715 57.4405 27.3946C56.3116 28.4502 55.3075 29.4542 54.3923 30.7087C52.6862 33.0503 51.8517 35.5772 51.4902 38.4223C51.481 38.4943 51.5884 38.5413 51.6191 38.4661Z" fill="#373533"/>
<path d="M16.36 93.5134C17.56 92.2355 17.7724 90.8536 17.6278 89.1494C17.5284 87.9823 17.014 86.8228 16.5748 85.75C16.3568 85.2174 14.5405 78.9498 16.6739 79.6764C20.3425 80.9191 23.423 75.6305 24.777 73.1847C27.1532 68.8935 28.4003 64.0107 29.8229 59.3515C31.47 53.9539 33.5766 49.2437 36.9023 44.6748C37.0687 44.4448 36.8024 44.0474 36.5493 44.2621C29.4102 50.349 28.2094 61.3591 24.5297 69.5033C23.4899 71.8048 22.1855 73.993 20.5526 75.9235C19.4931 77.1736 18.1486 78.2297 16.4244 77.7364C15.8591 77.5737 15.377 78.2106 15.0413 78.5229C13.9808 79.5064 13.7927 81.6286 14.0915 82.9395C14.8656 86.3283 18.6699 89.8939 16.257 93.4216C16.2089 93.4938 16.2979 93.5795 16.36 93.5134Z" fill="#373533"/>
<path d="M14.2365 95.7114C-0.839716 81.4072 6.45368 58.9739 14.2093 43.0006C18.581 34.0005 23.9152 25.2543 31.3834 18.4895C34.9172 15.289 39.0306 12.713 43.4051 10.8384C47.6261 9.02775 52.0613 8.41143 56.5829 7.89097C56.8044 7.86695 56.8559 7.51504 56.6122 7.48609C47.7329 6.39705 38.5294 11.0756 31.7668 16.4403C23.2688 23.1742 17.4653 32.6718 12.8472 42.3258C5.01571 58.6958 -1.95178 81.8209 14.1458 95.8146C14.2125 95.8719 14.2999 95.7717 14.2365 95.7114Z" fill="#373533"/>
<path d="M17.2561 96.2512C25.3217 99.6535 34.4038 100.105 42.7623 97.4227C50.5823 94.9115 58.2706 88.3572 61.8778 80.9782C62.1462 80.4297 61.4412 80.0355 61.0348 80.4124C55.2213 85.7553 49.5882 91.5855 42.515 95.2868C35.0337 99.1966 25.0959 98.6604 17.2786 96.1851C17.2408 96.1749 17.2205 96.2344 17.2561 96.2512Z" fill="#373533"/>
<path d="M34.8064 89.9502C39.8653 94.0349 47.2389 91.4519 52.3596 88.8853C55.9856 87.0644 59.2053 84.4464 62.1176 81.6445C64.8987 78.9703 67.6313 75.8353 68.4653 71.9801C68.5648 71.535 67.9958 71.284 67.6989 71.5961C65.4176 73.98 63.4942 76.6794 61.2263 79.0867C58.7137 81.7487 55.8274 83.9664 52.7723 85.9686C47.6465 89.3194 40.9493 92.3195 34.8444 89.8938C34.8116 89.881 34.776 89.9238 34.8064 89.9502Z" fill="#373533"/>
<path d="M47.3149 79.4928C52.2485 79.9351 57.4541 77.9407 61.5348 75.3098C65.8095 72.5519 71.3716 67.9989 72.1005 62.5936C72.147 62.2303 71.7095 62.1076 71.5218 62.3969C68.6578 66.8334 65.647 70.5326 61.262 73.597C57.193 76.4402 52.4158 79.2847 47.3201 79.4236C47.2815 79.4238 47.2769 79.4896 47.3149 79.4928Z" fill="#373533"/>
<path d="M60.2993 69.7751C63.8308 69.066 67.0759 67.5565 69.6409 64.9948C71.8233 62.8142 74.32 59.4274 73.9163 56.1915C73.8888 55.9694 73.5985 55.8271 73.4372 56.0265C71.6379 58.2606 70.7862 61.0438 68.9243 63.2949C66.6119 66.0939 63.644 68.3567 60.2755 69.7114C60.2339 69.7286 60.2555 69.7849 60.2993 69.7751Z" fill="#373533"/>
<path d="M65.9653 58.6904C70.0068 57.7523 73.4291 55.3769 75.5515 51.7874C77.3037 48.8265 79.3043 44.8546 78.2705 41.3359C78.2051 41.1106 77.8419 41.1236 77.8067 41.3627C76.812 48.2562 72.7009 56.0685 65.9251 58.5607C65.8391 58.5911 65.8811 58.7106 65.9653 58.6904Z" fill="#373533"/>
<path d="M69.1377 49.0868C74.791 46.2426 79.5733 39.4738 78.293 32.9607C78.2199 32.5799 77.6258 32.6503 77.5674 33.001C76.5654 39.1011 74.431 45.3625 69.1025 49.028C69.0625 49.056 69.0995 49.1046 69.1377 49.0868Z" fill="#373533"/>
<path d="M73.5211 27.0689C75.3183 31.0481 74.6046 36.2283 73.9988 40.3796C72.9633 47.5042 70.6964 54.4572 67.7857 61.0268C64.3677 68.7441 59.7441 76.0245 54.1073 82.3132C47.764 89.3885 40.0304 94.2911 31.4622 98.2055C31.0287 98.4059 31.2179 99.0561 31.6946 98.9229C49.3067 93.9362 62.0012 77.7332 68.7759 61.5133C71.64 54.6516 73.6581 47.3603 74.5133 39.9657C74.9856 35.896 75.4432 30.8564 73.5821 27.0411C73.5643 27.0029 73.5061 27.0347 73.5211 27.0689Z" fill="#373533"/>
<path d="M59.8913 67.3589C59.8913 67.3589 59.5897 67.9365 59.0378 68.9397C58.7676 69.4388 58.4102 70.0346 58.0054 70.7202C57.6062 71.4138 57.1287 72.1743 56.5916 72.9943C56.0731 73.8281 55.4516 74.6893 54.8086 75.6133C54.1379 76.5149 53.4513 77.4872 52.6707 78.436C52.2855 78.9113 51.8911 79.399 51.4927 79.8895C51.0791 80.3668 50.6575 80.8497 50.2353 81.336C49.8159 81.8263 49.3621 82.293 48.9134 82.7711C48.4658 83.2424 48.0254 83.7325 47.5524 84.1888C47.0828 84.6457 46.6132 85.1026 46.147 85.5601C45.6635 85.9971 45.1793 86.4374 44.7003 86.8681C44.2297 87.3108 43.7373 87.7182 43.2428 88.1181C42.7522 88.5152 42.2796 88.9296 41.7904 89.2989C40.8115 90.041 39.8667 90.7681 38.9235 91.3868C38.4581 91.7008 38.0097 92.0177 37.5633 92.3035C37.1118 92.5778 36.6758 92.8444 36.2558 93.0998C35.4264 93.6299 34.6219 94.0383 33.9182 94.4119C33.5663 94.5987 33.2373 94.7755 32.9356 94.9361C32.6221 95.0841 32.3364 95.2194 32.0783 95.3421C31.0423 95.8288 30.4468 96.0918 30.4468 96.0918C30.4468 96.0918 31.0015 95.7481 31.9828 95.1676C32.2276 95.0215 32.4996 94.8627 32.7958 94.6871C33.0821 94.5028 33.3949 94.2986 33.7278 94.0804C34.3895 93.6469 35.1424 93.1733 35.933 92.6048C36.3329 92.3248 36.7487 92.0337 37.1765 91.7341C37.5965 91.4192 38.0285 91.0958 38.4765 90.7613C39.377 90.107 40.2715 89.3465 41.2211 88.5922C41.6945 88.2131 42.1473 87.7918 42.6215 87.3882C43.0935 86.9773 43.5723 86.5675 44.0382 86.131C44.5036 85.6979 44.9764 85.2626 45.4492 84.8273C45.908 84.372 46.3667 83.9167 46.8255 83.4614C47.2967 83.0152 47.7347 82.5387 48.1811 82.0742C48.6247 81.6057 49.0795 81.1532 49.4977 80.6697C49.9243 80.1982 50.3502 79.7301 50.7682 79.2676C51.1744 78.7925 51.5766 78.3202 51.973 77.8609C52.3722 77.4056 52.7421 76.9381 53.1129 76.4848C53.4843 76.0281 53.8521 75.5918 54.1955 75.1547C54.8678 74.2639 55.5404 73.4503 56.1113 72.6573C56.6878 71.8723 57.2302 71.1618 57.6845 70.513C58.1451 69.8687 58.5554 69.3102 58.8675 68.8326C59.5135 67.8916 59.8913 67.3589 59.8913 67.3589Z" fill="#373533"/>
<path d="M69.5502 37.5241C69.5502 37.5241 69.5918 37.6261 69.6632 37.8174C69.738 38.0093 69.858 38.2828 69.9197 38.6687C69.9525 38.8602 70.0163 39.0747 70.0391 39.3031C70.0607 39.5382 70.0834 39.7875 70.1098 40.055C70.1424 40.3271 70.1273 40.6118 70.1375 40.9115C70.1403 41.2134 70.147 41.5335 70.1166 41.8646C70.0971 42.1941 70.0785 42.5378 70.0542 42.8944C70.0128 43.2481 69.9663 43.6114 69.9208 43.9889C69.8269 44.7399 69.6851 45.5244 69.5181 46.3326C69.3346 47.1343 69.1588 47.9725 68.9116 48.7981C68.6938 49.6358 68.4102 50.4689 68.1504 51.3063C67.8606 52.1349 67.5578 52.9577 67.2445 53.761C66.9175 54.562 66.6031 55.3512 66.2511 56.0952C65.9093 56.841 65.5791 57.5608 65.2267 58.2276C64.8778 58.895 64.5653 59.5339 64.2281 60.0947C63.9027 60.6682 63.5977 61.1856 63.3245 61.6421C63.0478 62.098 62.7837 62.4825 62.5765 62.8035C62.1529 63.4367 61.9066 63.7998 61.9066 63.7998C61.9066 63.7998 62.0857 63.4003 62.3981 62.7019C62.5602 62.359 62.7537 61.9375 62.9749 61.4578C63.1872 60.9696 63.4272 60.4231 63.6995 59.8333C63.9751 59.244 64.2247 58.5836 64.5273 57.901C64.8327 57.2224 65.103 56.485 65.417 55.7378C65.7405 54.9958 65.9943 54.1924 66.3149 53.4079C66.6129 52.6123 66.8975 51.7933 67.1747 50.9766C67.4417 50.158 67.7325 49.3436 67.9575 48.5247C68.2063 47.7099 68.4317 46.9086 68.6359 46.128C68.7502 45.7381 68.8157 45.3466 68.9169 44.9719C69.0084 44.592 69.1015 44.2229 69.1656 43.8592C69.2366 43.4968 69.3091 43.1451 69.3764 42.803C69.4301 42.4585 69.4815 42.1276 69.531 41.8069C69.5908 41.488 69.6095 41.1829 69.6435 40.891C69.6672 40.5973 69.7198 40.3191 69.7165 40.0592C69.7351 39.5368 69.7598 39.0786 69.7201 38.7071C69.7129 38.3308 69.6533 38.0329 69.6114 37.8328C69.573 37.6333 69.5502 37.5241 69.5502 37.5241Z" fill="#373533"/>
<path d="M71.4951 39.6126C75.8377 37.3047 79.4812 31.4286 77.062 26.5651C76.9244 26.292 76.5701 26.4924 76.56 26.7289C76.4621 28.8145 76.5519 30.849 75.9966 32.8854C75.2786 35.5064 73.5833 37.906 71.4599 39.5538C71.4233 39.5824 71.4563 39.6338 71.4951 39.6126Z" fill="#373533"/>
<path d="M18.3601 54.7409C16.5916 49.9572 17.3859 44.7386 18.3008 39.8603C19.2978 34.5479 21.7619 30.223 24.432 25.6402C24.5854 25.3763 24.2321 25.0723 23.9886 25.2431C19.6171 28.3344 17.7925 34.5838 16.7586 39.5533C15.7383 44.4551 15.9908 50.2437 18.2991 54.7687C18.3179 54.8035 18.3748 54.775 18.3601 54.7409Z" fill="#373533"/>
<path d="M24.8161 43.0484C23.5296 38.6616 24.4055 34.274 25.522 29.9535C26.6157 25.7305 29.1667 22.4514 30.7583 18.4949C30.8628 18.2365 30.6078 18.0128 30.3647 18.1416C26.7191 20.0677 25.1488 25.2686 24.0744 28.9412C22.7443 33.487 22.7872 38.7094 24.7512 43.0685C24.769 43.1067 24.8282 43.0891 24.8161 43.0484Z" fill="#373533"/>
<path d="M32.2837 32.6776C30.825 24.6541 34.6627 16.2818 41.0852 11.3969C41.3018 11.2318 41.1486 10.8964 40.8814 10.9684C36.7734 12.0454 34.1073 16.629 32.3243 20.1662C30.5542 23.6741 31.0599 29.0763 32.1492 32.7029C32.1719 32.777 32.2977 32.7536 32.2837 32.6776Z" fill="#373533"/>
<path d="M38.8222 26.3658C39.6104 19.5586 44.0816 12.8505 49.4768 8.81829C49.8123 8.56553 49.5763 8.01574 49.154 8.14456C42.2875 10.2211 38.7156 19.8108 38.755 26.3574C38.7552 26.396 38.817 26.4034 38.8222 26.3658Z" fill="#373533"/>
<path d="M13.5453 50.6638C13.5453 50.6638 13.4158 51.072 13.1909 51.7894C13.0724 52.1435 12.9286 52.5772 12.7632 53.0738C12.5868 53.5613 12.4159 54.127 12.2318 54.7359C12.0447 55.3477 11.8429 56.0096 11.6157 56.702C11.4035 57.4006 11.2192 58.1496 10.9918 58.9121C10.882 59.2922 10.7694 59.6824 10.6562 60.076C10.5584 60.4758 10.46 60.879 10.3615 61.2822C10.1662 62.0959 9.93304 62.9134 9.76207 63.7419C9.58438 64.5727 9.40637 65.4034 9.23134 66.2172C9.05163 67.0336 8.93251 67.8502 8.78651 68.6305C8.65486 69.4169 8.48928 70.1692 8.40607 70.8975C8.3102 71.6201 8.20495 72.3025 8.10733 72.9336C8.00095 73.5667 7.94758 74.1496 7.88767 74.6682C7.82565 75.183 7.77033 75.6358 7.72566 76.0064C7.62484 76.7492 7.56589 77.1769 7.56589 77.1769C7.56589 77.1769 7.54996 76.7465 7.52168 75.9985C7.51409 75.6222 7.5043 75.1649 7.49341 74.6443C7.4872 74.121 7.4669 73.5286 7.5189 72.8859C7.55126 72.2433 7.59006 71.5422 7.64268 70.8085C7.67483 70.0677 7.78104 69.2943 7.89009 68.497C7.94348 68.0928 7.99858 67.689 8.05316 67.2781C8.10427 66.8631 8.1608 66.449 8.25457 66.0344C8.4207 65.2016 8.58964 64.3587 8.75953 63.5125C8.94385 62.6759 9.19073 61.8503 9.40146 61.0288C9.50951 60.6168 9.62076 60.2123 9.73729 59.8158C9.86809 59.4218 9.99864 59.0313 10.1266 58.6473C10.382 57.8828 10.6285 57.1447 10.891 56.455C11.1636 55.7636 11.4335 55.1173 11.6819 54.5233C11.8068 54.2264 11.9269 53.9427 12.0403 53.6718C12.1679 53.4069 12.2882 53.1582 12.4009 52.9223C12.634 52.4552 12.8362 52.0458 13.0036 51.7108C13.3479 51.046 13.5453 50.6638 13.5453 50.6638Z" fill="#373533"/>
<path d="M54.2623 11.9891C54.2623 11.9891 54.0472 11.9967 53.6453 12.01C53.2456 12.0306 52.6494 12.0131 51.9151 12.143C51.544 12.2002 51.1368 12.2441 50.6951 12.3239C50.2589 12.4327 49.7902 12.5463 49.2846 12.671C48.7758 12.774 48.262 12.9848 47.711 13.168C47.1626 13.3587 46.5801 13.5399 46.0037 13.8132C45.4228 14.0788 44.8039 14.3131 44.1929 14.6259C43.5858 14.9464 42.958 15.2773 42.3131 15.6192C41.6738 15.9691 41.0536 16.396 40.4005 16.7925C40.0797 17.0058 39.7404 17.1912 39.4247 17.4195C39.1074 17.6509 38.7887 17.8821 38.4657 18.116C37.83 18.5927 37.1428 19.0253 36.5304 19.5727C35.9002 20.0959 35.262 20.6247 34.6175 21.1594C33.9882 21.7073 33.3891 22.3026 32.7669 22.8798L31.8399 23.7502C31.5405 24.0513 31.2573 24.3694 30.963 24.6785C30.3783 25.2939 29.7929 25.9126 29.2097 26.5247C28.6436 27.1573 28.1151 27.8176 27.5717 28.4543C27.3018 28.7747 27.0329 29.0953 26.7663 29.4127C26.4921 29.7254 26.2293 30.0435 25.9864 30.3792C25.4902 31.0346 25.0013 31.6809 24.5186 32.3213C23.5253 33.576 22.6943 34.8804 21.857 36.089C21.4501 36.6972 21.029 37.2748 20.664 37.8623C20.3016 38.4503 19.9507 39.0192 19.6149 39.5663C19.2766 40.1095 18.9528 40.6341 18.6463 41.1303C18.3357 41.6257 18.0294 42.0905 17.7851 42.552C17.2738 43.4642 16.8285 44.2583 16.4612 44.912C15.7155 46.2139 15.29 46.959 15.29 46.959C15.29 46.959 15.6422 46.18 16.2828 44.821C16.6065 44.1421 16.9986 43.3175 17.4475 42.3698C17.8926 41.4215 18.4888 40.4016 19.105 39.2661C19.4171 38.7008 19.7411 38.1131 20.0772 37.503C20.4174 36.8936 20.8246 36.2995 21.212 35.6704C22.0136 34.4239 22.8009 33.0733 23.785 31.7853C24.2592 31.1295 24.7409 30.4645 25.2292 29.7901C25.7003 29.1056 26.2744 28.4814 26.8063 27.8182C27.3534 27.1681 27.8858 26.4945 28.4537 25.8517C29.0422 25.223 29.634 24.5914 30.2249 23.9596C30.5248 23.648 30.8161 23.3314 31.1219 23.0243L32.0713 22.1438C32.7076 21.5621 33.3229 20.9626 33.9683 20.4071C35.2911 19.3331 36.5831 18.2642 37.9477 17.3728C38.281 17.1442 38.6115 16.9151 38.9401 16.6892C39.2656 16.4592 39.6204 16.2799 39.9559 16.0762C40.637 15.6917 41.282 15.2797 41.9477 14.945C42.6194 14.6218 43.2727 14.3095 43.9041 14.0038C44.5421 13.7167 45.1886 13.5048 45.7918 13.2677C46.3921 13.0161 46.9943 12.8524 47.5662 12.6974C48.139 12.5496 48.6718 12.3701 49.1956 12.3013C49.7168 12.2075 50.2011 12.1246 50.6495 12.046C51.1039 11.9929 51.5274 11.9765 51.9045 11.9449C52.656 11.8566 53.243 11.9461 53.6481 11.9544C54.0474 11.9757 54.2623 11.9891 54.2623 11.9891Z" fill="#373533"/>
<path d="M28.3497 34.8642C28.3497 34.8642 28.0019 35.346 27.3753 36.1748C27.058 36.585 26.6802 37.0896 26.262 37.6747C25.8421 38.2631 25.3563 38.9134 24.8502 39.6407C24.3407 40.3639 23.7855 41.1457 23.2218 41.9891C22.6437 42.8229 22.0712 43.7242 21.4723 44.6525C20.8607 45.575 20.3032 46.5702 19.6933 47.5526C19.1237 48.5631 18.5201 49.5711 17.9967 50.6213C17.4262 51.6527 16.936 52.7158 16.4344 53.7594C16.2058 54.2868 15.9775 54.8143 15.7534 55.332C15.6402 55.5925 15.5293 55.8498 15.4194 56.1072C15.3217 56.3669 15.2251 56.6267 15.1294 56.8832C14.9408 57.4002 14.739 57.9008 14.5724 58.4041C14.4107 58.9083 14.2543 59.3994 14.1011 59.8806C13.9326 60.3555 13.8461 60.8379 13.7202 61.2958C13.6108 61.7532 13.4699 62.1945 13.3979 62.6269C13.319 63.0581 13.244 63.4759 13.1731 63.8699C13.1346 64.0664 13.0977 64.2597 13.062 64.4461C13.0409 64.6352 13.0224 64.8176 13.0031 64.9965C12.9663 65.3545 12.9306 65.6881 12.8983 65.9944C12.8584 66.3062 12.8361 66.5897 12.8441 66.8469C12.829 67.8781 12.8058 68.4768 12.8058 68.4768C12.8058 68.4768 12.7369 67.8899 12.6424 66.8499C12.6103 66.5884 12.6051 66.3001 12.6138 65.9862C12.6161 65.6712 12.6185 65.3317 12.621 64.9676C12.6229 64.7857 12.6247 64.5968 12.6257 64.4042C12.6433 64.2111 12.6624 64.0112 12.6798 63.811C12.7233 63.4016 12.767 62.9747 12.8143 62.5275C12.8579 62.0796 12.9677 61.6258 13.0485 61.1459C13.1429 60.6719 13.2145 60.1728 13.3589 59.6796C13.4907 59.1807 13.6262 58.6683 13.7636 58.1458C13.9023 57.6236 14.1038 57.1089 14.2774 56.5752C14.3665 56.3106 14.4575 56.0428 14.5492 55.7716C14.6534 55.5061 14.7591 55.2408 14.864 54.9719C15.0792 54.4351 15.2894 53.8869 15.5276 53.3507C16.0277 52.2858 16.5146 51.1941 17.086 50.1418C17.6304 49.0813 18.252 48.0624 18.8395 47.0445C19.1421 46.5406 19.4647 46.0543 19.774 45.5727C20.0841 45.0876 20.3941 44.6096 20.7168 44.1548C21.0357 43.6959 21.3504 43.2467 21.6569 42.8066C21.9716 42.3714 22.2942 41.9552 22.599 41.5463C23.2033 40.7206 23.8183 39.9739 24.384 39.2817C24.934 38.5831 25.4883 37.9799 25.9663 37.4333C26.442 36.8864 26.8677 36.4217 27.2241 36.0465C27.9342 35.2885 28.3497 34.8642 28.3497 34.8642Z" fill="#373533"/>
<path d="M52.8956 15.9433C52.8956 15.9433 52.869 15.9351 52.818 15.9261C52.7664 15.9206 52.6919 15.8864 52.5903 15.886C52.3946 15.883 52.1095 15.9099 51.7538 16.0189C51.0405 16.2085 50.0766 16.6659 48.9621 17.2825C48.4065 17.591 47.8108 17.9486 47.1892 18.3332C46.5683 18.7143 45.9287 19.1517 45.263 19.5881C43.9458 20.4913 42.5584 21.4803 41.213 22.5258C40.537 23.0444 39.8666 23.5711 39.2207 24.1056C38.578 24.6441 37.933 25.1577 37.3355 25.6902C36.1298 26.7357 35.0359 27.752 34.1249 28.6497C33.6738 29.1029 33.2561 29.5163 32.9012 29.8989C32.5416 30.277 32.2371 30.6124 31.9849 30.8938C31.4883 31.4581 31.2053 31.7832 31.2053 31.7832C31.2053 31.7832 31.2597 31.6912 31.3631 31.5166C31.4712 31.3465 31.61 31.0801 31.8226 30.7671C32.2313 30.1347 32.8579 29.2499 33.6888 28.2504C34.1029 27.7486 34.5658 27.2204 35.0771 26.6798C35.5861 26.1387 36.1324 25.5726 36.7256 25.0184C37.3154 24.46 37.9297 23.8884 38.5834 23.3413C39.2322 22.7899 39.9043 22.246 40.586 21.7108C41.2786 21.1916 41.9747 20.6765 42.6756 20.1938C43.3721 19.6998 44.0859 19.2614 44.7727 18.8288C46.1606 17.9836 47.5034 17.2671 48.7015 16.7529C49.8968 16.2347 50.9468 15.9046 51.7126 15.8153C52.091 15.7559 52.4033 15.7935 52.6067 15.8328C52.7052 15.8502 52.774 15.8974 52.8238 15.9132C52.8696 15.9318 52.8956 15.9433 52.8956 15.9433Z" fill="#373533"/>
<path d="M46.3581 17.4778C47.0574 15.0463 48.4124 13.1649 50.17 11.386C51.8772 9.65437 54.2091 8.95108 56.3559 7.96631C56.5696 7.86731 56.6341 7.46165 56.3262 7.4389C50.9021 7.01519 46.8235 12.5623 46.2918 17.4661C46.2864 17.5107 46.3462 17.5213 46.3581 17.4778Z" fill="#373533"/>
</svg>
