<svg width="85" height="106" viewBox="0 0 85 106" fill="none" xmlns="http://www.w3.org/2000/svg">
<path d="M63.6451 11.3498C76.9845 16.453 79.6778 32.145 76.9618 44.5666C75.715 50.2661 73.9864 55.8561 71.9277 61.3107C65.451 78.4839 53.7579 96.9977 33.406 97.7163C32.9547 97.7314 33.0116 98.3828 33.4433 98.3993C54.417 99.2623 67.0387 78.7814 73.5265 61.505C79.4993 45.5993 85.8153 18.7636 64.5326 11.4642C64.2549 11.3697 63.9747 11.2888 63.6888 11.2208C63.6152 11.2008 63.5733 11.3196 63.6451 11.3498Z" fill="#D0C9BE"/>
<path d="M17.2535 95.2678C18.1947 91.1266 22.8425 89.1845 24.8873 85.6479C26.1338 83.4916 25.5859 80.5983 23.4743 79.3287C23.4511 79.6611 23.4269 79.9933 23.4027 80.3254C26.1814 79.5187 28.85 80.5255 31.6179 80.5895C32.0826 80.6013 32.162 79.9424 31.789 79.7505C29.1108 78.3705 26.0581 79.115 23.2052 79.2708C22.7214 79.2976 22.5424 79.8934 22.8771 80.2153C26.3895 83.5717 22.2299 87.3101 19.7987 89.6221C18.2014 91.1418 17.1781 93.0396 17.1185 95.2581C17.1153 95.3381 17.2371 95.3385 17.2535 95.2678Z" fill="#D0C9BE"/>
<path d="M29.777 79.6018C29.0127 77.5781 28.1756 75.2436 29.553 73.24C30.0595 72.5022 31.0628 71.9677 31.7211 71.3408C32.6667 70.4421 33.4401 69.5026 34.174 68.4229C36.5168 64.9809 37.8504 60.5163 39.2809 56.6331C39.9764 54.7476 40.6081 52.8368 41.2196 50.919C41.478 50.1094 41.6076 48.6988 42.472 48.2485C43.2789 47.8265 44.0588 47.2596 44.7425 46.6617C47.2621 44.4565 49.2973 41.7593 49.5143 38.342C49.5365 37.9779 49.0148 37.935 48.8647 38.2099C47.8261 40.1646 46.8667 42.1473 45.4518 43.8709C44.7694 44.7003 43.9272 45.3824 43.0739 46.0275C42.3996 46.5325 41.2361 46.8425 40.6935 47.4512C39.6436 48.6294 39.2574 51.6979 38.7486 53.1468C37.89 55.5853 36.9379 57.9898 35.9258 60.3662C35.0404 62.446 34.0994 64.5056 33.0369 66.4946C32.3146 67.8497 31.4855 69.0738 30.4416 70.2039C29.757 70.9419 28.8245 71.5099 28.2974 72.3948C26.6803 75.1061 27.8323 77.37 29.5316 79.7198C29.62 79.8405 29.8339 79.752 29.777 79.6018Z" fill="#D0C9BE"/>
<path d="M51.9211 38.0481C53.0947 35.0693 54.7931 32.2742 56.9883 29.9417C58.7266 28.0929 60.8213 26.8466 61.235 24.1824C61.5722 21.9919 60.4873 19.5787 60.3522 17.403C60.1687 14.5284 61.8152 12.1272 61.809 9.39952C61.8084 9.1646 61.5197 9.03306 61.3329 9.15784C57.8886 11.4594 58.6008 17.9739 59.3563 21.4014C59.8656 23.7202 59.5778 25.2535 57.7424 26.9766C56.6135 28.0322 55.6094 29.0362 54.6943 30.2907C52.9882 32.6324 52.1536 35.1592 51.7921 38.0043C51.7829 38.0763 51.8903 38.1233 51.9211 38.0481Z" fill="#D0C9BE"/>
<path d="M16.6619 93.0954C17.8618 91.8175 18.0743 90.4356 17.9297 88.7314C17.8303 87.5644 17.3159 86.4048 16.8767 85.332C16.6587 84.7994 14.8424 78.5318 16.9758 79.2585C20.6444 80.5011 23.7249 75.2126 25.0789 72.7668C27.455 68.4755 28.7022 63.5927 30.1248 58.9336C31.7719 53.536 33.8784 48.8257 37.2042 44.2569C37.3706 44.0269 37.1042 43.6294 36.8512 43.8441C29.7121 49.931 28.5113 60.9411 24.8316 69.0854C23.7918 71.3868 22.4873 73.575 20.8544 75.5055C19.795 76.7556 18.4505 77.8117 16.7263 77.3185C16.161 77.1557 15.6789 77.7926 15.3431 78.1049C14.2827 79.0885 14.0946 81.2107 14.3933 82.5215C15.1675 85.9103 18.9718 89.4759 16.5589 93.0037C16.5108 93.0758 16.5998 93.1616 16.6619 93.0954Z" fill="#D0C9BE"/>
<path d="M14.5384 95.2935C-0.537836 80.9892 6.75556 58.556 14.5112 42.5826C18.8829 33.5825 24.2171 24.8363 31.6853 18.0715C35.2191 14.8711 39.3325 12.295 43.707 10.4204C47.928 8.60978 52.3631 7.99346 56.8848 7.473C57.1063 7.44898 57.1578 7.09707 56.9141 7.06812C48.0347 5.97908 38.8313 10.6576 32.0687 16.0223C23.5707 22.7563 17.7672 32.2538 13.1491 41.9079C5.31759 58.2779 -1.6499 81.403 14.4477 95.3966C14.5143 95.4539 14.6018 95.3537 14.5384 95.2935Z" fill="#D0C9BE"/>
<path d="M17.558 95.8332C25.6236 99.2355 34.7057 99.6874 43.0641 97.0048C50.8842 94.4935 58.5725 87.9392 62.1797 80.5602C62.4481 80.0117 61.7431 79.6175 61.3367 79.9945C55.5231 85.3373 49.89 91.1675 42.8169 94.8689C35.3356 98.7786 25.3978 98.2424 17.5805 95.7671C17.5427 95.7569 17.5224 95.8164 17.558 95.8332Z" fill="#D0C9BE"/>
<path d="M35.1084 89.5322C40.1673 93.6169 47.5409 91.034 52.6616 88.4673C56.2875 86.6464 59.5073 84.0284 62.4196 81.2266C65.2007 78.5523 67.9333 75.4173 68.7673 71.5621C68.8668 71.117 68.2978 70.866 68.0009 71.1781C65.7196 73.562 63.7962 76.2614 61.5283 78.6687C59.0157 81.3308 56.1294 83.5484 53.0743 85.5506C47.9485 88.9014 41.2513 91.9016 35.1464 89.4758C35.1136 89.463 35.078 89.5058 35.1084 89.5322Z" fill="#D0C9BE"/>
<path d="M47.6168 79.0748C52.5505 79.5172 57.756 77.5227 61.8367 74.8918C66.1115 72.1339 71.6736 67.5809 72.4024 62.1756C72.4489 61.8123 72.0115 61.6896 71.8238 61.9789C68.9597 66.4155 65.9489 70.1146 61.564 73.179C57.4949 76.0223 52.7177 78.8668 47.622 79.0056C47.5834 79.0058 47.5789 79.0716 47.6168 79.0748Z" fill="#D0C9BE"/>
<path d="M60.6013 69.3571C64.1328 68.6481 67.3779 67.1385 69.9429 64.5768C72.1252 62.3963 74.6219 59.0094 74.2182 55.7736C74.1908 55.5515 73.9005 55.4091 73.7391 55.6085C71.9399 57.8426 71.0881 60.6258 69.2263 62.8769C66.9138 65.6759 63.946 67.9388 60.5775 69.2934C60.5359 69.3106 60.5575 69.3669 60.6013 69.3571Z" fill="#D0C9BE"/>
<path d="M66.2672 58.2724C70.3088 57.3344 73.7311 54.9589 75.8535 51.3694C77.6057 48.4085 79.6063 44.4366 78.5725 40.9179C78.5071 40.6926 78.1439 40.7056 78.1087 40.9448C77.114 47.8382 73.0028 55.6506 66.2271 58.1427C66.1411 58.1731 66.1831 58.2926 66.2672 58.2724Z" fill="#D0C9BE"/>
<path d="M69.4396 48.6689C75.0929 45.8246 79.8752 39.0558 78.5949 32.5428C78.5219 32.1619 77.9277 32.2324 77.8694 32.5831C76.8674 38.6832 74.7329 44.9446 69.4044 48.6101C69.3644 48.6381 69.4014 48.6867 69.4396 48.6689Z" fill="#D0C9BE"/>
<path d="M73.8231 26.6509C75.6202 30.6302 74.9066 35.8103 74.3008 39.9616C73.2653 47.0862 70.9984 54.0392 68.0877 60.6088C64.6697 68.3261 60.0461 75.6065 54.4093 81.8952C48.066 88.9705 40.3324 93.8732 31.7642 97.7875C31.3307 97.9879 31.5199 98.6381 31.9965 98.5049C49.6087 93.5182 62.3032 77.3152 69.0779 61.0953C71.942 54.2336 73.96 46.9424 74.8153 39.5477C75.2876 35.478 75.7452 30.4384 73.8841 26.6231C73.8663 26.585 73.8081 26.6168 73.8231 26.6509Z" fill="#D0C9BE"/>
<path d="M60.1933 66.9409C60.1933 66.9409 59.8917 67.5186 59.3398 68.5217C59.0695 69.0208 58.7121 69.6166 58.3074 70.3023C57.9082 70.9959 57.4307 71.7563 56.8936 72.5763C56.3751 73.4101 55.7536 74.2713 55.1105 75.1953C54.4399 76.0969 53.7532 77.0693 52.9726 78.018C52.5874 78.4933 52.193 78.981 51.7946 79.4715C51.381 79.9488 50.9594 80.4317 50.5372 80.918C50.1178 81.4083 49.6641 81.875 49.2153 82.3531C48.7677 82.8244 48.3273 83.3145 47.8543 83.7708C47.3848 84.2278 46.9152 84.6847 46.449 85.1422C45.9654 85.5791 45.4812 86.0194 45.0023 86.4501C44.5317 86.8928 44.0393 87.3002 43.5447 87.7001C43.0541 88.0973 42.5816 88.5116 42.0924 88.8809C41.1134 89.623 40.1686 90.3501 39.2254 90.9688C38.76 91.2828 38.3116 91.5997 37.8652 91.8855C37.4138 92.1599 36.9778 92.4265 36.5578 92.6818C35.7283 93.212 34.9238 93.6204 34.2201 93.9939C33.8683 94.1807 33.5392 94.3575 33.2375 94.5181C32.9241 94.6661 32.6384 94.8015 32.3802 94.9241C31.3443 95.4109 30.7487 95.6738 30.7487 95.6738C30.7487 95.6738 31.3035 95.3301 32.2848 94.7496C32.5296 94.6035 32.8015 94.4447 33.0978 94.2691C33.384 94.0848 33.6969 93.8806 34.0297 93.6624C34.6915 93.2289 35.4443 92.7554 36.235 92.1868C36.6348 91.9069 37.0506 91.6157 37.4785 91.3162C37.8985 91.0012 38.3305 90.6778 38.7785 90.3433C39.6789 89.689 40.5735 88.9285 41.5231 88.1742C41.9964 87.7951 42.4493 87.3738 42.9235 86.9703C43.3954 86.5593 43.8742 86.1496 44.3402 85.7131C44.8056 85.2799 45.2783 84.8446 45.7511 84.4093C46.2099 83.954 46.6687 83.4987 47.1275 83.0434C47.5986 82.5973 48.0366 82.1208 48.483 81.6563C48.9266 81.1878 49.3814 80.7352 49.7996 80.2517C50.2262 79.7802 50.6522 79.3121 51.0702 78.8496C51.4764 78.3745 51.8786 77.9022 52.275 77.4429C52.6742 76.9876 53.044 76.5201 53.4148 76.0668C53.7862 75.6101 54.1541 75.1738 54.4975 74.7367C55.1697 73.8459 55.8424 73.0323 56.4133 72.2393C56.9898 71.4543 57.5321 70.7438 57.9865 70.095C58.447 69.4507 58.8574 68.8923 59.1694 68.4146C59.8155 67.4736 60.1933 66.9409 60.1933 66.9409Z" fill="#D0C9BE"/>
<path d="M69.8522 37.1062C69.8522 37.1062 69.8938 37.2081 69.9652 37.3994C70.04 37.5913 70.16 37.8649 70.2216 38.2507C70.2544 38.4423 70.3182 38.6568 70.341 38.8851C70.3627 39.1202 70.3853 39.3695 70.4117 39.637C70.4444 39.9091 70.4292 40.1939 70.4394 40.4936C70.4423 40.7955 70.4489 41.1155 70.4186 41.4466C70.399 41.7761 70.3805 42.1198 70.3561 42.4765C70.3148 42.8302 70.2683 43.1935 70.2227 43.571C70.1289 44.3219 69.987 45.1064 69.82 45.9146C69.6366 46.7164 69.4607 47.5545 69.2135 48.3801C68.9957 49.2178 68.7121 50.051 68.4523 50.8883C68.1626 51.7169 67.8598 52.5397 67.5464 53.3431C67.2194 54.144 66.905 54.9332 66.553 55.6772C66.2113 56.423 65.8811 57.1428 65.5287 57.8097C65.1797 58.4771 64.8673 59.1159 64.5301 59.6768C64.2047 60.2502 63.8997 60.7677 63.6264 61.2242C63.3498 61.6801 63.0857 62.0646 62.8784 62.3855C62.4548 63.0187 62.2086 63.3818 62.2086 63.3818C62.2086 63.3818 62.3876 62.9823 62.7 62.2839C62.8621 61.941 63.0556 61.5195 63.2769 61.0399C63.4891 60.5516 63.7292 60.0052 64.0014 59.4153C64.277 58.8261 64.5267 58.1656 64.8293 57.483C65.1347 56.8044 65.4049 56.067 65.7189 55.3198C66.0425 54.5778 66.2962 53.7745 66.6168 52.9899C66.9148 52.1943 67.1994 51.3754 67.4766 50.5586C67.7436 49.74 68.0344 48.9257 68.2594 48.1067C68.5082 47.2919 68.7336 46.4906 68.9379 45.71C69.0522 45.3201 69.1177 44.9286 69.2188 44.5539C69.3103 44.1741 69.4034 43.805 69.4676 43.4413C69.5385 43.0788 69.611 42.7271 69.6783 42.385C69.7321 42.0405 69.7834 41.7096 69.833 41.3889C69.8927 41.07 69.9115 40.7649 69.9454 40.473C69.9692 40.1793 70.0217 39.9012 70.0185 39.6413C70.037 39.1188 70.0617 38.6606 70.0221 38.2891C70.0148 37.9128 69.9552 37.615 69.9134 37.4148C69.875 37.2153 69.8522 37.1062 69.8522 37.1062Z" fill="#D0C9BE"/>
<path d="M71.797 39.1946C76.1396 36.8868 79.7832 31.0106 77.3639 26.1472C77.2263 25.8741 76.8721 26.0745 76.8619 26.311C76.764 28.3965 76.8539 30.431 76.2986 32.4674C75.5806 35.0884 73.8853 37.4881 71.7618 39.1358C71.7252 39.1644 71.7582 39.2158 71.797 39.1946Z" fill="#D0C9BE"/>
<path d="M18.662 54.3229C16.8935 49.5392 17.6878 44.3207 18.6027 39.4423C19.5997 34.1299 22.0638 29.8051 24.7339 25.2222C24.8873 24.9584 24.534 24.6543 24.2904 24.8251C19.919 27.9164 18.0944 34.1659 17.0605 39.1354C16.0402 44.0372 16.2927 49.8258 18.601 54.3507C18.6197 54.3856 18.6766 54.3571 18.662 54.3229Z" fill="#D0C9BE"/>
<path d="M25.1179 42.6304C23.8314 38.2436 24.7074 33.8561 25.8239 29.5355C26.9176 25.3125 29.4686 22.0334 31.0602 18.077C31.1647 17.8185 30.9097 17.5948 30.6666 17.7236C27.021 19.6497 25.4507 24.8506 24.3763 28.5233C23.0462 33.069 23.0891 38.2915 25.0531 42.6506C25.0709 42.6888 25.13 42.6711 25.1179 42.6304Z" fill="#D0C9BE"/>
<path d="M32.5857 32.2596C31.127 24.2361 34.9647 15.8639 41.3871 10.9789C41.6038 10.8138 41.4505 10.4784 41.1834 10.5504C37.0753 11.6275 34.4093 16.2111 32.6263 19.7482C30.8561 23.2562 31.3618 28.6583 32.4512 32.285C32.4739 32.359 32.5996 32.3357 32.5857 32.2596Z" fill="#D0C9BE"/>
<path d="M39.1242 25.9478C39.9123 19.1406 44.3835 12.4326 49.7788 8.40032C50.1142 8.14756 49.8782 7.59777 49.456 7.72659C42.5894 9.80317 39.0176 19.3929 39.0569 25.9394C39.0571 25.978 39.1189 25.9854 39.1242 25.9478Z" fill="#D0C9BE"/>
<path d="M13.8472 50.2458C13.8472 50.2458 13.7177 50.6541 13.4928 51.3714C13.3742 51.7255 13.2305 52.1593 13.0651 52.6558C12.8887 53.1434 12.7178 53.709 12.5337 54.3179C12.3466 54.9298 12.1448 55.5916 11.9175 56.284C11.7053 56.9826 11.521 57.7316 11.2937 58.4941C11.1839 58.8743 11.0713 59.2644 10.9581 59.658C10.8603 60.0578 10.7618 60.461 10.6634 60.8642C10.4681 61.6779 10.2349 62.4954 10.0639 63.3239C9.88626 64.1547 9.70825 64.9855 9.53322 65.7992C9.35351 66.6156 9.23439 67.4322 9.08839 68.2126C8.95674 68.9989 8.79116 69.7513 8.70795 70.4796C8.61208 71.2021 8.50683 71.8845 8.40921 72.5156C8.30283 73.1487 8.24946 73.7316 8.18955 74.2503C8.12753 74.765 8.07221 75.2178 8.02754 75.5885C7.92672 76.3312 7.86777 76.7589 7.86777 76.7589C7.86777 76.7589 7.85184 76.3285 7.82356 75.5806C7.81597 75.2042 7.80618 74.7469 7.79529 74.2263C7.78908 73.703 7.76878 73.1107 7.82078 72.468C7.85314 71.8253 7.89194 71.1242 7.94456 70.3905C7.97671 69.6497 8.08292 68.8764 8.19197 68.079C8.24536 67.6749 8.30046 67.2711 8.35504 66.8601C8.40615 66.4451 8.46268 66.031 8.55645 65.6165C8.72258 64.7836 8.89152 63.9408 9.06141 63.0946C9.24573 62.2579 9.49261 61.4323 9.70334 60.6108C9.81139 60.1988 9.92264 59.7944 10.0392 59.3978C10.17 59.0039 10.3005 58.6133 10.4285 58.2294C10.6839 57.4648 10.9304 56.7267 11.1929 56.0371C11.4655 55.3457 11.7354 54.6994 11.9838 54.1053C12.1087 53.8084 12.2288 53.5247 12.3421 53.2538C12.4698 52.9889 12.5901 52.7403 12.7028 52.5043C12.9359 52.0372 13.1381 51.6278 13.3054 51.2928C13.6497 50.6281 13.8472 50.2458 13.8472 50.2458Z" fill="#D0C9BE"/>
<path d="M54.5642 11.5711C54.5642 11.5711 54.349 11.5788 53.9472 11.592C53.5475 11.6127 52.9513 11.5952 52.217 11.725C51.8459 11.7822 51.4386 11.8261 50.997 11.9059C50.5608 12.0148 50.0921 12.1284 49.5865 12.253C49.0777 12.356 48.5639 12.5669 48.0129 12.7501C47.4645 12.9407 46.8819 13.1219 46.3056 13.3953C45.7247 13.6608 45.1058 13.8951 44.4948 14.208C43.8877 14.5285 43.2598 14.8594 42.615 15.2013C41.9757 15.5511 41.3555 15.978 40.7024 16.3745C40.3816 16.5878 40.0423 16.7733 39.7266 17.0015C39.4092 17.2329 39.0906 17.4641 38.7675 17.6981C38.1319 18.1747 37.4447 18.6073 36.8323 19.1547C36.2021 19.6779 35.5639 20.2067 34.9194 20.7414C34.2901 21.2893 33.691 21.8846 33.0687 22.4618L32.1418 23.3322C31.8423 23.6334 31.5591 23.9514 31.2649 24.2605C30.6801 24.8759 30.0948 25.4946 29.5116 26.1067C28.9455 26.7394 28.4169 27.3997 27.8736 28.0363C27.6037 28.3567 27.3348 28.6773 27.0682 28.9948C26.794 29.3074 26.5311 29.6255 26.2883 29.9612C25.7921 30.6167 25.3032 31.2629 24.8205 31.9033C23.8272 33.158 22.9962 34.4624 22.1589 35.671C21.752 36.2792 21.3309 36.8568 20.9658 37.4443C20.6035 38.0323 20.2526 38.6013 19.9168 39.1483C19.5785 39.6915 19.2547 40.2161 18.9481 40.7123C18.6375 41.2078 18.3313 41.6725 18.087 42.1341C17.5757 43.0462 17.1304 43.8403 16.7631 44.494C16.0173 45.7959 15.5919 46.541 15.5919 46.541C15.5919 46.541 15.9441 45.762 16.5847 44.403C16.9084 43.7241 17.3005 42.8996 17.7493 41.9518C18.1945 41.0035 18.7907 39.9836 19.4069 38.8482C19.7189 38.2829 20.043 37.6951 20.3791 37.085C20.7193 36.4756 21.1265 35.8815 21.5139 35.2524C22.3155 34.0059 23.1028 32.6553 24.0869 31.3674C24.561 30.7115 25.0428 30.0465 25.5311 29.3721C26.0022 28.6877 26.5763 28.0634 27.1082 27.4002C27.6553 26.7502 28.1876 26.0765 28.7555 25.4337C29.3441 24.805 29.9359 24.1734 30.5268 23.5416C30.8267 23.23 31.118 22.9134 31.4238 22.6063L32.3732 21.7258C33.0095 21.1441 33.6248 20.5447 34.2702 19.9891C35.5929 18.9151 36.885 17.8462 38.2495 16.9548C38.5828 16.7262 38.9134 16.4971 39.242 16.2712C39.5675 16.0412 39.9222 15.8619 40.2578 15.6583C40.9389 15.2737 41.5839 14.8617 42.2495 14.527C42.9212 14.2039 43.5746 13.8915 44.206 13.5858C44.844 13.2987 45.4905 13.0868 46.0937 12.8497C46.6939 12.5981 47.2962 12.4344 47.8681 12.2794C48.4409 12.1316 48.9737 11.9522 49.4975 11.8833C50.0187 11.7895 50.5029 11.7067 50.9514 11.628C51.4058 11.575 51.8293 11.5585 52.2063 11.5269C52.9579 11.4386 53.5449 11.5281 53.95 11.5364C54.3492 11.5578 54.5642 11.5711 54.5642 11.5711Z" fill="#D0C9BE"/>
<path d="M28.6516 34.4462C28.6516 34.4462 28.3037 34.9281 27.6771 35.7568C27.3598 36.167 26.9821 36.6716 26.5638 37.2568C26.144 37.8451 25.6582 38.4954 25.1521 39.2227C24.6426 39.946 24.0874 40.7277 23.5237 41.5711C22.9456 42.4049 22.3731 43.3063 21.7742 44.2345C21.1626 45.157 20.6051 46.1522 19.9952 47.1346C19.4256 48.1451 18.822 49.1532 18.2986 50.2034C17.7281 51.2348 17.2378 52.2978 16.7363 53.3414C16.5077 53.8688 16.2794 54.3964 16.0553 54.9141C15.9421 55.1745 15.8311 55.4318 15.7213 55.6893C15.6236 55.9489 15.527 56.2088 15.4313 56.4652C15.2427 56.9822 15.0409 57.4828 14.8743 57.9862C14.7125 58.4903 14.5562 58.9814 14.403 59.4626C14.2345 59.9375 14.148 60.42 14.022 60.8779C13.9127 61.3352 13.7718 61.7765 13.6997 62.2089C13.6209 62.6401 13.5458 63.0579 13.4749 63.4519C13.4364 63.6484 13.3996 63.8417 13.3639 64.0282C13.3428 64.2172 13.3243 64.3997 13.305 64.5785C13.2682 64.9365 13.2325 65.2702 13.2002 65.5764C13.1603 65.8883 13.138 66.1717 13.1459 66.4289C13.1309 67.4602 13.1077 68.0589 13.1077 68.0589C13.1077 68.0589 13.0388 67.4719 12.9442 66.4319C12.9122 66.1704 12.907 65.8821 12.9157 65.5683C12.918 65.2533 12.9204 64.9137 12.9229 64.5497C12.9248 64.3678 12.9266 64.1788 12.9276 63.9863C12.9452 63.7931 12.9643 63.5932 12.9817 63.393C13.0252 62.9836 13.0689 62.5568 13.1162 62.1095C13.1598 61.6616 13.2696 61.2078 13.3504 60.7279C13.4448 60.2539 13.5163 59.7549 13.6608 59.2617C13.7926 58.7627 13.9281 58.2504 14.0655 57.7279C14.2042 57.2056 14.4057 56.6909 14.5793 56.1573C14.6684 55.8926 14.7594 55.6248 14.851 55.3536C14.9553 55.0881 15.061 54.8228 15.1659 54.554C15.3811 54.0171 15.5913 53.4689 15.8295 52.9327C16.3295 51.8678 16.8164 50.7761 17.3878 49.7238C17.9323 48.6633 18.5539 47.6444 19.1413 46.6265C19.444 46.1227 19.7666 45.6364 20.0758 45.1547C20.386 44.6697 20.696 44.1916 21.0187 43.7369C21.3376 43.2779 21.6523 42.8287 21.9588 42.3886C22.2735 41.9534 22.596 41.5372 22.9008 41.1283C23.5052 40.3027 24.1201 39.556 24.6859 38.8637C25.2359 38.1651 25.7902 37.5619 26.2682 37.0154C26.7439 36.4684 27.1696 36.0038 27.5259 35.6285C28.2361 34.8706 28.6516 34.4462 28.6516 34.4462Z" fill="#D0C9BE"/>
<path d="M53.1975 15.5254C53.1975 15.5254 53.1709 15.5172 53.1199 15.5082C53.0684 15.5026 52.9938 15.4684 52.8922 15.468C52.6965 15.4651 52.4114 15.4919 52.0557 15.6009C51.3424 15.7906 50.3785 16.2479 49.264 16.8645C48.7084 17.1731 48.1127 17.5306 47.4911 17.9152C46.8702 18.2963 46.2306 18.7338 45.5649 19.1701C44.2477 20.0733 42.8603 21.0624 41.5149 22.1078C40.8389 22.6265 40.1685 23.1531 39.5226 23.6876C38.8799 24.2261 38.2349 24.7397 37.6374 25.2722C36.4318 26.3178 35.3379 27.334 34.4268 28.2317C33.9757 28.6849 33.558 29.0984 33.2031 29.4809C32.8435 29.8591 32.539 30.1944 32.2868 30.4759C31.7902 31.0402 31.5072 31.3652 31.5072 31.3652C31.5072 31.3652 31.5617 31.2732 31.665 31.0987C31.7731 30.9285 31.9119 30.6621 32.1245 30.3491C32.5332 29.7167 33.1599 28.8319 33.9908 27.8324C34.4048 27.3307 34.8677 26.8025 35.379 26.2618C35.888 25.7207 36.4343 25.1547 37.0276 24.6004C37.6174 24.042 38.2316 23.4705 38.8853 22.9234C39.5342 22.3719 40.2062 21.828 40.8879 21.2928C41.5805 20.7736 42.2766 20.2585 42.9775 19.7758C43.674 19.2818 44.3878 18.8434 45.0746 18.4108C46.4625 17.5656 47.8053 16.8491 49.0034 16.3349C50.1987 15.8167 51.2488 15.4866 52.0145 15.3974C52.393 15.3379 52.7052 15.3755 52.9086 15.4149C53.0072 15.4322 53.0759 15.4794 53.1257 15.4952C53.1715 15.5138 53.1975 15.5254 53.1975 15.5254Z" fill="#D0C9BE"/>
<path d="M46.66 17.0599C47.3593 14.6283 48.7143 12.7469 50.4719 10.9681C52.1791 9.2364 54.511 8.53311 56.6578 7.54834C56.8715 7.44934 56.936 7.04368 56.6281 7.02093C51.2041 6.59722 47.1254 12.1443 46.5937 17.0482C46.5883 17.0928 46.6481 17.1033 46.66 17.0599Z" fill="#D0C9BE"/>
</svg>
