<svg width="108" height="117" viewBox="0 0 108 117" fill="none" xmlns="http://www.w3.org/2000/svg">
<path d="M87.7 26.6773C98.4896 36.0351 95.6535 51.7019 88.8529 62.4455C85.7319 67.3748 82.1957 72.0365 78.3955 76.458C66.4359 90.3804 49.1158 103.778 29.7455 97.4929C29.3163 97.3527 29.147 97.9843 29.547 98.1475C48.9606 106.132 67.8261 91.2029 79.8315 77.1875C90.8841 64.2838 105.998 41.2267 88.4949 27.0884C88.2662 26.9046 88.0307 26.7327 87.7853 26.5711C87.723 26.5271 87.6429 26.6244 87.7 26.6773Z" fill="#373533"/>
<path d="M15.4046 89.6672C17.7054 86.0977 22.7372 85.8624 25.8682 83.2384C27.7771 81.6385 28.2519 78.7322 26.7018 76.8171C26.5663 77.1214 26.4299 77.4253 26.2935 77.7291C29.1807 77.9215 31.344 79.7802 33.9231 80.787C34.3557 80.9571 34.6556 80.3651 34.3707 80.0571C32.3261 77.8444 29.2029 77.4999 26.4687 76.6705C26.0049 76.5303 25.6329 77.0289 25.8374 77.4459C27.99 81.8012 22.8026 83.8915 19.7273 85.2325C17.7066 86.1143 16.0959 87.5477 15.2811 89.6119C15.2507 89.686 15.3651 89.7281 15.4046 89.6672Z" fill="#373533"/>
<path d="M32.5308 79.2296C32.5048 77.0665 32.5166 74.5865 34.4962 73.1748C35.2244 72.6548 36.3501 72.4957 37.1831 72.1317C38.3791 71.6107 39.4272 70.9923 40.4861 70.2287C43.8648 67.7956 46.6449 64.0564 49.3173 60.8966C50.6158 59.3627 51.8629 57.7832 53.0935 56.1901C53.6132 55.5178 54.2174 54.2366 55.1837 54.1091C56.0862 53.9885 57.013 53.7225 57.8599 53.3945C60.9819 52.184 63.8168 50.3456 65.1895 47.2086C65.3348 46.8741 64.8593 46.6553 64.6242 46.8623C62.9797 48.3439 61.4001 49.8789 59.481 51.0147C58.5561 51.5607 57.5313 51.9135 56.5089 52.2279C55.7026 52.4718 54.5032 52.3651 53.7851 52.7516C52.3956 53.4996 50.9832 56.251 50.0095 57.4384C48.3687 59.4362 46.6516 61.3701 44.8878 63.2571C43.3444 64.9087 41.7557 66.5221 40.077 68.0278C38.9349 69.0542 37.7371 69.9208 36.3696 70.6258C35.4739 71.0851 34.4034 71.3 33.6053 71.9511C31.1585 73.9459 31.4667 76.4672 32.2598 79.2565C32.3016 79.4002 32.5329 79.3902 32.5308 79.2296Z" fill="#373533"/>
<path d="M67.5516 47.7558C69.6732 45.3581 72.2253 43.3125 75.0858 41.8714C77.3516 40.7286 79.7463 40.2739 81.0462 37.9119C82.1123 35.9689 81.9181 33.3301 82.5353 31.2394C83.346 28.4754 85.7145 26.7821 86.6416 24.2168C86.7214 23.9959 86.4951 23.7735 86.2769 23.8269C82.2532 24.8116 80.6943 31.1769 80.2319 34.6561C79.9175 37.0092 79.1226 38.3516 76.8086 39.343C75.3867 39.9489 74.0998 40.5489 72.8108 41.4148C70.4067 43.0317 68.7582 45.1207 67.4454 47.6706C67.4122 47.7351 67.497 47.816 67.5516 47.7558Z" fill="#373533"/>
<path d="M15.5917 87.4235C17.1563 86.6331 17.8286 85.4072 18.2756 83.7563C18.5813 82.6256 18.4946 81.36 18.4488 80.2017C18.4261 79.6267 18.863 73.1159 20.6192 74.5284C23.6415 76.9508 28.345 73.0348 30.4539 71.1996C34.1544 67.9798 36.9964 63.818 39.9267 59.9264C43.3205 55.4177 46.9111 51.712 51.5989 48.5561C51.834 48.3969 51.7196 47.9323 51.4084 48.0476C42.618 51.3257 37.7239 61.261 31.4806 67.6556C29.7164 69.4626 27.7422 71.0727 25.5475 72.3283C24.1244 73.1407 22.4998 73.6733 21.0482 72.62C20.5727 72.2737 19.9019 72.7074 19.4795 72.886C18.1466 73.4475 17.244 75.3774 17.0764 76.7114C16.6449 80.1606 19.0002 84.8123 15.5263 87.302C15.4564 87.3534 15.5107 87.4644 15.5917 87.4235Z" fill="#373533"/>
<path d="M12.8444 88.7636C3.56967 70.1656 18.0959 51.5797 30.8469 39.2222C38.0332 32.2602 46.0371 25.8658 55.3686 22.0633C59.7839 20.2644 64.5303 19.2506 69.2822 18.9852C73.8679 18.7275 78.2464 19.6652 82.6733 20.7226C82.8897 20.7758 83.0585 20.4628 82.8393 20.3522C74.868 16.2919 64.6194 17.5405 56.4298 20.2688C46.1411 23.6901 37.4393 30.63 29.7978 38.1223C16.8397 50.8266 2.38318 70.174 12.7239 88.8295C12.7669 88.9061 12.8833 88.8418 12.8444 88.7636Z" fill="#373533"/>
<path d="M15.4974 90.303C21.913 96.2587 30.2928 99.7896 39.0647 100.128C47.272 100.442 56.7384 96.9129 62.6518 91.2125C63.0916 90.789 62.5639 90.1774 62.0531 90.3926C54.7628 93.4249 47.4754 96.9769 39.5629 98.0359C31.1955 99.1511 22.0404 95.2483 15.5412 90.2485C15.5092 90.2261 15.4697 90.2751 15.4974 90.303Z" fill="#373533"/>
<path d="M34.1445 90.3842C37.5012 95.9529 45.3135 96.0476 51.0033 95.3871C55.0334 94.9162 58.9544 93.5573 62.6493 91.9205C66.1773 90.3586 69.8174 88.3474 71.9196 85.0099C72.1653 84.6257 71.7165 84.1952 71.3308 84.3869C68.3717 85.8468 65.6411 87.7256 62.6866 89.212C59.415 90.8542 55.9443 91.9509 52.3887 92.7875C46.4259 94.183 39.1065 94.7117 34.1995 90.3443C34.173 90.321 34.125 90.349 34.1445 90.3842Z" fill="#373533"/>
<path d="M49.4752 84.8353C53.9599 86.9384 59.5337 86.8446 64.2681 85.7681C69.2283 84.6386 76.0122 82.2625 78.5458 77.4324C78.7138 77.107 78.3447 76.842 78.0693 77.0497C73.8607 80.2391 69.7662 82.6855 64.5977 84.0653C59.8016 85.3454 54.3395 86.3844 49.5037 84.7721C49.4673 84.7591 49.4406 84.8193 49.4752 84.8353Z" fill="#373533"/>
<path d="M65 80.1459C68.5611 80.6874 72.1267 80.3788 75.4132 78.8489C78.2098 77.5462 81.7142 75.2176 82.4416 72.0388C82.4918 71.8207 82.2676 71.5877 82.0479 71.7198C79.593 73.2038 77.8407 75.5278 75.3212 77.0064C72.1909 78.8457 68.6281 79.957 64.9994 80.0778C64.9545 80.0798 64.9555 80.1401 65 80.1459Z" fill="#373533"/>
<path d="M74.1156 71.6668C78.2342 72.1676 82.2626 71.1059 85.4847 68.4588C88.1439 66.2758 91.3823 63.2276 91.6143 59.5676C91.6299 59.3335 91.2841 59.2215 91.1693 59.4342C87.8769 65.5717 81.3417 71.5068 74.1222 71.5312C74.031 71.5303 74.0296 71.657 74.1156 71.6668Z" fill="#373533"/>
<path d="M80.3814 63.7275C86.6666 62.9883 93.4755 58.2633 94.5 51.7052C94.5617 51.3223 93.9792 51.1853 93.8045 51.4949C90.7765 56.8844 86.6293 62.0382 80.3685 63.6602C80.3213 63.6728 80.3395 63.7311 80.3814 63.7275Z" fill="#373533"/>
<path d="M92.0309 44.5362C92.3587 48.8901 89.9164 53.5138 87.9272 57.2076C84.5175 63.5483 80.0092 69.3067 75.0271 74.4846C69.1758 80.5674 62.3409 85.8274 54.8932 89.8089C46.5125 94.288 37.5686 96.25 28.1783 96.9977C27.7024 97.0378 27.6578 97.7135 28.1513 97.7513C46.4068 99.0891 63.8775 88.205 75.7912 75.2804C80.8294 69.8121 85.2195 63.6507 88.5523 56.9946C90.388 53.3318 92.5416 48.7527 92.0977 44.5309C92.094 44.489 92.0285 44.499 92.0309 44.5362Z" fill="#373533"/>
<path d="M65.443 77.7356C65.443 77.7356 64.962 78.1752 64.1003 78.9291C63.6756 79.3057 63.136 79.7433 62.5211 80.2492C61.9088 80.7644 61.2 81.3157 60.4148 81.9026C59.6424 82.5087 58.7639 83.1054 57.8436 83.7537C56.905 84.3716 55.9272 85.0505 54.8692 85.6751C54.3446 85.9899 53.8072 86.3133 53.2651 86.638C52.7132 86.945 52.1519 87.2546 51.5888 87.5672C51.027 87.8845 50.441 88.1678 49.8558 88.4636C49.274 88.7534 48.6925 89.0633 48.092 89.3304C47.4945 89.5991 46.8969 89.8678 46.3024 90.1383C45.6985 90.3835 45.0929 90.6317 44.4955 90.8726C43.9019 91.1277 43.2999 91.342 42.6984 91.5487C42.1015 91.7541 41.5158 91.9818 40.9298 92.1616C39.756 92.5241 38.6195 92.8842 37.5216 93.143C36.9769 93.2789 36.4471 93.4233 35.9299 93.5392C35.4119 93.6426 34.911 93.744 34.4289 93.8403C33.4682 94.0548 32.5726 94.1634 31.7835 94.2737C31.389 94.3289 31.0193 94.3825 30.6809 94.4302C30.3357 94.4621 30.021 94.4916 29.7364 94.5186C28.5965 94.6216 27.9469 94.665 27.9469 94.665C27.9469 94.665 28.5858 94.5318 29.7064 94.3219C29.9864 94.2684 30.2963 94.2121 30.6347 94.1485C30.9667 94.0732 31.3306 93.9883 31.718 93.8971C32.4881 93.716 33.3575 93.5286 34.2949 93.2648C34.7664 93.1384 35.2567 93.0071 35.7612 92.8719C36.2636 92.7196 36.7802 92.5635 37.3156 92.4023C38.3855 92.0954 39.4862 91.6868 40.6365 91.3028C41.211 91.1084 41.7806 90.8674 42.3642 90.6504C42.9483 90.4256 43.5383 90.2043 44.1255 89.9535C44.7109 89.7057 45.3041 89.4583 45.8972 89.211C46.4841 88.94 47.0709 88.6691 47.6577 88.3982C48.2531 88.1401 48.8277 87.8422 49.406 87.5583C49.9831 87.2698 50.5652 87.0001 51.1236 86.6888C51.6857 86.3916 52.2461 86.0974 52.797 85.8058C53.3412 85.4983 53.8807 85.192 54.4103 84.896C54.9411 84.6047 55.4486 84.2919 55.9521 83.9927C56.4573 83.6906 56.9521 83.4064 57.4243 83.1132C58.3607 82.506 59.2711 81.9715 60.0788 81.4216C60.889 80.8811 61.6416 80.399 62.2905 79.9447C62.9436 79.4968 63.5202 79.1123 63.9768 78.7702C64.9057 78.1069 65.443 77.7356 65.443 77.7356Z" fill="#373533"/>
<path d="M84.7236 53.0033C84.7236 53.0033 84.7278 53.1133 84.7294 53.3175C84.7341 53.5234 84.7533 53.8215 84.6793 54.2052C84.6446 54.3964 84.6312 54.6198 84.5745 54.8421C84.5144 55.0705 84.4504 55.3125 84.3838 55.5729C84.3214 55.8398 84.2098 56.1021 84.1169 56.3873C84.0163 56.6719 83.913 56.975 83.7713 57.2757C83.6402 57.5786 83.5052 57.8953 83.3604 58.2221C83.2006 58.5403 83.0326 58.8658 82.8607 59.2049C82.5156 59.8785 82.114 60.5672 81.6807 61.2695C81.2341 61.9602 80.7822 62.6877 80.2675 63.3789C79.7763 64.0916 79.2249 64.7775 78.6944 65.4755C78.1387 66.155 77.5727 66.8246 77.0035 67.4724C76.4223 68.1132 75.8569 68.7472 75.2717 69.326C74.6955 69.9099 74.139 70.4734 73.5798 70.9795C73.0236 71.4873 72.5115 71.9807 72.0028 72.3924C71.5009 72.82 71.0373 73.202 70.6244 73.5375C70.2085 73.8712 69.8289 74.1423 69.5243 74.3729C68.9097 74.8231 68.5541 75.0801 68.5541 75.0801C68.5541 75.0801 68.859 74.7659 69.3914 74.2165C69.6611 73.9497 69.987 73.6198 70.359 73.2447C70.7254 72.8585 71.1379 72.4271 71.5955 71.966C72.056 71.5065 72.5165 70.9713 73.0343 70.4334C73.5534 69.9001 74.0595 69.2996 74.6101 68.7049C75.168 68.1183 75.6812 67.4502 76.2508 66.8226C76.8029 66.1769 77.3505 65.5047 77.8903 64.832C78.4212 64.1541 78.9729 63.4883 79.4645 62.7957C79.9769 62.1151 80.4628 61.4392 80.9217 60.7756C81.1625 60.4483 81.3579 60.1028 81.5811 59.7853C81.797 59.4596 82.0108 59.1446 82.1954 58.8248C82.3861 58.5084 82.5745 58.2028 82.7548 57.9043C82.9231 57.599 83.0845 57.3056 83.2407 57.0212C83.4059 56.742 83.5279 56.4617 83.6596 56.199C83.7824 55.9311 83.9269 55.6877 84.0128 55.4424C84.2089 54.9578 84.3888 54.5356 84.4786 54.173C84.6005 53.817 84.6464 53.5167 84.6755 53.3143C84.7077 53.1137 84.7236 53.0033 84.7236 53.0033Z" fill="#373533"/>
<path d="M85.8369 55.6308C90.707 54.9474 96.1406 50.6718 95.5306 45.2742C95.4947 44.9706 95.0933 45.0377 95.0028 45.2565C94.1976 47.1828 93.5862 49.1253 92.3678 50.8489C90.7967 53.0663 88.3829 54.7414 85.824 55.5636C85.7798 55.5779 85.7932 55.6375 85.8369 55.6308Z" fill="#373533"/>
<path d="M30.7323 51.6731C30.7065 46.573 33.2378 41.9409 35.766 37.6697C38.5198 33.0186 42.3145 29.7974 46.391 26.4041C46.6254 26.2087 46.3974 25.8021 46.1101 25.8793C40.945 27.2891 37.093 32.5376 34.4218 36.8537C31.7865 41.111 30.044 46.6369 30.6655 51.6784C30.6712 51.7176 30.7344 51.7102 30.7323 51.6731Z" fill="#373533"/>
<path d="M40.7979 42.8942C41.0893 38.332 43.4131 34.5086 45.94 30.8305C48.4121 27.2362 51.9307 25.0274 54.7796 21.8539C54.9661 21.6468 54.803 21.3493 54.5305 21.3873C50.446 21.9503 47.1916 26.3005 44.9258 29.3842C42.1213 33.2009 40.3754 38.1231 40.73 42.891C40.7337 42.9329 40.7953 42.9366 40.7979 42.8942Z" fill="#373533"/>
<path d="M51.3623 35.7029C52.7358 27.6645 59.2055 21.1097 66.9114 18.7159C67.1714 18.6349 67.1421 18.2673 66.8665 18.2436C62.6378 17.8506 58.5648 21.246 55.6796 23.96C52.8164 26.6509 51.4439 31.9003 51.2272 35.6808C51.2232 35.7581 51.3494 35.7792 51.3623 35.7029Z" fill="#373533"/>
<path d="M59.6652 32.0076C62.734 25.8805 69.2298 21.1062 75.6788 19.1624C76.0805 19.0396 76.0467 18.4423 75.6059 18.4189C68.4432 18.0218 61.8069 25.8115 59.6048 31.9767C59.5918 32.0131 59.6474 32.0411 59.6652 32.0076Z" fill="#373533"/>
<path d="M27.602 46.1956C27.602 46.1956 27.3407 46.5349 26.884 47.132C26.6515 47.4243 26.3681 47.7827 26.0428 48.1927C25.7103 48.5906 25.3563 49.0637 24.975 49.5729C24.5899 50.0838 24.1739 50.6367 23.7236 51.2096C23.2852 51.7935 22.8559 52.4343 22.3815 53.0731C22.1483 53.3928 21.909 53.7209 21.668 54.052C21.4394 54.3943 21.209 54.7395 20.9786 55.0847C20.5167 55.7825 20.018 56.471 19.574 57.191C19.1229 57.9109 18.6714 58.6307 18.2287 59.3355C17.7805 60.0412 17.3893 60.7678 16.9852 61.4512C16.5926 62.1451 16.1797 62.7954 15.8524 63.4513C15.5152 64.0976 15.1829 64.7028 14.8753 65.2625C14.5588 65.821 14.3093 66.3505 14.0756 66.8173C13.8412 67.2798 13.6344 67.6864 13.4657 68.0194C13.1169 68.6829 12.9152 69.0646 12.9152 69.0646C12.9152 69.0646 13.0474 68.6548 13.2767 67.9422C13.3983 67.586 13.5455 67.1529 13.7133 66.66C13.8864 66.1661 14.07 65.6026 14.3386 65.0164C14.5888 64.4236 14.8651 63.778 15.1655 63.1066C15.4491 62.4214 15.8134 61.731 16.1886 61.0191C16.3769 60.6576 16.5668 60.297 16.7587 59.9295C16.9486 59.557 17.1434 59.1872 17.3733 58.8297C17.8143 58.1039 18.2613 57.3697 18.7103 56.6326C19.1697 55.9095 19.6841 55.2181 20.1631 54.5182C20.4055 54.168 20.6484 53.826 20.8935 53.4932C21.1511 53.1678 21.4074 52.8454 21.659 52.5284C22.1604 51.8973 22.6445 51.288 23.1271 50.7297C23.6197 50.1732 24.0944 49.6582 24.531 49.185C24.7499 48.9487 24.9598 48.7232 25.159 48.5074C25.3695 48.3021 25.5676 48.1096 25.7542 47.9264C26.133 47.5672 26.463 47.2517 26.7349 46.9941C27.2858 46.4872 27.602 46.1956 27.602 46.1956Z" fill="#373533"/>
<path d="M79.0911 23.7789C79.0911 23.7789 78.8864 23.7125 78.5042 23.5875C78.1216 23.4702 77.5673 23.2498 76.8329 23.1207C76.4646 23.0476 76.0669 22.9495 75.6246 22.8735C75.1774 22.8265 74.6982 22.773 74.1804 22.7172C73.6671 22.64 73.1122 22.6624 72.5317 22.6461C71.9511 22.6377 71.3418 22.6087 70.7067 22.6684C70.07 22.7193 69.4083 22.7278 68.7272 22.8128C68.0471 22.9063 67.3439 23.0025 66.621 23.1032C65.9006 23.2134 65.1718 23.4024 64.4225 23.5516C64.0481 23.6423 63.6658 23.7005 63.2911 23.807C62.9137 23.9159 62.5352 24.0242 62.1516 24.1336C61.3912 24.3641 60.5976 24.5356 59.8349 24.8405C59.0638 25.1166 58.2832 25.3952 57.4947 25.6773C56.7159 25.9769 55.9493 26.3313 55.1672 26.6609L53.9985 27.1618C53.6141 27.3424 53.2391 27.5444 52.857 27.7342C52.097 28.1125 51.3353 28.4936 50.578 28.8694C49.8296 29.2703 49.1071 29.71 48.3788 30.1224C48.0155 30.3312 47.6532 30.5404 47.2941 30.7476C46.9295 30.9476 46.5737 31.1566 46.2307 31.389C45.5403 31.8352 44.8598 32.2753 44.1872 32.712C42.8247 33.5513 41.5976 34.4928 40.3975 35.3421C39.8071 35.7745 39.2138 36.1732 38.6699 36.6004C38.1283 37.029 37.604 37.4437 37.1013 37.8429C36.5976 38.2376 36.1139 38.6198 35.6561 38.9813C35.1948 39.3406 34.7481 39.6726 34.3606 40.0227C33.5682 40.705 32.8781 41.2989 32.3095 41.7876C31.1634 42.7559 30.5088 43.3105 30.5088 43.3105C30.5088 43.3105 31.1062 42.699 32.1729 41.641C32.7093 41.1138 33.3597 40.473 34.1057 39.736C34.8483 38.9971 35.7574 38.2427 36.7248 37.3864C37.2114 36.9619 37.7169 36.5205 38.2414 36.0621C38.7695 35.6058 39.3553 35.1868 39.9346 34.7282C41.1141 33.831 42.3159 32.8311 43.6811 31.9574C44.351 31.5033 45.0312 31.0431 45.7207 30.5764C46.3975 30.0944 47.1505 29.7042 47.8771 29.2629C48.6135 28.8392 49.3441 28.3882 50.0977 27.9784C50.8657 27.5889 51.6379 27.1978 52.4092 26.8062C52.7976 26.6159 53.1797 26.4181 53.572 26.2341L54.7653 25.7314C55.5622 25.4025 56.3454 25.0496 57.1419 24.7482C58.7522 24.1914 60.332 23.6289 61.9191 23.258C62.3104 23.1572 62.6994 23.055 63.0855 22.955C63.47 22.8502 63.8647 22.8031 64.2497 22.7265C65.0212 22.5981 65.7682 22.4315 66.5082 22.3447C67.2499 22.2707 67.9707 22.2007 68.6686 22.1294C69.3663 22.0778 70.0463 22.0998 70.6942 22.0833C71.3443 22.0522 71.9662 22.1043 72.5566 22.1543C73.1454 22.2113 73.7075 22.2249 74.2232 22.3394C74.7451 22.4294 75.2285 22.5172 75.6768 22.5967C76.1219 22.7023 76.5255 22.8317 76.8906 22.9309C77.627 23.105 78.148 23.3898 78.5258 23.5362C78.8937 23.6928 79.0911 23.7789 79.0911 23.7789Z" fill="#373533"/>
<path d="M46.9174 36.4129C46.9174 36.4129 46.4258 36.7467 45.5535 37.3112C45.115 37.5881 44.5875 37.9331 43.9943 38.3399C43.3986 38.7491 42.7196 39.1941 41.9953 39.7045C41.2692 40.2098 40.48 40.7545 39.6619 41.3542C38.8335 41.94 37.9873 42.5912 37.107 43.2587C36.2167 43.9164 35.3525 44.6608 34.4434 45.3754C33.5625 46.1301 32.6506 46.871 31.7995 47.6788C30.9107 48.4529 30.0864 49.2842 29.2582 50.0933C28.863 50.5107 28.468 50.9283 28.0803 51.3382C27.8849 51.5442 27.6927 51.748 27.5013 51.9524C27.3208 52.163 27.1411 52.3741 26.9635 52.5824C26.6094 53.0037 26.2486 53.4051 25.9199 53.8211C25.5954 54.2395 25.2805 54.6476 24.972 55.0473C24.6512 55.436 24.405 55.8597 24.13 56.2469C23.8708 56.6393 23.5875 57.0058 23.3719 57.3874C23.1503 57.7657 22.9369 58.1326 22.7355 58.4786C22.6321 58.6501 22.5314 58.8191 22.4341 58.9821C22.3496 59.1526 22.2698 59.3177 22.1905 59.4792C22.0335 59.803 21.8858 60.1043 21.7507 60.381C21.6066 60.6604 21.4887 60.9191 21.4081 61.1636C21.0413 62.1275 20.8148 62.6821 20.8148 62.6821C20.8148 62.6821 20.9507 62.107 21.2176 61.0974C21.2769 60.8407 21.3706 60.568 21.4861 60.2761C21.596 59.9808 21.7144 59.6626 21.8413 59.3213C21.9053 59.1511 21.9716 58.9741 22.0384 58.7935C22.121 58.618 22.2073 58.4367 22.2922 58.2546C22.473 57.8847 22.6601 57.4986 22.8575 57.0945C23.0517 56.6885 23.3101 56.2996 23.5501 55.8763C23.801 55.4632 24.0389 55.0187 24.3433 54.6046C24.6378 54.1808 24.9404 53.7457 25.2481 53.3017C25.5571 52.8584 25.9225 52.4437 26.2682 52.0016C26.4424 51.7834 26.6195 51.5628 26.7984 51.3393C26.9872 51.1255 27.1772 50.9124 27.3677 50.6956C27.7536 50.2648 28.1386 49.8215 28.5459 49.3991C29.3799 48.5695 30.2109 47.7101 31.1077 46.9167C31.9821 46.1064 32.9146 45.3616 33.8148 44.606C34.2715 44.236 34.741 43.8894 35.1963 43.5425C35.6537 43.1928 36.1085 42.8496 36.5673 42.5326C37.0239 42.2104 37.4733 41.896 37.9118 41.5872C38.3563 41.2859 38.8018 41.0051 39.2281 40.7252C40.0784 40.156 40.9116 39.6646 41.68 39.2076C42.4358 38.7393 43.163 38.362 43.7991 38.0119C44.4331 37.6606 44.9921 37.3696 45.4553 37.1389C46.3818 36.6695 46.9174 36.4129 46.9174 36.4129Z" fill="#373533"/>
<path d="M76.4546 27.0271C76.4546 27.0271 76.4324 27.0103 76.3875 26.9844C76.341 26.9615 76.2826 26.9039 76.1873 26.8688C76.0044 26.799 75.7273 26.7267 75.3558 26.7075C74.6206 26.6418 73.5585 26.7419 72.3003 26.9401C71.6727 27.04 70.9905 27.1723 70.275 27.3211C69.5611 27.4669 68.8105 27.6591 68.0356 27.8415C66.489 28.2397 64.847 28.6946 63.2252 29.2169C62.4125 29.473 61.6024 29.7386 60.8127 30.0199C60.0246 30.3062 59.2428 30.5682 58.4992 30.8642C57.0087 31.4344 55.6332 32.0152 54.47 32.5472C53.8912 32.8188 53.3572 33.0644 52.8929 33.3025C52.4256 33.5348 52.0248 33.7458 51.6916 33.9241C51.0319 34.2845 50.6548 34.4932 50.6548 34.4932C50.6548 34.4932 50.7374 34.4253 50.8942 34.2966C51.0541 34.1737 51.2756 33.9708 51.5824 33.7494C52.1827 33.295 53.0742 32.6779 54.1969 32.0228C54.7575 31.6929 55.3732 31.3549 56.0386 31.0217C56.7019 30.6873 57.4088 30.3423 58.1559 30.0244C58.9011 29.7014 59.6738 29.3744 60.4752 29.0838C61.2736 28.7875 62.0911 28.5063 62.9148 28.2366C63.7432 27.9856 64.5734 27.7396 65.3972 27.5257C66.2207 27.2997 67.0413 27.1319 67.8346 26.9603C69.4279 26.6407 70.9348 26.4267 72.2365 26.3533C73.537 26.2752 74.6366 26.3242 75.3867 26.5022C75.7626 26.5758 76.0432 26.7179 76.2209 26.8244C76.3075 26.8745 76.356 26.9423 76.3974 26.9742C76.4341 27.0073 76.4546 27.0271 76.4546 27.0271Z" fill="#373533"/>
<path d="M69.7863 26.2343C71.275 24.1885 73.1919 22.8841 75.4518 21.8136C77.6483 20.7703 80.0802 20.907 82.4343 20.7158C82.6689 20.6959 82.8683 20.3367 82.5868 20.2101C77.6347 17.9568 71.9049 21.7744 69.728 26.2006C69.7076 26.2407 69.7602 26.2711 69.7863 26.2343Z" fill="#373533"/>
</svg>
