<svg width="96" height="108" viewBox="0 0 96 108" fill="none" xmlns="http://www.w3.org/2000/svg">
<path d="M5.67688 19.3685C15.0347 8.57892 30.7015 11.415 41.4451 18.2157C46.3744 21.3366 51.036 24.8728 55.4576 28.673C69.38 40.6327 82.778 57.9527 76.4925 77.323C76.3523 77.7522 76.9839 77.9216 77.1471 77.5216C85.1314 58.1079 70.2025 39.2425 56.187 27.2371C43.2834 16.1844 20.2263 1.07099 6.08796 18.5737C5.90414 18.8023 5.73228 19.0378 5.57065 19.2833C5.5267 19.3456 5.62396 19.4256 5.67688 19.3685Z" fill="#D0C9BE"/>
<path d="M68.6673 91.6636C65.0977 89.3628 64.8624 84.331 62.2385 81.2C60.6385 79.2911 57.7323 78.8163 55.8171 80.3664C56.1215 80.5019 56.4253 80.6383 56.7292 80.7746C56.9215 77.8875 58.7803 75.7242 59.7871 73.1451C59.9571 72.7125 59.3651 72.4125 59.0572 72.6974C56.8445 74.7421 56.4999 77.8653 55.6706 80.5994C55.5304 81.0633 56.029 81.4353 56.4459 81.2308C60.8013 79.0782 62.8916 84.2655 64.2325 87.3409C65.1143 89.3616 66.5477 90.9723 68.612 91.7871C68.6861 91.8175 68.7282 91.7031 68.6673 91.6636Z" fill="#D0C9BE"/>
<path d="M58.2296 74.5379C56.0665 74.564 53.5865 74.5521 52.1748 72.5726C51.6548 71.8443 51.4957 70.7186 51.1317 69.8856C50.6107 68.6897 49.9923 67.6416 49.2287 66.5826C46.7956 63.2039 43.0564 60.4238 39.8966 57.7514C38.3627 56.4529 36.7832 55.2058 35.1901 53.9752C34.5178 53.4555 33.2366 52.8514 33.1091 51.885C32.9885 50.9825 32.7225 50.0557 32.3945 49.2088C31.184 46.0869 29.3456 43.252 26.2086 41.8792C25.8741 41.7339 25.6553 42.2094 25.8623 42.4445C27.3439 44.089 28.8789 45.6686 30.0147 47.5877C30.5607 48.5127 30.9135 49.5374 31.2279 50.5598C31.4718 51.3661 31.3651 52.5655 31.7516 53.2836C32.4996 54.6732 35.251 56.0855 36.4384 57.0592C38.4362 58.7001 40.3701 60.4172 42.2571 62.1809C43.9087 63.7243 45.5221 65.313 47.0278 66.9917C48.0542 68.1339 48.9208 69.3317 49.6258 70.6991C50.0851 71.5948 50.3 72.6654 50.9511 73.4634C52.9459 75.9103 55.4672 75.602 58.2565 74.8089C58.4002 74.7671 58.3902 74.5358 58.2296 74.5379Z" fill="#D0C9BE"/>
<path d="M26.7558 39.517C24.3581 37.3954 22.3124 34.8434 20.8713 31.9829C19.7286 29.717 19.2739 27.3224 16.9119 26.0224C14.9688 24.9564 12.33 25.1505 10.2394 24.5333C7.47534 23.7226 5.78208 21.3541 3.21678 20.427C2.99581 20.3473 2.77346 20.5736 2.82685 20.7917C3.81154 24.8155 10.1768 26.3743 13.656 26.8367C16.0091 27.1512 17.3515 27.9461 18.343 30.2601C18.9488 31.6819 19.5488 32.9689 20.4147 34.2579C22.0316 36.662 24.1206 38.3105 26.6705 39.6232C26.735 39.6565 26.8159 39.5717 26.7558 39.517Z" fill="#D0C9BE"/>
<path d="M66.4236 91.4769C65.6332 89.9122 64.4073 89.2399 62.7564 88.7929C61.6257 88.4872 60.3602 88.5739 59.2019 88.6198C58.6268 88.6425 52.116 88.2056 53.5285 86.4493C55.9509 83.427 52.0349 78.7235 50.1997 76.6146C46.98 72.9141 42.8182 70.0721 38.9265 67.1418C34.4178 63.748 30.7121 60.1575 27.5563 55.4696C27.397 55.2346 26.9325 55.349 27.0477 55.6602C30.3258 64.4506 40.2611 69.3446 46.6557 75.5879C48.4627 77.3522 50.0728 79.3263 51.3284 81.521C52.1408 82.9441 52.6734 84.5688 51.6201 86.0203C51.2738 86.4959 51.7075 87.1667 51.8861 87.589C52.4476 88.9219 54.3775 89.8245 55.7115 89.9921C59.1607 90.4237 63.8124 88.0683 66.3022 91.5423C66.3535 91.6121 66.4645 91.5579 66.4236 91.4769Z" fill="#D0C9BE"/>
<path d="M67.7631 94.2238C49.1652 103.499 30.5793 88.9723 18.2218 76.2212C11.2597 69.035 4.8654 61.0311 1.06282 51.6995C-0.735977 47.2843 -1.74981 42.5378 -2.01521 37.786C-2.27297 33.2003 -1.33521 28.8218 -0.277801 24.3949C-0.224611 24.1785 -0.537664 24.0097 -0.648229 24.2288C-4.70851 32.2002 -3.45992 42.4488 -0.731653 50.6384C2.68968 60.927 9.62957 69.6289 17.1219 77.2704C29.8262 90.2285 49.1736 104.685 67.829 94.3443C67.9057 94.3013 67.8414 94.1849 67.7631 94.2238Z" fill="#D0C9BE"/>
<path d="M69.3026 91.5712C75.2584 85.1557 78.7893 76.7759 79.1271 68.004C79.4419 59.7967 75.9125 50.3303 70.2122 44.4169C69.7886 43.9771 69.1771 44.5047 69.3922 45.0156C72.4245 52.3058 75.9765 59.5933 77.0355 67.5058C78.1507 75.8732 74.2479 85.0282 69.2482 91.5275C69.2257 91.5595 69.2747 91.5989 69.3026 91.5712Z" fill="#D0C9BE"/>
<path d="M69.384 72.9242C74.9527 69.5675 75.0474 61.7552 74.3869 56.0654C73.916 52.0354 72.5571 48.1144 70.9203 44.4195C69.3585 40.8914 67.3472 37.2514 64.0097 35.1491C63.6255 34.9034 63.195 35.3522 63.3868 35.7379C64.8467 38.697 66.7254 41.4277 68.2118 44.3822C69.854 47.6537 70.9508 51.1244 71.7873 54.6801C73.1829 60.6428 73.7115 67.9622 69.3441 72.8693C69.3208 72.8957 69.3489 72.9438 69.384 72.9242Z" fill="#D0C9BE"/>
<path d="M63.8357 57.5932C65.9388 53.1084 65.8451 47.5346 64.7685 42.8002C63.639 37.84 61.2629 31.0561 56.4328 28.5225C56.1074 28.3545 55.8425 28.7236 56.0501 28.999C59.2395 33.2077 61.6859 37.3021 63.0657 42.4707C64.3458 47.2668 65.3848 52.7288 63.7725 57.5647C63.7595 57.601 63.8197 57.6278 63.8357 57.5932Z" fill="#D0C9BE"/>
<path d="M59.1455 42.0688C59.687 38.5077 59.3784 34.942 57.8485 31.6556C56.5458 28.859 54.2172 25.3545 51.0384 24.6271C50.8203 24.5769 50.5872 24.8011 50.7194 25.0209C52.2034 27.4758 54.5274 29.228 56.006 31.7475C57.8453 34.8778 58.9566 38.4407 59.0774 42.0693C59.0794 42.1143 59.1397 42.1133 59.1455 42.0688Z" fill="#D0C9BE"/>
<path d="M50.6669 32.953C51.1677 28.8344 50.106 24.806 47.4588 21.5839C45.2758 18.9247 42.2277 15.6863 38.5676 15.4543C38.3335 15.4387 38.2215 15.7845 38.4342 15.8993C44.5717 19.1917 50.5069 25.7269 50.5312 32.9464C50.5304 33.0376 50.6571 33.039 50.6669 32.953Z" fill="#D0C9BE"/>
<path d="M42.727 26.687C41.9878 20.4019 37.2629 13.5929 30.7047 12.5684C30.3218 12.5068 30.1848 13.0892 30.4944 13.264C35.8839 16.2919 41.0377 20.4392 42.6597 26.7C42.6723 26.7471 42.7306 26.729 42.727 26.687Z" fill="#D0C9BE"/>
<path d="M23.5365 15.0377C27.8904 14.7099 32.5141 17.1523 36.2079 19.1414C42.5486 22.5511 48.307 27.0594 53.4849 32.0415C59.5677 37.8928 64.8277 44.7277 68.8092 52.1754C73.2883 60.5561 75.2503 69.5 75.998 78.8903C76.0381 79.3662 76.7138 79.4108 76.7516 78.9173C78.0894 60.6618 67.2054 43.1911 54.2807 31.2775C48.8124 26.2392 42.6511 21.8491 35.9949 18.5163C32.3321 16.6806 27.753 14.527 23.5313 14.9709C23.4893 14.9746 23.4993 15.0401 23.5365 15.0377Z" fill="#D0C9BE"/>
<path d="M56.7355 41.625C56.7355 41.625 57.1751 42.106 57.929 42.9677C58.3055 43.3924 58.7432 43.932 59.249 44.5469C59.7643 45.1592 60.3156 45.868 60.9024 46.6531C61.5086 47.4256 62.1053 48.3041 62.7536 49.2244C63.3715 50.163 64.0503 51.1408 64.6749 52.1988C64.9898 52.7234 65.3132 53.2608 65.6378 53.8029C65.9449 54.3548 66.2545 54.9161 66.5671 55.4792C66.8843 56.041 67.1677 56.627 67.4635 57.2122C67.7533 57.794 68.0632 58.3755 68.3302 58.976C68.599 59.5735 68.8677 60.1711 69.1382 60.7656C69.3834 61.3695 69.6315 61.975 69.8725 62.5725C70.1275 63.1661 70.3419 63.7681 70.5486 64.3696C70.754 64.9665 70.9817 65.5522 71.1614 66.1382C71.5239 67.312 71.8841 68.4485 72.1429 69.5464C72.2787 70.0911 72.4232 70.6209 72.539 71.1381C72.6425 71.6561 72.7439 72.157 72.8402 72.6391C73.0546 73.5998 73.1633 74.4954 73.2736 75.2845C73.3288 75.679 73.3824 76.0487 73.4301 76.3871C73.462 76.7323 73.4915 77.047 73.5184 77.3316C73.6215 78.4715 73.6649 79.1211 73.6649 79.1211C73.6649 79.1211 73.5316 78.4822 73.3218 77.3616C73.2683 77.0816 73.212 76.7717 73.1484 76.4333C73.073 76.1013 72.9882 75.7374 72.897 75.35C72.7159 74.5799 72.5284 73.7105 72.2646 72.7731C72.1383 72.3016 72.0069 71.8113 71.8718 71.3068C71.7195 70.8044 71.5633 70.2878 71.4022 69.7524C71.0953 68.6825 70.6867 67.5818 70.3027 66.4315C70.1083 65.857 69.8673 65.2874 69.6502 64.7038C69.4255 64.1197 69.2042 63.5297 68.9534 62.9425C68.7056 62.3571 68.4582 61.7639 68.2109 61.1708C67.9399 60.5839 67.669 59.9971 67.398 59.4102C67.14 58.8149 66.842 58.2403 66.5582 57.662C66.2697 57.0849 66 56.5028 65.6887 55.9444C65.3915 55.3823 65.0973 54.8219 64.8057 54.271C64.4982 53.7268 64.1919 53.1873 63.8959 52.6577C63.6046 52.1268 63.2918 51.6194 62.9926 51.1159C62.6905 50.6107 62.4063 50.1159 62.113 49.6437C61.5059 48.7073 60.9714 47.7969 60.4215 46.9892C59.881 46.179 59.3989 45.4264 58.9445 44.7775C58.4967 44.1244 58.1122 43.5478 57.7701 43.0912C57.1068 42.1622 56.7355 41.625 56.7355 41.625Z" fill="#D0C9BE"/>
<path d="M32.0034 22.3452C32.0034 22.3452 32.1134 22.341 32.3176 22.3393C32.5235 22.3347 32.8216 22.3154 33.2052 22.3895C33.3964 22.4242 33.6198 22.4376 33.8422 22.4942C34.0705 22.5543 34.3126 22.6183 34.573 22.685C34.8398 22.7474 35.1022 22.859 35.3873 22.9519C35.672 23.0525 35.975 23.1557 36.2758 23.2975C36.5787 23.4285 36.8953 23.5635 37.2222 23.7084C37.5404 23.8682 37.8659 24.0362 38.205 24.2081C38.8786 24.5531 39.5673 24.9547 40.2696 25.3881C40.9602 25.8347 41.6877 26.2866 42.379 26.8012C43.0917 27.2924 43.7776 27.8439 44.4756 28.3744C45.1551 28.9301 45.8247 29.496 46.4724 30.0653C47.1133 30.6465 47.7473 31.2118 48.326 31.797C48.91 32.3733 49.4735 32.9297 49.9796 33.489C50.4874 34.0452 50.9808 34.5572 51.3925 35.0659C51.8201 35.5678 52.202 36.0314 52.5375 36.4443C52.8713 36.8602 53.1423 37.2399 53.373 37.5444C53.8232 38.159 54.0801 38.5146 54.0801 38.5146C54.0801 38.5146 53.766 38.2097 53.2165 37.6773C52.9498 37.4077 52.6199 37.0817 52.2448 36.7098C51.8586 36.3433 51.4272 35.9308 50.966 35.4733C50.5066 35.0128 49.9714 34.5523 49.4334 34.0345C48.9002 33.5154 48.2997 33.0093 47.7049 32.4586C47.1184 31.9008 46.4502 31.3876 45.8226 30.818C45.1769 30.2659 44.5047 29.7183 43.832 29.1785C43.1541 28.6476 42.4883 28.0958 41.7957 27.6043C41.1152 27.0918 40.4393 26.6059 39.7756 26.1471C39.4483 25.9063 39.1029 25.7108 38.7854 25.4877C38.4597 25.2717 38.1447 25.058 37.8249 24.8733C37.5085 24.6827 37.2028 24.4943 36.9044 24.314C36.599 24.1457 36.3057 23.9843 36.0213 23.828C35.742 23.6628 35.4617 23.5409 35.199 23.4091C34.9312 23.2863 34.6878 23.1418 34.4424 23.056C33.9579 22.8599 33.5357 22.6799 33.1731 22.5901C32.817 22.4683 32.5167 22.4224 32.3144 22.3932C32.1137 22.3611 32.0034 22.3452 32.0034 22.3452Z" fill="#D0C9BE"/>
<path d="M34.6306 21.2315C33.9472 16.3615 29.6716 10.9279 24.274 11.5379C23.9703 11.5738 24.0375 11.9752 24.2562 12.0656C26.1825 12.8709 28.125 13.4823 29.8487 14.7006C32.0661 16.2718 33.7412 18.6856 34.5633 21.2445C34.5777 21.2887 34.6372 21.2752 34.6306 21.2315Z" fill="#D0C9BE"/>
<path d="M30.6731 76.336C25.573 76.3617 20.9409 73.8305 16.6696 71.3023C12.0185 68.5485 8.79732 64.7538 5.40406 60.6773C5.20861 60.4429 4.80204 60.6709 4.87927 60.9582C6.28902 66.1233 11.5375 69.9753 15.8537 72.6465C20.1109 75.2818 25.6368 77.0243 30.6783 76.4028C30.7175 76.3971 30.7102 76.3339 30.6731 76.336Z" fill="#D0C9BE"/>
<path d="M21.8943 66.2711C17.332 65.9796 13.5087 63.6558 9.83054 61.1289C6.23629 58.6569 4.02742 55.1382 0.853963 52.2894C0.646825 52.1028 0.349407 52.2659 0.387321 52.5385C0.950402 56.6229 5.30055 59.8773 8.38422 62.1431C12.201 64.9477 17.1231 66.6935 21.891 66.3389C21.933 66.3353 21.9367 66.2736 21.8943 66.2711Z" fill="#D0C9BE"/>
<path d="M14.7027 55.7066C6.66421 54.3332 0.10941 47.8634 -2.28435 40.1575C-2.36539 39.8975 -2.73299 39.9268 -2.75665 40.2025C-3.14964 44.4311 0.245706 48.5041 2.95974 51.3894C5.65067 54.2525 10.9 55.625 14.6805 55.8417C14.7579 55.8457 14.7789 55.7195 14.7027 55.7066Z" fill="#D0C9BE"/>
<path d="M11.008 47.4035C4.88088 44.3347 0.10664 37.8388 -1.83714 31.3898C-1.95992 30.9882 -2.55727 31.0219 -2.58064 31.4627C-2.97778 38.6254 4.81193 45.2617 10.9771 47.4638C11.0135 47.4768 11.0416 47.4213 11.008 47.4035Z" fill="#D0C9BE"/>
<path d="M25.1957 79.4668C25.1957 79.4668 25.535 79.7281 26.1322 80.1849C26.4244 80.4173 26.7828 80.7008 27.1928 81.026C27.5907 81.3585 28.0638 81.7126 28.573 82.0938C29.0839 82.4789 29.6368 82.8949 30.2098 83.3453C30.7936 83.7836 31.4344 84.213 32.0732 84.6874C32.3929 84.9206 32.721 85.1598 33.0521 85.4008C33.3944 85.6295 33.7396 85.8599 34.0848 86.0903C34.7826 86.5521 35.4711 87.0509 36.1911 87.4949C36.9111 87.946 37.6308 88.3974 38.3356 88.8402C39.0414 89.2883 39.768 89.6795 40.4513 90.0836C41.1452 90.4763 41.7955 90.8892 42.4515 91.2165C43.0977 91.5537 43.7029 91.886 44.2626 92.1936C44.8211 92.5101 45.3506 92.7596 45.8175 92.9933C46.28 93.2276 46.6866 93.4345 47.0196 93.6032C47.683 93.952 48.0647 94.1536 48.0647 94.1536C48.0647 94.1536 47.6549 94.0214 46.9424 93.7922C46.5861 93.6706 46.153 93.5234 45.6601 93.3555C45.1663 93.1824 44.6027 92.9989 44.0165 92.7302C43.4237 92.48 42.7782 92.2038 42.1067 91.9034C41.4216 91.6198 40.7312 91.2555 40.0192 90.8803C39.6577 90.6919 39.2971 90.502 38.9296 90.3102C38.5571 90.1202 38.1873 89.9254 37.8298 89.6955C37.104 89.2546 36.3698 88.8076 35.6327 88.3585C34.9096 87.8992 34.2182 87.3848 33.5183 86.9058C33.1681 86.6633 32.8261 86.4205 32.4934 86.1754C32.1679 85.9177 31.8455 85.6615 31.5285 85.4099C30.8974 84.9084 30.2882 84.4243 29.7298 83.9418C29.1734 83.4491 28.6584 82.9745 28.1851 82.5378C27.9488 82.3189 27.7233 82.109 27.5075 81.9099C27.3023 81.6993 27.1097 81.5013 26.9266 81.3146C26.5674 80.9359 26.2518 80.6058 25.9942 80.334C25.4874 79.7831 25.1957 79.4668 25.1957 79.4668Z" fill="#D0C9BE"/>
<path d="M2.77915 27.9772C2.77915 27.9772 2.71274 28.182 2.58775 28.5642C2.47046 28.9468 2.25009 29.501 2.12096 30.2355C2.04783 30.6038 1.94974 31.0015 1.87371 31.4438C1.82676 31.8909 1.77324 32.3702 1.71742 32.8879C1.64022 33.4013 1.6626 33.9562 1.64632 34.5366C1.63791 35.1172 1.6089 35.7266 1.66866 36.3616C1.71951 36.9984 1.72803 37.6601 1.81301 38.3412C1.90656 39.0213 2.00276 39.7245 2.10348 40.4474C2.21363 41.1677 2.40262 41.8966 2.55185 42.6459C2.64257 43.0203 2.70077 43.4026 2.80724 43.7773C2.91618 44.1546 3.02446 44.5332 3.1338 44.9167C3.36433 45.6771 3.5358 46.4708 3.84072 47.2334C4.11683 48.0046 4.39547 48.7852 4.6775 49.5737C4.97713 50.3525 5.33158 51.119 5.66116 51.9011L6.16204 53.0699C6.34261 53.4543 6.54465 53.8292 6.73448 54.2114C7.1127 54.9714 7.49388 55.733 7.86963 56.4904C8.27051 57.2387 8.71022 57.9613 9.12266 58.6896C9.33141 59.0528 9.54068 59.4151 9.74782 59.7743C9.94783 60.1388 10.1568 60.4946 10.3892 60.8376C10.8355 61.5281 11.2755 62.2086 11.7122 62.8811C12.5515 64.2437 13.493 65.4707 14.3424 66.6709C14.7747 67.2612 15.1735 67.8545 15.6007 68.3985C16.0293 68.94 16.4439 69.4644 16.8431 69.9671C17.2378 70.4707 17.6201 70.9545 17.9815 71.4122C18.3408 71.8735 18.6728 72.3202 19.023 72.7077C19.7053 73.5002 20.2992 74.1902 20.7878 74.7589C21.7561 75.905 22.3108 76.5596 22.3108 76.5596C22.3108 76.5596 21.6992 75.9622 20.6413 74.8954C20.114 74.3591 19.4733 73.7086 18.7363 72.9627C17.9973 72.22 17.2429 71.311 16.3867 70.3436C15.9622 69.857 15.5208 69.3514 15.0624 68.827C14.6061 68.2989 14.1871 67.713 13.7284 67.1338C12.8312 65.9543 11.8313 64.7525 10.9577 63.3872C10.5035 62.7173 10.0434 62.0372 9.57667 61.3477C9.09465 60.6709 8.7044 59.9179 8.2631 59.1913C7.8394 58.4548 7.38847 57.7242 6.97863 56.9707C6.58914 56.2026 6.19803 55.4304 5.80642 54.6591C5.61619 54.2707 5.41831 53.8887 5.23435 53.4963L4.73169 52.3031C4.40269 51.5061 4.04982 50.723 3.74848 49.9265C3.19168 48.3161 2.62916 46.7364 2.25822 45.1493C2.1574 44.7579 2.0552 44.3689 1.95528 43.9829C1.85049 43.5983 1.80336 43.2037 1.72673 42.8187C1.59831 42.0471 1.43178 41.3002 1.34492 40.5602C1.27099 39.8185 1.2009 39.0977 1.1296 38.3997C1.07808 37.7021 1.10005 37.0221 1.08359 36.3742C1.05241 35.7241 1.10457 35.1022 1.15455 34.5117C1.21154 33.9229 1.22514 33.3609 1.3396 32.8451C1.42968 32.3233 1.51747 31.8399 1.59695 31.3916C1.70253 30.9464 1.83193 30.5429 1.93116 30.1777C2.10525 29.4413 2.39008 28.9203 2.53646 28.5425C2.69307 28.1746 2.77915 27.9772 2.77915 27.9772Z" fill="#D0C9BE"/>
<path d="M15.4124 60.1512C15.4124 60.1512 15.7463 60.6429 16.3107 61.5151C16.5877 61.9536 16.9327 62.4811 17.3394 63.0743C17.7487 63.67 18.1936 64.349 18.704 65.0733C19.2094 65.7994 19.7541 66.5886 20.3538 67.4067C20.9396 68.2351 21.5908 69.0813 22.2582 69.9616C22.9159 70.8519 23.6604 71.7161 24.375 72.6252C25.1297 73.5061 25.8705 74.418 26.6784 75.2691C27.4525 76.1579 28.2838 76.9822 29.0929 77.8104C29.5103 78.2056 29.9279 78.6006 30.3378 78.9883C30.5437 79.1837 30.7476 79.3759 30.952 79.5673C31.1626 79.7478 31.3737 79.9275 31.582 80.1051C32.0033 80.4592 32.4047 80.82 32.8207 81.1487C33.2391 81.4732 33.6471 81.7881 34.0469 82.0966C34.4355 82.4174 34.8593 82.6636 35.2465 82.9386C35.6388 83.1978 36.0053 83.4812 36.387 83.6967C36.7652 83.9183 37.1322 84.1317 37.4782 84.3331C37.6497 84.4365 37.8187 84.5372 37.9817 84.6345C38.1521 84.719 38.3173 84.7988 38.4787 84.8781C38.8025 85.0351 39.1039 85.1828 39.3806 85.3179C39.66 85.462 39.9187 85.5799 40.1631 85.6605C41.127 86.0273 41.6817 86.2538 41.6817 86.2538C41.6817 86.2538 41.1066 86.1179 40.097 85.851C39.8403 85.7917 39.5676 85.698 39.2756 85.5825C38.9804 85.4726 38.6621 85.3542 38.3209 85.2273C38.1506 85.1633 37.9737 85.097 37.7931 85.0302C37.6176 84.9476 37.4363 84.8613 37.2542 84.7764C36.8843 84.5956 36.4981 84.4085 36.094 84.2111C35.6881 84.0169 35.2992 83.7585 34.8758 83.5185C34.4627 83.2676 34.0182 83.0297 33.6042 82.7253C33.1804 82.4308 32.7453 82.1282 32.3013 81.8205C31.858 81.5115 31.4432 81.1461 31.0012 80.8004C30.7829 80.6262 30.5624 80.4491 30.3389 80.2702C30.1251 80.0814 29.912 79.8914 29.6952 79.7009C29.2643 79.315 28.8211 78.93 28.3987 78.5227C27.569 77.6887 26.7097 76.8577 25.9163 75.9609C25.106 75.0865 24.3611 74.154 23.6055 73.2538C23.2355 72.7971 22.8889 72.3276 22.5421 71.8723C22.1924 71.4149 21.8492 70.9601 21.5322 70.5013C21.21 70.0447 20.8955 69.5953 20.5868 69.1568C20.2855 68.7123 20.0047 68.2668 19.7247 67.8405C19.1556 66.9902 18.6642 66.157 18.2072 65.3886C17.7389 64.6328 17.3616 63.9056 17.0115 63.2695C16.6602 62.6355 16.3692 62.0765 16.1385 61.6133C15.6691 60.6868 15.4124 60.1512 15.4124 60.1512Z" fill="#D0C9BE"/>
<path d="M6.02725 30.6143C6.02725 30.6143 6.01046 30.6365 5.98457 30.6813C5.96167 30.7279 5.90405 30.7863 5.86895 30.8816C5.79921 31.0645 5.72693 31.3416 5.70772 31.7131C5.64195 32.4483 5.7421 33.5104 5.94027 34.7686C6.04022 35.3962 6.17246 36.0783 6.32125 36.7939C6.46705 37.5078 6.65933 38.2584 6.84167 39.0332C7.23993 40.5799 7.69481 42.2219 8.21705 43.8437C8.4732 44.6563 8.73879 45.4664 9.02013 46.2562C9.30636 47.0443 9.56837 47.8261 9.86438 48.5697C10.4346 50.0602 11.0154 51.4357 11.5474 52.5989C11.8189 53.1777 12.0646 53.7117 12.3027 54.1759C12.535 54.6433 12.746 55.0441 12.9242 55.3773C13.2847 56.0369 13.4933 56.4141 13.4933 56.4141C13.4933 56.4141 13.4255 56.3314 13.2968 56.1747C13.1739 56.0148 12.971 55.7933 12.7496 55.4865C12.2952 54.8862 11.678 53.9947 11.023 52.872C10.6931 52.3113 10.3551 51.6957 10.0219 51.0303C9.68753 50.367 9.34248 49.66 9.02456 48.913C8.70158 48.1677 8.37455 47.3951 8.08401 46.5937C7.78773 45.7953 7.5065 44.9778 7.23679 44.1541C6.98576 43.3257 6.73979 42.4954 6.5259 41.6717C6.29993 40.8482 6.1321 40.0276 5.96046 39.2343C5.64092 37.641 5.4269 36.1341 5.3535 34.8323C5.27538 33.5319 5.32435 32.4323 5.50235 31.6822C5.57595 31.3062 5.71807 31.0256 5.8246 30.848C5.87464 30.7613 5.9425 30.7128 5.97437 30.6715C6.00749 30.6348 6.02725 30.6143 6.02725 30.6143Z" fill="#D0C9BE"/>
<path d="M5.23372 37.2821C3.18797 35.7933 1.88351 33.8765 0.813061 31.6165C-0.230274 29.42 -0.0935856 26.9882 -0.284736 24.6341C-0.304669 24.3994 -0.663801 24.2 -0.790487 24.4816C-3.04377 29.4336 0.77383 35.1635 5.20006 37.3404C5.24013 37.3607 5.2705 37.3081 5.23372 37.2821Z" fill="#D0C9BE"/>
</svg>
