<svg width="108" height="117" viewBox="0 0 108 117" fill="none" xmlns="http://www.w3.org/2000/svg">
<path d="M87.7 26.6768C98.4896 36.0347 95.6535 51.7014 88.8529 62.445C85.7319 67.3744 82.1957 72.036 78.3955 76.4576C66.4359 90.3799 49.1158 103.778 29.7455 97.4924C29.3163 97.3523 29.147 97.9838 29.547 98.147C48.9606 106.131 67.8261 91.2025 79.8315 77.187C90.8841 64.2833 105.998 41.2262 88.4949 27.0879C88.2662 26.9041 88.0307 26.7322 87.7853 26.5706C87.723 26.5266 87.6429 26.6239 87.7 26.6768Z" fill="#D0C9BE"/>
<path d="M15.4045 89.6667C17.7054 86.0972 22.7372 85.8619 25.8682 83.2379C27.7771 81.638 28.2518 78.7317 26.7017 76.8166C26.5662 77.1209 26.4299 77.4248 26.2935 77.7287C29.1806 77.921 31.3439 79.7797 33.923 80.7865C34.3556 80.9566 34.6556 80.3646 34.3707 80.0566C32.326 77.844 29.2028 77.4994 26.4687 76.6701C26.0049 76.5298 25.6329 77.0284 25.8373 77.4454C27.9899 81.8007 22.8026 83.891 19.7273 85.232C17.7065 86.1138 16.0958 87.5472 15.2811 89.6114C15.2506 89.6855 15.365 89.7276 15.4045 89.6667Z" fill="#D0C9BE"/>
<path d="M32.5307 79.2291C32.5047 77.066 32.5165 74.586 34.4961 73.1743C35.2244 72.6543 36.35 72.4952 37.1831 72.1312C38.379 71.6102 39.4271 70.9918 40.486 70.2282C43.8647 67.7951 46.6449 64.0559 49.3173 60.8961C50.6157 59.3622 51.8628 57.7827 53.0934 56.1897C53.6131 55.5173 54.2173 54.2361 55.1837 54.1086C56.0862 53.988 57.0129 53.722 57.8599 53.394C60.9818 52.1836 63.8167 50.3451 65.1894 47.2082C65.3348 46.8736 64.8593 46.6549 64.6242 46.8619C62.9797 48.3435 61.4 49.8784 59.481 51.0142C58.556 51.5602 57.5313 51.9131 56.5089 52.2274C55.7025 52.4713 54.5031 52.3647 53.785 52.7511C52.3955 53.4991 50.9831 56.2505 50.0094 57.4379C48.3686 59.4358 46.6515 61.3696 44.8877 63.2566C43.3444 64.9082 41.7557 66.5216 40.077 68.0273C38.9348 69.0537 37.737 69.9203 36.3695 70.6253C35.4739 71.0846 34.4033 71.2995 33.6053 71.9506C31.1584 73.9454 31.4666 76.4667 32.2598 79.256C32.3015 79.3997 32.5328 79.3898 32.5307 79.2291Z" fill="#D0C9BE"/>
<path d="M67.5515 47.7554C69.6731 45.3576 72.2251 43.312 75.0857 41.8709C77.3515 40.7281 79.7462 40.2735 81.0461 37.9115C82.1121 35.9684 81.918 33.3296 82.5352 31.2389C83.3459 28.4749 85.7144 26.7817 86.6415 24.2164C86.7213 23.9954 86.495 23.773 86.2768 23.8264C82.253 24.8111 80.6942 31.1764 80.2318 34.6556C79.9174 37.0087 79.1224 38.3511 76.8085 39.3425C75.3866 39.9484 74.0997 40.5484 72.8107 41.4143C70.4065 43.0312 68.7581 45.1202 67.4453 47.6701C67.412 47.7346 67.4969 47.8155 67.5515 47.7554Z" fill="#D0C9BE"/>
<path d="M15.5917 87.423C17.1563 86.6326 17.8286 85.4067 18.2756 83.7558C18.5813 82.6251 18.4946 81.3595 18.4488 80.2013C18.4261 79.6262 18.863 73.1154 20.6192 74.5279C23.6415 76.9503 28.345 73.0343 30.4539 71.1991C34.1544 67.9793 36.9964 63.8175 39.9267 59.9259C43.3205 55.4172 46.9111 51.7115 51.5989 48.5556C51.834 48.3964 51.7196 47.9319 51.4084 48.0471C42.618 51.3252 37.7239 61.2605 31.4806 67.6551C29.7164 69.4621 27.7422 71.0722 25.5475 72.3278C24.1244 73.1402 22.4998 73.6728 21.0482 72.6195C20.5727 72.2732 19.9019 72.7069 19.4795 72.8855C18.1466 73.447 17.244 75.3769 17.0764 76.7109C16.6449 80.1601 19.0002 84.8118 15.5263 87.3015C15.4564 87.3529 15.5107 87.4639 15.5917 87.423Z" fill="#D0C9BE"/>
<path d="M12.8444 88.7631C3.56967 70.1651 18.0959 51.5792 30.8469 39.2217C38.0332 32.2597 46.0371 25.8653 55.3686 22.0628C59.7839 20.264 64.5303 19.2501 69.2822 18.9847C73.8679 18.727 78.2464 19.6647 82.6733 20.7221C82.8897 20.7753 83.0585 20.4623 82.8393 20.3517C74.868 16.2914 64.6194 17.54 56.4298 20.2683C46.1411 23.6896 37.4393 30.6295 29.7978 38.1218C16.8397 50.8261 2.38318 70.1735 12.7239 88.829C12.7669 88.9056 12.8833 88.8413 12.8444 88.7631Z" fill="#D0C9BE"/>
<path d="M15.4974 90.3025C21.9129 96.2582 30.2927 99.7891 39.0646 100.127C47.2719 100.442 56.7383 96.9124 62.6517 91.2121C63.0915 90.7885 62.5639 90.1769 62.053 90.3921C54.7628 93.4244 47.4753 96.9764 39.5628 98.0354C31.1954 99.1506 22.0404 95.2478 15.5412 90.2481C15.5091 90.2256 15.4697 90.2746 15.4974 90.3025Z" fill="#D0C9BE"/>
<path d="M34.1445 90.3837C37.5012 95.9524 45.3135 96.0471 51.0033 95.3866C55.0334 94.9157 58.9544 93.5568 62.6493 91.92C66.1773 90.3582 69.8174 88.3469 71.9196 85.0094C72.1653 84.6252 71.7165 84.1947 71.3308 84.3864C68.3717 85.8463 65.6411 87.7251 62.6866 89.2115C59.415 90.8537 55.9443 91.9505 52.3887 92.787C46.4259 94.1826 39.1065 94.7112 34.1995 90.3438C34.173 90.3205 34.125 90.3485 34.1445 90.3837Z" fill="#D0C9BE"/>
<path d="M49.4751 84.8348C53.9598 86.9379 59.5336 86.8441 64.268 85.7676C69.2283 84.6381 76.0122 82.262 78.5457 77.4319C78.7137 77.1065 78.3446 76.8415 78.0693 77.0492C73.8606 80.2386 69.7661 82.685 64.5976 84.0648C59.8015 85.3449 54.3395 86.3839 49.5036 84.7716C49.4673 84.7586 49.4405 84.8188 49.4751 84.8348Z" fill="#D0C9BE"/>
<path d="M64.9999 80.1454C68.561 80.687 72.1267 80.3784 75.4131 78.8484C78.2097 77.5458 81.7142 75.2171 82.4415 72.0383C82.4917 71.8202 82.2676 71.5872 82.0478 71.7193C79.5929 73.2033 77.8406 75.5274 75.3211 77.0059C72.1908 78.8452 68.628 79.9565 64.9993 80.0774C64.9544 80.0793 64.9554 80.1396 64.9999 80.1454Z" fill="#D0C9BE"/>
<path d="M74.1155 71.6663C78.2341 72.1671 82.2625 71.1054 85.4846 68.4583C88.1438 66.2753 91.3822 63.2271 91.6142 59.5671C91.6298 59.333 91.284 59.221 91.1692 59.4337C87.8768 65.5712 81.3416 71.5063 74.1221 71.5307C74.0309 71.5298 74.0295 71.6565 74.1155 71.6663Z" fill="#D0C9BE"/>
<path d="M80.3813 63.727C86.6665 62.9878 93.4754 58.2629 94.4999 51.7047C94.5616 51.3218 93.9792 51.1848 93.8044 51.4944C90.7765 56.8839 86.6292 62.0377 80.3684 63.6597C80.3212 63.6723 80.3394 63.7306 80.3813 63.727Z" fill="#D0C9BE"/>
<path d="M92.0309 44.5357C92.3587 48.8896 89.9164 53.5133 87.9272 57.2071C84.5175 63.5478 80.0092 69.3062 75.0271 74.4841C69.1758 80.5669 62.3409 85.8269 54.8932 89.8084C46.5125 94.2875 37.5686 96.2495 28.1783 96.9972C27.7024 97.0373 27.6578 97.713 28.1513 97.7508C46.4068 99.0886 63.8775 88.2046 75.7912 75.2799C80.8294 69.8116 85.2195 63.6503 88.5523 56.9941C90.388 53.3313 92.5416 48.7522 92.0977 44.5305C92.094 44.4885 92.0285 44.4985 92.0309 44.5357Z" fill="#D0C9BE"/>
<path d="M65.4429 77.7351C65.4429 77.7351 64.9619 78.1747 64.1002 78.9286C63.6756 79.3052 63.1359 79.7428 62.5211 80.2487C61.9087 80.7639 61.2 81.3152 60.4148 81.9021C59.6424 82.5082 58.7638 83.1049 57.8435 83.7533C56.905 84.3711 55.9271 85.05 54.8691 85.6746C54.3446 85.9894 53.8072 86.3128 53.265 86.6375C52.7131 86.9445 52.1518 87.2541 51.5888 87.5667C51.027 87.884 50.4409 88.1674 49.8557 88.4631C49.2739 88.7529 48.6925 89.0628 48.0919 89.3299C47.4944 89.5986 46.8968 89.8674 46.3023 90.1378C45.6984 90.383 45.0929 90.6312 44.4955 90.8721C43.9019 91.1272 43.2998 91.3415 42.6983 91.5482C42.1015 91.7536 41.5157 91.9813 40.9297 92.1611C39.756 92.5236 38.6195 92.8837 37.5215 93.1425C36.9768 93.2784 36.4471 93.4228 35.9298 93.5387C35.4118 93.6421 34.9109 93.7435 34.4289 93.8398C33.4681 94.0543 32.5725 94.1629 31.7834 94.2733C31.3889 94.3284 31.0192 94.382 30.6808 94.4297C30.3357 94.4616 30.0209 94.4911 29.7363 94.5181C28.5964 94.6211 27.9468 94.6646 27.9468 94.6646C27.9468 94.6646 28.5857 94.5313 29.7064 94.3215C29.9864 94.2679 30.2962 94.2117 30.6346 94.148C30.9667 94.0727 31.3305 93.9878 31.7179 93.8966C32.488 93.7156 33.3574 93.5281 34.2949 93.2643C34.7663 93.1379 35.2567 93.0066 35.7611 92.8714C36.2635 92.7191 36.7801 92.563 37.3155 92.4018C38.3854 92.0949 39.4861 91.6863 40.6364 91.3023C41.2109 91.1079 41.7805 90.8669 42.3641 90.6499C42.9482 90.4252 43.5382 90.2039 44.1254 89.953C44.7109 89.7052 45.304 89.4579 45.8972 89.2105C46.484 88.9396 47.0708 88.6686 47.6577 88.3977C48.253 88.1396 48.8276 87.8417 49.4059 87.5578C49.983 87.2693 50.5652 86.9996 51.1235 86.6883C51.6856 86.3912 52.246 86.097 52.797 85.8053C53.3412 85.4978 53.8806 85.1915 54.4102 84.8955C54.9411 84.6042 55.4485 84.2914 55.952 83.9923C56.4572 83.6901 56.9521 83.406 57.4243 83.1127C58.3607 82.5055 59.271 81.971 60.0787 81.4211C60.8889 80.8806 61.6415 80.3985 62.2904 79.9442C62.9436 79.4963 63.5202 79.1118 63.9768 78.7697C64.9057 78.1064 65.4429 77.7351 65.4429 77.7351Z" fill="#D0C9BE"/>
<path d="M84.7235 53.0028C84.7235 53.0028 84.7277 53.1128 84.7294 53.317C84.734 53.523 84.7532 53.821 84.6792 54.2047C84.6445 54.3959 84.6311 54.6193 84.5744 54.8416C84.5143 55.07 84.4503 55.312 84.3837 55.5724C84.3213 55.8393 84.2097 56.1016 84.1168 56.3868C84.0162 56.6714 83.9129 56.9745 83.7712 57.2752C83.6401 57.5782 83.5051 57.8948 83.3603 58.2216C83.2005 58.5398 83.0325 58.8653 82.8606 59.2045C82.5155 59.878 82.1139 60.5667 81.6806 61.269C81.234 61.9597 80.7821 62.6872 80.2675 63.3784C79.7763 64.0911 79.2248 64.777 78.6943 65.475C78.1386 66.1545 77.5727 66.8241 77.0034 67.4719C76.4222 68.1127 75.8569 68.7467 75.2716 69.3255C74.6954 69.9094 74.1389 70.4729 73.5797 70.979C73.0235 71.4868 72.5114 71.9803 72.0027 72.392C71.5008 72.8195 71.0372 73.2015 70.6243 73.537C70.2084 73.8708 69.8288 74.1418 69.5242 74.3724C68.9096 74.8226 68.554 75.0796 68.554 75.0796C68.554 75.0796 68.8589 74.7654 69.3914 74.216C69.661 73.9492 69.9869 73.6193 70.3589 73.2443C70.7254 72.858 71.1378 72.4266 71.5954 71.9655C72.0559 71.506 72.5164 70.9708 73.0342 70.4329C73.5533 69.8996 74.0594 69.2991 74.61 68.7044C75.1679 68.1178 75.6811 67.4497 76.2507 66.8221C76.8028 66.1764 77.3504 65.5042 77.8902 64.8315C78.4211 64.1536 78.9728 63.4878 79.4644 62.7952C79.9769 62.1146 80.4627 61.4387 80.9216 60.7751C81.1624 60.4478 81.3578 60.1023 81.581 59.7848C81.7969 59.4591 82.0107 59.1441 82.1953 58.8243C82.386 58.5079 82.5744 58.2023 82.7547 57.9038C82.923 57.5985 83.0844 57.3051 83.2406 57.0207C83.4058 56.7415 83.5278 56.4612 83.6596 56.1985C83.7823 55.9306 83.9268 55.6872 84.0127 55.4419C84.2088 54.9573 84.3887 54.5352 84.4785 54.1725C84.6004 53.8165 84.6463 53.5162 84.6754 53.3138C84.7076 53.1132 84.7235 53.0028 84.7235 53.0028Z" fill="#D0C9BE"/>
<path d="M85.8369 55.6303C90.7069 54.947 96.1405 50.6713 95.5305 45.2738C95.4946 44.9701 95.0932 45.0372 95.0028 45.256C94.1975 47.1823 93.5861 49.1248 92.3678 50.8485C90.7966 53.0658 88.3829 54.741 85.8239 55.5631C85.7797 55.5774 85.7932 55.637 85.8369 55.6303Z" fill="#D0C9BE"/>
<path d="M30.7323 51.6727C30.7065 46.5726 33.2378 41.9404 35.766 37.6692C38.5198 33.0181 42.3145 29.7969 46.391 26.4036C46.6254 26.2082 46.3974 25.8016 46.1101 25.8788C40.945 27.2886 37.093 32.5371 34.4218 36.8533C31.7865 41.1105 30.044 46.6364 30.6655 51.6779C30.6712 51.7171 30.7344 51.7097 30.7323 51.6727Z" fill="#D0C9BE"/>
<path d="M40.7978 42.8938C41.0892 38.3315 43.413 34.5081 45.9399 30.83C48.412 27.2357 51.9306 25.0269 54.7795 21.8534C54.966 21.6463 54.803 21.3489 54.5304 21.3868C50.4459 21.9499 47.1915 26.3 44.9258 29.3837C42.1212 33.2004 40.3753 38.1226 40.7299 42.8905C40.7336 42.9325 40.7952 42.9361 40.7978 42.8938Z" fill="#D0C9BE"/>
<path d="M51.3622 35.7025C52.7357 27.664 59.2054 21.1092 66.9113 18.7154C67.1713 18.6344 67.1421 18.2668 66.8664 18.2431C62.6377 17.8501 58.5648 21.2455 55.6795 23.9595C52.8163 26.6504 51.4439 31.8998 51.2272 35.6803C51.2231 35.7577 51.3493 35.7787 51.3622 35.7025Z" fill="#D0C9BE"/>
<path d="M59.6651 32.0071C62.7339 25.88 69.2297 21.1057 75.6787 19.1619C76.0804 19.0392 76.0467 18.4418 75.6058 18.4184C68.4432 18.0213 61.8068 25.811 59.6047 31.9762C59.5917 32.0126 59.6473 32.0406 59.6651 32.0071Z" fill="#D0C9BE"/>
<path d="M27.602 46.1951C27.602 46.1951 27.3407 46.5344 26.884 47.1316C26.6515 47.4238 26.3681 47.7822 26.0428 48.1922C25.7103 48.5901 25.3563 49.0632 24.975 49.5724C24.5899 50.0833 24.1739 50.6362 23.7236 51.2092C23.2852 51.793 22.8559 52.4338 22.3815 53.0726C22.1483 53.3923 21.909 53.7204 21.668 54.0515C21.4394 54.3938 21.209 54.739 20.9786 55.0842C20.5167 55.782 20.018 56.4705 19.574 57.1905C19.1229 57.9105 18.6714 58.6302 18.2287 59.335C17.7805 60.0408 17.3893 60.7674 16.9852 61.4507C16.5926 62.1446 16.1797 62.7949 15.8524 63.4509C15.5152 64.0971 15.1829 64.7023 14.8753 65.262C14.5588 65.8205 14.3093 66.35 14.0756 66.8169C13.8412 67.2794 13.6344 67.6859 13.4657 68.0189C13.1169 68.6824 12.9152 69.0641 12.9152 69.0641C12.9152 69.0641 13.0474 68.6543 13.2767 67.9418C13.3983 67.5855 13.5455 67.1524 13.7133 66.6595C13.8864 66.1656 14.07 65.6021 14.3386 65.0159C14.5888 64.4231 14.8651 63.7775 15.1655 63.1061C15.4491 62.4209 15.8134 61.7306 16.1886 61.0186C16.3769 60.6571 16.5668 60.2965 16.7587 59.929C16.9486 59.5565 17.1434 59.1867 17.3733 58.8292C17.8143 58.1034 18.2613 57.3692 18.7103 56.6321C19.1697 55.909 19.6841 55.2176 20.1631 54.5177C20.4055 54.1675 20.6484 53.8255 20.8935 53.4928C21.1511 53.1673 21.4074 52.8449 21.659 52.5279C22.1604 51.8968 22.6445 51.2875 23.1271 50.7292C23.6197 50.1728 24.0944 49.6578 24.531 49.1845C24.7499 48.9482 24.9598 48.7227 25.159 48.5069C25.3695 48.3017 25.5676 48.1091 25.7542 47.9259C26.133 47.5668 26.463 47.2512 26.7349 46.9936C27.2858 46.4867 27.602 46.1951 27.602 46.1951Z" fill="#D0C9BE"/>
<path d="M79.0911 23.7784C79.0911 23.7784 78.8863 23.712 78.5041 23.587C78.1215 23.4697 77.5673 23.2494 76.8328 23.1202C76.4645 23.0471 76.0668 22.949 75.6245 22.873C75.1774 22.826 74.6981 22.7725 74.1804 22.7167C73.667 22.6395 73.1121 22.6619 72.5317 22.6456C71.9511 22.6372 71.3417 22.6082 70.7067 22.6679C70.0699 22.7188 69.4082 22.7273 68.7271 22.8123C68.047 22.9058 67.3438 23.002 66.6209 23.1027C65.9006 23.2129 65.1717 23.4019 64.4224 23.5511C64.048 23.6418 63.6657 23.7 63.291 23.8065C62.9137 23.9155 62.5351 24.0237 62.1516 24.1331C61.3912 24.3636 60.5975 24.5351 59.8349 24.84C59.0637 25.1161 58.2831 25.3947 57.4946 25.6768C56.7158 25.9764 55.9492 26.3309 55.1671 26.6604L53.9984 27.1613C53.614 27.3419 53.2391 27.5439 52.8569 27.7337C52.0969 28.112 51.3353 28.4932 50.5779 28.8689C49.8296 29.2698 49.107 29.7095 48.3787 30.1219C48.0155 30.3307 47.6532 30.54 47.294 30.7471C46.9295 30.9471 46.5737 31.1561 46.2307 31.3885C45.5402 31.8347 44.8597 32.2748 44.1872 32.7115C42.8246 33.5508 41.5976 34.4923 40.3974 35.3417C39.807 35.774 39.2138 36.1727 38.6698 36.5999C38.1283 37.0285 37.6039 37.4432 37.1012 37.8424C36.5976 38.2371 36.1138 38.6193 35.6561 38.9808C35.1948 39.3401 34.7481 39.6721 34.3606 40.0222C33.5681 40.7045 32.8781 41.2984 32.3094 41.7871C31.1633 42.7554 30.5087 43.3101 30.5087 43.3101C30.5087 43.3101 31.1061 42.6985 32.1729 41.6405C32.7092 41.1133 33.3597 40.4726 34.1056 39.7355C34.8483 38.9966 35.7573 38.2422 36.7247 37.3859C37.2113 36.9615 37.7169 36.52 38.2413 36.0616C38.7694 35.6053 39.3553 35.1863 39.9345 34.7277C41.114 33.8305 42.3158 32.8306 43.6811 31.9569C44.351 31.5028 45.0311 31.0427 45.7206 30.5759C46.3974 30.0939 47.1504 29.7037 47.877 29.2624C48.6135 28.8387 49.3441 28.3877 50.0976 27.9779C50.8657 27.5884 51.6379 27.1973 52.4092 26.8057C52.7976 26.6155 53.1796 26.4176 53.572 26.2336L54.7652 25.731C55.5622 25.402 56.3453 25.0491 57.1418 24.7477C58.7522 24.1909 60.3319 23.6284 61.919 23.2575C62.3104 23.1567 62.6994 23.0545 63.0854 22.9546C63.47 22.8498 63.8646 22.8026 64.2496 22.726C65.0212 22.5976 65.7681 22.431 66.5081 22.3442C67.2498 22.2703 67.9706 22.2002 68.6686 22.1289C69.3662 22.0774 70.0462 22.0993 70.6941 22.0829C71.3442 22.0517 71.9661 22.1038 72.5566 22.1538C73.1454 22.2108 73.7074 22.2244 74.2232 22.3389C74.745 22.429 75.2284 22.5167 75.6767 22.5962C76.1219 22.7018 76.5254 22.8312 76.8906 22.9304C77.627 23.1045 78.148 23.3893 78.5258 23.5357C78.8937 23.6923 79.0911 23.7784 79.0911 23.7784Z" fill="#D0C9BE"/>
<path d="M46.9174 36.4124C46.9174 36.4124 46.4257 36.7462 45.5534 37.3107C45.115 37.5876 44.5874 37.9326 43.9943 38.3394C43.3985 38.7486 42.7196 39.1936 41.9953 39.704C41.2691 40.2093 40.48 40.754 39.6619 41.3537C38.8335 41.9395 37.9872 42.5907 37.1069 43.2582C36.2167 43.9159 35.3525 44.6604 34.4433 45.3749C33.5624 46.1297 32.6505 46.8705 31.7995 47.6784C30.9106 48.4524 30.0863 49.2837 29.2581 50.0928C28.8629 50.5102 28.4679 50.9279 28.0803 51.3377C27.8848 51.5437 27.6926 51.7475 27.5013 51.9519C27.3207 52.1625 27.1411 52.3736 26.9634 52.5819C26.6094 53.0032 26.2485 53.4046 25.9198 53.8206C25.5954 54.239 25.2805 54.6471 24.972 55.0468C24.6511 55.4355 24.4049 55.8592 24.1299 56.2464C23.8707 56.6388 23.5874 57.0053 23.3718 57.387C23.1503 57.7652 22.9368 58.1321 22.7354 58.4781C22.6321 58.6496 22.5313 58.8186 22.434 58.9816C22.3496 59.1521 22.2697 59.3172 22.1905 59.4787C22.0334 59.8025 21.8857 60.1038 21.7507 60.3805C21.6065 60.6599 21.4886 60.9187 21.4081 61.1631C21.0413 62.127 20.8147 62.6816 20.8147 62.6816C20.8147 62.6816 20.9506 62.1065 21.2175 61.0969C21.2768 60.8402 21.3705 60.5675 21.4861 60.2756C21.596 59.9803 21.7143 59.6621 21.8412 59.3209C21.9052 59.1506 21.9715 58.9737 22.0383 58.793C22.1209 58.6175 22.2073 58.4363 22.2921 58.2541C22.473 57.8843 22.66 57.4981 22.8575 57.094C23.0516 56.688 23.31 56.2991 23.55 55.8758C23.8009 55.4627 24.0388 55.0182 24.3432 54.6041C24.6377 54.1803 24.9403 53.7453 25.2481 53.3012C25.557 52.8579 25.9224 52.4432 26.2681 52.0011C26.4423 51.7829 26.6195 51.5624 26.7983 51.3388C26.9871 51.125 27.1772 50.9119 27.3677 50.6951C27.7535 50.2643 28.1385 49.821 28.5458 49.3986C29.3799 48.569 30.2108 47.7096 31.1077 46.9162C31.982 46.1059 32.9146 45.3611 33.8147 44.6055C34.2714 44.2355 34.741 43.8889 35.1963 43.542C35.6536 43.1923 36.1084 42.8491 36.5672 42.5321C37.0239 42.2099 37.4732 41.8955 37.9117 41.5867C38.3563 41.2854 38.8018 41.0046 39.228 40.7247C40.0783 40.1555 40.9115 39.6642 41.68 39.2071C42.4357 38.7388 43.1629 38.3615 43.799 38.0114C44.4331 37.6601 44.992 37.3691 45.4552 37.1384C46.3818 36.6691 46.9174 36.4124 46.9174 36.4124Z" fill="#D0C9BE"/>
<path d="M76.4545 27.0266C76.4545 27.0266 76.4323 27.0098 76.3875 26.9839C76.3409 26.961 76.2825 26.9034 76.1872 26.8683C76.0043 26.7985 75.7272 26.7263 75.3557 26.7071C74.6205 26.6413 73.5584 26.7414 72.3002 26.9396C71.6726 27.0396 70.9905 27.1718 70.2749 27.3206C69.561 27.4664 68.8104 27.6587 68.0356 27.841C66.4889 28.2393 64.8469 28.6941 63.2251 29.2164C62.4124 29.4725 61.6023 29.7381 60.8126 30.0195C60.0245 30.3057 59.2427 30.5677 58.4991 30.8637C57.0086 31.4339 55.6331 32.0147 54.4699 32.5467C53.8911 32.8183 53.3571 33.0639 52.8928 33.302C52.4255 33.5344 52.0247 33.7453 51.6915 33.9236C51.0318 34.284 50.6547 34.4927 50.6547 34.4927C50.6547 34.4927 50.7373 34.4248 50.8941 34.2961C51.054 34.1732 51.2755 33.9703 51.5823 33.7489C52.1826 33.2945 53.0741 32.6774 54.1968 32.0223C54.7575 31.6925 55.3731 31.3544 56.0385 31.0212C56.7018 30.6869 57.4088 30.3418 58.1558 30.0239C58.901 29.7009 59.6737 29.3739 60.4751 29.0833C61.2735 28.7871 62.091 28.5058 62.9147 28.2361C63.7431 27.9851 64.5733 27.7391 65.3971 27.5252C66.2206 27.2993 67.0412 27.1314 67.8345 26.9598C69.4278 26.6402 70.9347 26.4262 72.2364 26.3528C73.5369 26.2747 74.6365 26.3237 75.3866 26.5017C75.7625 26.5753 76.0431 26.7174 76.2208 26.8239C76.3074 26.874 76.356 26.9418 76.3973 26.9737C76.434 27.0068 76.4545 27.0266 76.4545 27.0266Z" fill="#D0C9BE"/>
<path d="M69.7862 26.2338C71.275 24.188 73.1918 22.8836 75.4517 21.8131C77.6482 20.7698 80.0801 20.9065 82.4342 20.7153C82.6688 20.6954 82.8682 20.3363 82.5867 20.2096C77.6347 17.9563 71.9048 21.7739 69.7279 26.2001C69.7075 26.2402 69.7602 26.2706 69.7862 26.2338Z" fill="#D0C9BE"/>
</svg>
