<svg width="171" height="187" viewBox="0 0 171 187" fill="none" xmlns="http://www.w3.org/2000/svg">
<g style="mix-blend-mode:overlay" opacity="0.49">
<path d="M139.877 42.5481C157.085 57.4733 152.562 82.461 141.715 99.5964C136.738 107.458 131.098 114.893 125.036 121.946C105.962 144.151 78.3371 165.52 47.4426 155.495C46.758 155.271 46.4879 156.279 47.1259 156.539C78.0896 169.274 108.179 145.463 127.327 123.109C144.955 102.528 169.06 65.7536 141.144 43.2038C140.78 42.9106 140.404 42.6365 140.013 42.3787C139.913 42.3086 139.786 42.4637 139.877 42.5481" fill="white"/>
<path d="M24.5696 143.014C28.2393 137.321 36.2647 136.946 41.2585 132.76C44.3031 130.209 45.0603 125.573 42.588 122.519C42.3719 123.004 42.1544 123.489 41.9369 123.974C46.5417 124.28 49.992 127.245 54.1055 128.851C54.7956 129.122 55.2739 128.178 54.8195 127.687C51.5584 124.157 46.5771 123.608 42.2163 122.285C41.4765 122.061 40.8832 122.857 41.2093 123.522C44.6426 130.468 36.3691 133.802 31.4641 135.941C28.2412 137.347 25.6722 139.633 24.3727 142.926C24.3242 143.044 24.5066 143.111 24.5696 143.014" fill="white"/>
<path d="M51.8849 126.367C51.8434 122.917 51.8623 118.961 55.0196 116.71C56.1811 115.88 57.9765 115.627 59.3051 115.046C61.2126 114.215 62.8842 113.229 64.5732 112.011C69.962 108.13 74.3962 102.166 78.6585 97.1268C80.7295 94.6803 82.7185 92.161 84.6812 89.6203C85.5101 88.5479 86.4738 86.5045 88.015 86.301C89.4545 86.1088 90.9326 85.6845 92.2835 85.1614C97.2628 83.2308 101.784 80.2986 103.974 75.2953C104.205 74.7617 103.447 74.4128 103.072 74.743C100.449 77.106 97.9298 79.5542 94.869 81.3657C93.3937 82.2365 91.7593 82.7993 90.1287 83.3007C88.8426 83.6897 86.9297 83.5196 85.7843 84.136C83.5681 85.329 81.3154 89.7174 79.7624 91.6112C77.1454 94.7976 74.4067 97.882 71.5936 100.892C69.1321 103.526 66.5982 106.099 63.9207 108.501C62.0991 110.138 60.1886 111.52 58.0076 112.644C56.5791 113.377 54.8716 113.72 53.5988 114.758C49.6961 117.94 50.1877 121.961 51.4527 126.41C51.5194 126.639 51.8883 126.623 51.8849 126.367" fill="white"/>
<path d="M107.741 76.168C111.125 72.3437 115.195 69.0811 119.758 66.7826C123.372 64.96 127.191 64.2348 129.264 60.4675C130.964 57.3684 130.655 53.1597 131.639 49.8253C132.932 45.4168 136.71 42.7162 138.189 38.6246C138.316 38.2722 137.955 37.9176 137.607 38.0027C131.189 39.5732 128.703 49.7255 127.965 55.2746C127.464 59.0277 126.196 61.1688 122.505 62.75C120.238 63.7163 118.185 64.6733 116.129 66.0543C112.295 68.6332 109.665 71.9651 107.572 76.032C107.519 76.1349 107.654 76.2639 107.741 76.168" fill="white"/>
<path d="M24.868 139.436C27.3636 138.175 28.4359 136.22 29.1488 133.587C29.6364 131.784 29.498 129.765 29.4249 127.918C29.3887 127.001 30.0856 116.616 32.8866 118.869C37.707 122.733 45.2089 116.487 48.5724 113.56C54.4746 108.424 59.0074 101.787 63.681 95.5797C69.094 88.3885 74.8207 82.4782 82.2975 77.4448C82.6724 77.1908 82.49 76.4499 81.9936 76.6336C67.9734 81.862 60.1676 97.7083 50.2099 107.907C47.3961 110.789 44.2474 113.357 40.747 115.36C38.4772 116.656 35.886 117.505 33.5709 115.825C32.8124 115.273 31.7425 115.965 31.0689 116.249C28.943 117.145 27.5034 120.223 27.2361 122.351C26.5478 127.852 30.3045 135.271 24.7637 139.242C24.6523 139.324 24.7388 139.501 24.868 139.436" fill="white"/>
<path d="M20.4862 141.572C5.69359 111.909 28.862 82.2659 49.1993 62.5565C60.661 51.4524 73.4267 41.2538 88.3099 35.1889C95.3521 32.3199 102.922 30.7029 110.501 30.2796C117.815 29.8685 124.799 31.3642 131.859 33.0507C132.204 33.1355 132.474 32.6362 132.124 32.4599C119.41 25.984 103.064 27.9754 90.0024 32.3268C73.5926 37.7836 59.7137 48.8524 47.526 60.8022C26.8586 81.0648 3.80121 111.923 20.294 141.677C20.3626 141.799 20.5483 141.697 20.4862 141.572" fill="white"/>
<path d="M24.7177 144.028C34.9501 153.527 48.3154 159.159 62.3061 159.697C75.3963 160.2 90.4946 154.57 99.9261 145.479C100.628 144.803 99.786 143.828 98.9713 144.171C87.3437 149.007 75.7207 154.672 63.1007 156.361C49.7552 158.14 35.1534 151.915 24.7875 143.941C24.7364 143.905 24.6735 143.983 24.7177 144.028Z" fill="white"/>
<path d="M54.4587 144.157C59.8125 153.039 72.2727 153.19 81.3475 152.137C87.7752 151.385 94.029 149.218 99.9221 146.607C105.549 144.116 111.355 140.909 114.708 135.585C115.1 134.973 114.384 134.286 113.769 134.592C109.049 136.92 104.694 139.917 99.9817 142.288C94.7637 144.907 89.2281 146.656 83.5571 147.99C74.0469 150.216 62.3729 151.059 54.5464 144.093C54.5042 144.056 54.4275 144.101 54.4587 144.157" fill="white"/>
<path d="M78.9101 135.308C86.0631 138.662 94.953 138.513 102.504 136.796C110.415 134.994 121.235 131.205 125.276 123.501C125.544 122.982 124.955 122.559 124.516 122.891C117.804 127.978 111.273 131.879 103.03 134.08C95.3802 136.122 86.6685 137.779 78.9556 135.207C78.8977 135.187 78.8549 135.283 78.9101 135.308" fill="white"/>
<path d="M103.671 127.827C109.351 128.691 115.038 128.199 120.28 125.759C124.74 123.681 130.33 119.967 131.49 114.897C131.57 114.549 131.212 114.178 130.862 114.388C126.946 116.755 124.152 120.462 120.133 122.82C115.14 125.754 109.458 127.526 103.67 127.719C103.599 127.722 103.6 127.818 103.671 127.827" fill="white"/>
<path d="M118.21 114.304C124.779 115.103 131.204 113.41 136.343 109.188C140.584 105.706 145.75 100.844 146.12 95.0068C146.145 94.6335 145.593 94.4548 145.41 94.794C140.159 104.583 129.735 114.049 118.221 114.088C118.075 114.087 118.073 114.289 118.21 114.304" fill="white"/>
<path d="M128.204 101.641C138.228 100.462 149.088 92.926 150.722 82.4661C150.821 81.8555 149.892 81.6369 149.613 82.1307C144.783 90.7267 138.169 98.9466 128.183 101.534C128.108 101.554 128.137 101.647 128.204 101.641" fill="white"/>
<path d="M146.784 71.0332C147.307 77.9774 143.412 85.352 140.239 91.2433C134.801 101.356 127.61 110.541 119.664 118.799C110.332 128.501 99.4304 136.89 87.5516 143.241C74.185 150.384 59.9199 153.514 44.9429 154.706C44.1839 154.77 44.1128 155.848 44.8998 155.908C74.0163 158.042 101.881 140.682 120.883 120.068C128.918 111.347 135.92 101.52 141.236 90.9036C144.164 85.0617 147.599 77.7582 146.891 71.0248C146.885 70.9579 146.78 70.9738 146.784 71.0332" fill="white"/>
<path d="M104.378 123.984C104.378 123.984 103.611 124.685 102.236 125.888C101.559 126.488 100.698 127.186 99.7178 127.993C98.7412 128.815 97.6107 129.694 96.3584 130.63C95.1264 131.597 93.7252 132.549 92.2574 133.583C90.7604 134.568 89.2009 135.651 87.5134 136.647C86.6768 137.149 85.8196 137.665 84.955 138.183C84.0747 138.673 83.1794 139.166 82.2814 139.665C81.3854 140.171 80.4507 140.623 79.5173 141.095C78.5894 141.557 77.662 142.051 76.7042 142.477C75.7511 142.906 74.7981 143.334 73.8498 143.766C72.8867 144.157 71.9209 144.553 70.968 144.937C70.0213 145.344 69.0611 145.686 68.1016 146.015C67.1497 146.343 66.2155 146.706 65.2808 146.993C63.4088 147.571 61.5962 148.145 59.845 148.558C58.9762 148.775 58.1313 149.005 57.3063 149.19C56.4801 149.355 55.6812 149.517 54.9124 149.67C53.3801 150.012 51.9516 150.185 50.6931 150.362C50.0638 150.45 49.4742 150.535 48.9345 150.611C48.3839 150.662 47.882 150.709 47.428 150.752C45.6099 150.916 44.5739 150.986 44.5739 150.986C44.5739 150.986 45.5929 150.773 47.3802 150.438C47.8268 150.353 48.321 150.263 48.8608 150.162C49.3904 150.042 49.9707 149.906 50.5886 149.761C51.8168 149.472 53.2035 149.173 54.6986 148.752C55.4506 148.551 56.2327 148.341 57.0373 148.126C57.8386 147.883 58.6624 147.634 59.5164 147.377C61.2228 146.887 62.9784 146.235 64.8131 145.623C65.7294 145.313 66.6379 144.929 67.5687 144.582C68.5002 144.224 69.4413 143.871 70.3778 143.471C71.3116 143.076 72.2576 142.681 73.2037 142.287C74.1396 141.855 75.0756 141.422 76.0116 140.99C76.9611 140.579 77.8775 140.103 78.7999 139.651C79.7203 139.191 80.6488 138.76 81.5393 138.264C82.4359 137.79 83.3297 137.321 84.2084 136.856C85.0764 136.365 85.9368 135.877 86.7815 135.405C87.6282 134.94 88.4375 134.441 89.2405 133.964C90.0463 133.482 90.8356 133.029 91.5887 132.561C93.0822 131.593 94.5342 130.74 95.8224 129.863C97.1147 129.001 98.315 128.232 99.3499 127.507C100.392 126.793 101.311 126.18 102.04 125.634C103.521 124.576 104.378 123.984 104.378 123.984" fill="white"/>
<path d="M135.129 84.5373C135.129 84.5373 135.136 84.7128 135.139 85.0385C135.146 85.367 135.177 85.8423 135.059 86.4543C135.003 86.7592 134.982 87.1155 134.892 87.4702C134.796 87.8344 134.694 88.2204 134.587 88.6357C134.488 89.0613 134.31 89.4798 134.162 89.9346C134.001 90.3886 133.837 90.8719 133.61 91.3516C133.401 91.8348 133.186 92.3397 132.955 92.861C132.7 93.3686 132.432 93.8877 132.158 94.4286C131.608 95.5029 130.967 96.6014 130.276 97.7215C129.564 98.8231 128.843 99.9834 128.022 101.086C127.239 102.223 126.359 103.317 125.513 104.43C124.627 105.514 123.724 106.582 122.816 107.615C121.889 108.637 120.988 109.648 120.054 110.571C119.135 111.502 118.248 112.401 117.356 113.208C116.468 114.018 115.652 114.805 114.84 115.462C114.04 116.144 113.301 116.753 112.642 117.288C111.979 117.821 111.373 118.253 110.887 118.621C109.907 119.339 109.34 119.749 109.34 119.749C109.34 119.749 109.826 119.247 110.675 118.371C111.105 117.946 111.625 117.419 112.219 116.821C112.803 116.205 113.461 115.517 114.191 114.782C114.925 114.049 115.66 113.195 116.486 112.337C117.313 111.487 118.121 110.529 118.999 109.58C119.889 108.645 120.707 107.579 121.616 106.578C122.496 105.548 123.37 104.476 124.231 103.403C125.077 102.322 125.957 101.26 126.741 100.156C127.559 99.0702 128.334 97.9921 129.066 96.9337C129.45 96.4117 129.761 95.8606 130.117 95.3542C130.462 94.8348 130.803 94.3324 131.097 93.8223C131.401 93.3177 131.702 92.8302 131.989 92.3542C132.258 91.8672 132.515 91.3993 132.764 90.9457C133.028 90.5003 133.222 90.0532 133.432 89.6343C133.628 89.207 133.859 88.8189 133.996 88.4276C134.308 87.6547 134.595 86.9813 134.739 86.403C134.933 85.8351 135.006 85.3561 135.053 85.0334C135.104 84.7134 135.129 84.5373 135.129 84.5373" fill="white"/>
<path d="M136.905 88.7277C144.672 87.6378 153.339 80.8184 152.366 72.2096C152.309 71.7252 151.668 71.8323 151.524 72.1812C150.24 75.2535 149.265 78.3518 147.321 81.1009C144.816 84.6375 140.966 87.3092 136.884 88.6204C136.814 88.6433 136.835 88.7383 136.905 88.7277" fill="white"/>
<path d="M49.0163 82.4158C48.9753 74.2814 53.0126 66.8934 57.0449 60.081C61.4371 52.6629 67.4893 47.5252 73.9911 42.1131C74.365 41.8014 74.0013 41.153 73.5431 41.2761C65.3051 43.5246 59.1614 51.8957 54.9009 58.7797C50.6978 65.5697 47.9186 74.3832 48.9098 82.4242C48.9189 82.4866 49.0197 82.4749 49.0163 82.4158" fill="white"/>
<path d="M65.0703 68.4139C65.5351 61.1373 69.2414 55.0394 73.2717 49.1729C77.2145 43.4403 82.8265 39.9173 87.3703 34.8558C87.6678 34.5254 87.4077 34.051 86.973 34.1115C80.4586 35.0096 75.2679 41.9478 71.6542 46.8661C67.181 52.9536 64.3965 60.8042 64.962 68.4087C64.9679 68.4756 65.0662 68.4815 65.0703 68.4139" fill="white"/>
<path d="M81.92 56.9439C84.1106 44.123 94.4294 33.6685 106.72 29.8506C107.135 29.7213 107.088 29.135 106.648 29.0973C99.9037 28.4705 93.4076 33.8859 88.8058 38.2146C84.2392 42.5065 82.0502 50.8789 81.7046 56.9086C81.6981 57.032 81.8994 57.0655 81.92 56.9439" fill="white"/>
<path d="M95.1626 51.051C100.057 41.2786 110.418 33.664 120.703 30.5638C121.344 30.3679 121.29 29.4152 120.587 29.3779C109.163 28.7445 98.5785 41.1687 95.0663 51.0018C95.0456 51.0598 95.1342 51.1046 95.1626 51.051Z" fill="white"/>
<path d="M44.0238 73.6798C44.0238 73.6798 43.6071 74.221 42.8786 75.1734C42.5078 75.6395 42.0557 76.2111 41.537 76.8651C41.0067 77.4996 40.442 78.2542 39.8339 79.0663C39.2198 79.8813 38.5562 80.7631 37.8379 81.6769C37.1388 82.6081 36.454 83.6302 35.6974 84.649C35.3254 85.1589 34.9438 85.6822 34.5595 86.2104C34.1947 86.7562 33.8273 87.3068 33.4598 87.8574C32.7232 88.9703 31.9277 90.0684 31.2196 91.2169C30.5001 92.3651 29.7801 93.5131 29.0739 94.6372C28.3592 95.7628 27.7352 96.9217 27.0907 98.0116C26.4644 99.1183 25.8058 100.156 25.2838 101.202C24.746 102.232 24.216 103.198 23.7254 104.09C23.2206 104.981 22.8227 105.826 22.45 106.57C22.0762 107.308 21.7463 107.956 21.4771 108.488C20.9209 109.546 20.5992 110.155 20.5992 110.155C20.5992 110.155 20.8101 109.501 21.1757 108.364C21.3697 107.796 21.6045 107.106 21.8721 106.319C22.1483 105.532 22.441 104.633 22.8695 103.698C23.2686 102.752 23.7092 101.723 24.1883 100.652C24.6406 99.5591 25.2216 98.458 25.82 97.3224C26.1205 96.7458 26.4233 96.1707 26.7293 95.5846C27.0323 94.9904 27.3429 94.4006 27.7096 93.8305C28.4129 92.6729 29.1259 91.5018 29.8421 90.3262C30.5748 89.1729 31.3952 88.0701 32.1591 86.9539C32.5458 86.3953 32.9332 85.8498 33.3241 85.3191C33.7351 84.8 34.1438 84.2859 34.545 83.7802C35.3448 82.7737 36.1169 81.8019 36.8865 80.9115C37.6723 80.0239 38.4294 79.2025 39.1257 78.4477C39.4749 78.0709 39.8097 77.7112 40.1273 77.367C40.4631 77.0396 40.779 76.7325 41.0767 76.4404C41.6808 75.8675 42.2072 75.3642 42.6408 74.9534C43.5194 74.145 44.0238 73.6798 44.0238 73.6798" fill="white"/>
<path d="M126.146 37.9265C126.146 37.9265 125.819 37.8206 125.21 37.6213C124.6 37.4342 123.716 37.0827 122.544 36.8768C121.957 36.7601 121.322 36.6037 120.617 36.4824C119.904 36.4075 119.139 36.3222 118.314 36.2331C117.495 36.11 116.61 36.1457 115.684 36.1197C114.758 36.1063 113.786 36.06 112.773 36.1554C111.758 36.2365 110.702 36.2501 109.616 36.3856C108.531 36.5348 107.41 36.6882 106.257 36.8489C105.108 37.0246 103.945 37.326 102.75 37.564C102.153 37.7087 101.543 37.8015 100.946 37.9713C100.344 38.1451 99.7402 38.3178 99.1284 38.4922C97.9157 38.8599 96.6499 39.1333 95.4334 39.6197C94.2035 40.0601 92.9585 40.5045 91.7008 40.9543C90.4588 41.4322 89.2361 41.9975 87.9887 42.5232L86.1246 43.322C85.5115 43.61 84.9136 43.9323 84.304 44.2351C83.0919 44.8383 81.8771 45.4463 80.6691 46.0456C79.4756 46.6849 78.3232 47.3862 77.1615 48.0441C76.5822 48.377 76.0043 48.7108 75.4316 49.0412C74.8501 49.3602 74.2826 49.6935 73.7356 50.0642C72.6343 50.7759 71.549 51.4778 70.4763 52.1742C68.3031 53.5129 66.346 55.0145 64.4318 56.3692C63.4902 57.0588 62.544 57.6947 61.6764 58.3761C60.8127 59.0597 59.9764 59.721 59.1746 60.3578C58.3713 60.9873 57.5998 61.597 56.8697 62.1734C56.1339 62.7465 55.4214 63.276 54.8034 63.8345C53.5395 64.9227 52.4389 65.87 51.5319 66.6493C49.704 68.1937 48.6599 69.0784 48.6599 69.0784C48.6599 69.0784 49.6127 68.103 51.3141 66.4156C52.1696 65.5747 53.2071 64.5527 54.3968 63.3772C55.5813 62.1987 57.0311 60.9954 58.5741 59.6297C59.3502 58.9527 60.1565 58.2487 60.993 57.5176C61.8353 56.7898 62.7696 56.1215 63.6935 55.39C65.5748 53.959 67.4916 52.3642 69.669 50.9708C70.7375 50.2465 71.8223 49.5126 72.922 48.7682C74.0015 47.9994 75.2024 47.377 76.3614 46.6731C77.5359 45.9973 78.7013 45.2781 79.9031 44.6245C81.1281 44.0032 82.3597 43.3794 83.5899 42.7549C84.2093 42.4514 84.8187 42.1358 85.4445 41.8424L87.3477 41.0407C88.6187 40.516 89.8679 39.9532 91.1382 39.4726C93.7066 38.5845 96.2262 37.6873 98.7575 37.0957C99.3818 36.9349 100.002 36.7719 100.618 36.6125C101.231 36.4454 101.861 36.3702 102.475 36.248C103.705 36.0432 104.897 35.7775 106.077 35.639C107.26 35.5211 108.409 35.4093 109.523 35.2956C110.635 35.2134 111.72 35.2485 112.753 35.2222C113.79 35.1725 114.782 35.2557 115.724 35.3354C116.663 35.4263 117.559 35.448 118.382 35.6305C119.214 35.7742 119.985 35.9142 120.7 36.041C121.41 36.2094 122.054 36.4158 122.636 36.574C123.811 36.8517 124.642 37.306 125.244 37.5395C125.831 37.7892 126.146 37.9265 126.146 37.9265" fill="white"/>
<path d="M74.8308 58.0758C74.8308 58.0758 74.0466 58.6083 72.6554 59.5086C71.9561 59.9502 71.1146 60.5005 70.1686 61.1493C69.2184 61.802 68.1356 62.5117 66.9804 63.3257C65.8222 64.1317 64.5636 65.0005 63.2587 65.957C61.9375 66.8913 60.5877 67.93 59.1837 68.9945C57.7638 70.0435 56.3855 71.2309 54.9355 72.3705C53.5305 73.5743 52.076 74.7559 50.7187 76.0444C49.301 77.279 47.9863 78.6048 46.6653 79.8953C46.035 80.5611 45.4051 81.2272 44.7867 81.8809C44.475 82.2094 44.1684 82.5345 43.8633 82.8605C43.5753 83.1964 43.2887 83.5331 43.0054 83.8653C42.4407 84.5372 41.8652 85.1774 41.341 85.841C40.8234 86.5083 40.3212 87.1591 39.8292 87.7967C39.3175 88.4166 38.9247 89.0924 38.4862 89.71C38.0727 90.3358 37.6208 90.9203 37.277 91.5291C36.9236 92.1323 36.5832 92.7175 36.262 93.2694C36.0972 93.5429 35.9365 93.8125 35.7813 94.0725C35.6466 94.3443 35.5193 94.6077 35.3928 94.8652C35.1423 95.3817 34.9068 95.8623 34.6914 96.3036C34.4614 96.7493 34.2734 97.1619 34.145 97.5518C33.5599 99.0891 33.1986 99.9738 33.1986 99.9738C33.1986 99.9738 33.4154 99.0565 33.841 97.4462C33.9357 97.0368 34.0851 96.6019 34.2694 96.1362C34.4446 95.6653 34.6334 95.1578 34.8358 94.6135C34.9379 94.342 35.0436 94.0597 35.1502 93.7717C35.2819 93.4918 35.4196 93.2026 35.5549 92.9121C35.8434 92.3222 36.1418 91.7063 36.4567 91.0618C36.7663 90.4143 37.1784 89.794 37.5613 89.1188C37.9614 88.46 38.3408 87.751 38.8264 87.0906C39.2961 86.4147 39.7787 85.7208 40.2696 85.0126C40.7623 84.3055 41.3451 83.644 41.8965 82.939C42.1743 82.5909 42.4568 82.2392 42.7421 81.8827C43.0432 81.5417 43.3463 81.2017 43.6502 80.8559C44.2656 80.1688 44.8796 79.4618 45.5292 78.7881C46.8595 77.4649 48.1848 76.0943 49.6152 74.8289C51.0098 73.5364 52.4972 72.3485 53.9329 71.1433C54.6613 70.5532 55.4101 70.0004 56.1364 69.4472C56.8658 68.8894 57.5912 68.3421 58.3229 67.8365C59.0512 67.3226 59.7679 66.821 60.4673 66.3286C61.1764 65.8481 61.8869 65.4002 62.5667 64.9537C63.9229 64.0459 65.2519 63.2622 66.4774 62.5333C67.6829 61.7863 68.8427 61.1846 69.8572 60.6262C70.8685 60.0659 71.76 59.6018 72.4988 59.2338C73.9766 58.4852 74.8308 58.0758 74.8308 58.0758" fill="white"/>
<path d="M121.941 43.1071C121.941 43.1071 121.905 43.0804 121.834 43.0391C121.76 43.0026 121.666 42.9106 121.514 42.8547C121.223 42.7434 120.781 42.6281 120.188 42.5975C119.016 42.4926 117.322 42.6523 115.315 42.9684C114.314 43.1278 113.226 43.3387 112.085 43.5761C110.946 43.8086 109.749 44.1153 108.513 44.4061C106.046 45.0413 103.427 45.7668 100.841 46.5998C99.5445 47.0083 98.2524 47.4319 96.9929 47.8806C95.7358 48.3371 94.4889 48.755 93.3029 49.2271C90.9257 50.1365 88.7318 51.0629 86.8766 51.9114C85.9534 52.3446 85.1017 52.7363 84.3613 53.1161C83.6159 53.4867 82.9767 53.8232 82.4452 54.1075C81.3931 54.6823 80.7916 55.0151 80.7916 55.0151C80.7916 55.0151 80.9234 54.9069 81.1734 54.7017C81.4284 54.5056 81.7817 54.1821 82.271 53.8289C83.2285 53.1041 84.6504 52.1198 86.4409 51.0751C87.3352 50.5489 88.3171 50.0098 89.3784 49.4784C90.4364 48.9451 91.5639 48.3947 92.7554 47.8877C93.944 47.3725 95.1764 46.8509 96.4546 46.3876C97.7279 45.915 99.0318 45.4665 100.346 45.0363C101.667 44.6359 102.991 44.2436 104.305 43.9025C105.618 43.5421 106.927 43.2744 108.192 43.0006C110.734 42.491 113.137 42.1496 115.213 42.0325C117.287 41.908 119.041 41.9861 120.237 42.27C120.837 42.3873 121.285 42.614 121.568 42.7839C121.706 42.8637 121.784 42.972 121.85 43.0228C121.908 43.0756 121.941 43.1071 121.941 43.1071" fill="white"/>
<path d="M111.305 41.8415C113.68 38.5786 116.737 36.4981 120.341 34.7908C123.845 33.1267 127.723 33.3448 131.478 33.0399C131.852 33.0081 132.17 32.4353 131.721 32.2332C123.823 28.6394 114.684 34.7282 111.212 41.7878C111.18 41.8517 111.264 41.9002 111.305 41.8415" fill="white"/>
</g>
</svg>
