<svg width="169" height="135" viewBox="0 0 169 135" fill="none" xmlns="http://www.w3.org/2000/svg">
<g style="mix-blend-mode:overlay" opacity="0.49">
<path d="M150.42 101.029C142.28 122.304 117.253 126.6 97.4408 122.268C88.3505 120.28 79.4349 117.523 70.735 114.239C43.3448 103.909 13.8163 85.2592 12.6701 52.7991C12.6461 52.0794 11.6072 52.1701 11.5808 52.8585C10.2044 86.3104 42.8703 106.441 70.4251 116.789C95.7938 126.315 138.595 136.389 150.237 102.444C150.388 102.001 150.517 101.554 150.625 101.098C150.657 100.981 150.468 100.914 150.42 101.029Z" fill="white"/>
<path d="M16.5752 27.0369C23.1802 28.538 26.2777 35.9511 31.9184 39.2123C35.3576 41.2005 39.9723 40.3267 41.9971 36.9588C41.4671 36.9218 40.9373 36.8831 40.4075 36.8445C41.6942 41.2765 40.0885 45.5327 39.9864 49.9473C39.9675 50.6885 41.0184 50.8151 41.3245 50.2202C43.5254 45.9487 42.3381 41.0798 42.0896 36.5296C42.0468 35.7579 41.0965 35.4724 40.5832 36.0062C35.2298 41.6084 29.2673 34.9741 25.5799 31.0964C23.156 28.5488 20.1291 26.9167 16.5908 26.8216C16.4632 26.8164 16.4624 27.0108 16.5752 27.0369Z" fill="white"/>
<path d="M41.5611 47.0111C44.7888 45.7921 48.5122 44.457 51.7078 46.6538C52.8845 47.4616 53.7371 49.0619 54.7369 50.1119C56.1703 51.6201 57.6688 52.8536 59.3908 54.0242C64.8806 57.7607 72.0013 59.8877 78.1948 62.1693C81.2021 63.2787 84.2497 64.2861 87.3086 65.2615C88.5998 65.6736 90.8495 65.8802 91.5678 67.259C92.2409 68.5459 93.1451 69.7898 94.0987 70.8802C97.6159 74.8989 101.918 78.1448 107.368 78.491C107.949 78.5263 108.017 77.6943 107.579 77.4549C104.461 75.7984 101.299 74.2683 98.5498 72.0116C97.2269 70.9231 96.139 69.5798 95.1101 68.219C94.3048 67.1435 93.8103 65.2877 92.8394 64.4223C90.9603 62.7478 86.0661 62.1318 83.7554 61.3203C79.8661 59.9509 76.031 58.4323 72.2407 56.8182C68.9235 55.406 65.6387 53.9051 62.4663 52.2104C60.305 51.0585 58.3527 49.7361 56.5501 48.0711C55.3732 46.9793 54.4672 45.492 53.0559 44.6512C48.7315 42.072 45.1208 43.9094 41.3729 46.6196C41.1804 46.7607 41.3215 47.1019 41.5611 47.0111Z" fill="white"/>
<path d="M107.836 82.3297C112.587 84.2015 117.045 86.9104 120.766 90.4115C123.714 93.1841 125.702 96.5251 129.951 97.1849C133.445 97.7227 137.294 95.9922 140.764 95.7768C145.349 95.4841 149.179 98.1102 153.529 98.1003C153.904 98.0993 154.114 97.6388 153.915 97.341C150.244 91.8475 139.854 92.9835 134.387 94.1883C130.689 95.0007 128.243 94.5416 125.495 91.6143C123.811 89.8138 122.21 88.2123 120.209 86.7527C116.474 84.0316 112.444 82.7005 107.906 82.124C107.791 82.1093 107.716 82.2806 107.836 82.3297Z" fill="white"/>
<path d="M20.0398 26.0934C22.078 28.0072 24.282 28.3461 27.0001 28.1155C28.8615 27.9569 30.711 27.1365 32.422 26.436C33.2714 26.0883 43.2679 23.1914 42.1089 26.5941C40.127 32.4452 48.5619 37.3584 52.4628 39.518C59.3071 43.3078 67.0949 45.297 74.526 47.5659C83.1348 50.1929 90.6474 53.5528 97.9345 58.8572C98.3013 59.1226 98.9352 58.6977 98.5927 58.2942C88.8845 46.9077 71.3241 44.9925 58.3345 39.1235C54.6638 37.4651 51.1737 35.3846 48.0947 32.7802C46.1009 31.0905 44.4164 28.9461 45.2032 26.1961C45.4628 25.2944 44.4469 24.5256 43.9488 23.99C42.3801 22.2987 38.9953 21.9986 36.9046 22.4752C31.4996 23.7099 25.8127 29.7775 20.1861 25.9291C20.0711 25.8524 19.9343 25.9943 20.0398 26.0934Z" fill="white"/>
<path d="M16.5338 22.7066C39.3482 -1.3392 75.128 10.2933 100.605 22.6631C114.959 29.6357 128.909 38.1435 139.698 50.0548C144.803 55.691 148.911 62.2517 151.901 69.2288C154.789 75.961 155.772 83.0348 156.602 90.2465C156.641 90.5998 157.202 90.682 157.248 90.2933C158.985 76.1313 151.523 61.4523 142.967 50.6664C132.226 37.1125 117.078 27.8563 101.681 20.4907C75.5715 7.99987 38.6883 -3.11287 16.3692 22.5619C16.2778 22.6682 16.4377 22.8076 16.5338 22.7066Z" fill="white"/>
<path d="M15.6733 27.5226C10.2468 40.3868 9.52607 54.8722 13.8048 68.2035C17.8101 80.676 28.2638 92.9384 40.0329 98.6916C40.9077 99.1198 41.5364 97.9953 40.9352 97.3471C32.4137 88.0748 23.1148 79.0904 17.2114 67.8092C10.9756 55.8768 11.8308 40.0266 15.7788 27.5585C15.795 27.4982 15.7001 27.4658 15.6733 27.5226Z" fill="white"/>
<path d="M25.7237 55.5143C19.2088 63.5829 23.3285 75.3434 27.4222 83.5106C30.3264 89.2938 34.5019 94.4292 38.9707 99.074C43.236 103.51 48.2361 107.868 54.385 109.198C55.0948 109.357 55.4952 108.449 54.9974 107.976C51.1952 104.337 46.8899 101.27 43.0503 97.6525C38.8045 93.645 35.2674 89.0416 32.0741 84.1689C26.7298 75.9935 21.9447 65.3119 25.8136 55.5749C25.834 55.5226 25.7658 55.4658 25.7237 55.5143Z" fill="white"/>
<path d="M42.402 75.4646C41.6965 83.3334 44.8775 91.636 49.0736 98.1445C53.4723 104.963 60.7341 113.834 69.3552 114.996C69.9347 115.07 70.1304 114.373 69.6689 114.073C62.5929 109.505 56.6929 104.703 51.8054 97.7095C47.2706 91.2196 42.7338 83.6002 42.5123 75.4729C42.512 75.4113 42.4071 75.404 42.402 75.4646Z" fill="white"/>
<path d="M57.9005 96.1739C59.0314 101.806 61.4391 106.982 65.5248 111.073C69.0027 114.554 74.4045 118.536 79.5655 117.892C79.9198 117.848 80.1468 117.385 79.8288 117.128C76.2655 114.258 71.8265 112.9 68.2361 109.93C63.7719 106.242 60.1627 101.509 58.0022 96.136C57.9748 96.0696 57.8849 96.1041 57.9005 96.1739Z" fill="white"/>
<path d="M75.5805 105.211C77.0766 111.657 80.8654 117.115 86.5904 120.5C91.3128 123.295 97.6478 126.486 103.26 124.837C103.619 124.733 103.598 124.153 103.217 124.097C92.2225 122.511 79.7622 115.954 75.7874 105.147C75.7389 105.01 75.5482 105.077 75.5805 105.211Z" fill="white"/>
<path d="M90.8983 110.271C95.4347 119.287 106.231 126.915 116.618 124.873C117.226 124.756 117.114 123.809 116.554 123.716C106.825 122.118 96.8384 118.713 90.9921 110.215C90.9474 110.151 90.8699 110.21 90.8983 110.271Z" fill="white"/>
<path d="M126.015 117.262C119.668 120.128 111.406 118.99 104.785 118.024C93.4221 116.372 82.3324 112.757 71.8543 108.114C59.5456 102.663 47.9338 95.2884 37.9037 86.298C26.619 76.1808 18.7996 63.8462 12.5564 50.1804C12.2367 49.489 11.1997 49.7908 11.4122 50.551C19.3657 78.6413 45.2085 98.8883 71.0783 109.694C82.0224 114.262 93.6515 117.48 105.446 118.844C111.936 119.598 119.974 120.328 126.059 117.359C126.12 117.331 126.07 117.238 126.015 117.262Z" fill="white"/>
<path d="M61.7538 95.5234C61.7538 95.5234 60.8325 95.0423 59.2326 94.1621C58.4366 93.7311 57.4862 93.1611 56.3927 92.5155C55.2864 91.8788 54.0736 91.1172 52.7657 90.2606C51.4358 89.4336 50.0623 88.4424 48.5886 87.4167C47.1506 86.3471 45.5997 85.2519 44.0865 84.0069C43.3284 83.3925 42.5506 82.7634 41.7683 82.128C41.007 81.4684 40.2368 80.796 39.4612 80.1226C38.6792 79.4537 37.9348 78.73 37.1723 78.0142C36.4205 77.3003 35.6389 76.5979 34.9111 75.8435C34.1823 75.0946 33.4536 74.3456 32.7239 73.602C32.027 72.8308 31.3248 72.0586 30.6378 71.2946C29.9317 70.5441 29.282 69.7587 28.6441 68.9699C28.0107 68.1875 27.3499 67.4337 26.7608 66.6535C25.5772 65.0921 24.4175 63.5852 23.4307 62.0809C22.93 61.3386 22.4245 60.6234 21.9687 59.9114C21.5311 59.1914 21.1059 58.496 20.6986 57.8261C19.853 56.5032 19.2017 55.2201 18.6058 54.0977C18.3079 53.5365 18.026 53.0117 17.7698 52.5305C17.5338 52.0306 17.3179 51.5749 17.1222 51.1631C16.3459 49.5109 15.9265 48.561 15.9265 48.561C15.9265 48.561 16.4748 49.4458 17.4006 51.011C17.6336 51.4014 17.8869 51.8351 18.1669 52.3076C18.4609 52.7642 18.7866 53.2632 19.1346 53.7941C19.8261 54.8495 20.5813 56.0503 21.4881 57.3113C21.9346 57.949 22.399 58.6122 22.8767 59.2946C23.3791 59.9645 23.8948 60.6535 24.4284 61.3681C25.472 62.8042 26.6849 64.231 27.8879 65.7455C28.4926 66.5005 29.1646 67.2227 29.8082 67.979C30.4636 68.7318 31.1171 69.4954 31.8134 70.2386C32.5042 70.9809 33.1984 71.7349 33.8928 72.489C34.619 73.2207 35.3451 73.9525 36.0713 74.6842C36.7829 75.4357 37.5429 76.1343 38.2837 76.8462C39.031 77.5537 39.7527 78.2791 40.5239 78.9461C41.2759 79.6265 42.0225 80.3059 42.7602 80.9726C43.5179 81.6204 44.2712 82.2619 45.0038 82.8942C45.7299 83.5309 46.4756 84.1207 47.1985 84.7121C47.927 85.3045 48.6228 85.8912 49.32 86.4389C50.7407 87.5111 52.0384 88.584 53.3032 89.4945C54.5553 90.414 55.6884 91.279 56.7233 92.0037C57.7508 92.7382 58.6416 93.3927 59.4034 93.8904C60.9042 94.9208 61.7538 95.5234 61.7538 95.5234Z" fill="white"/>
<path d="M109.339 110.929C109.339 110.929 109.177 110.995 108.871 111.109C108.565 111.228 108.129 111.42 107.514 111.518C107.208 111.57 106.866 111.672 106.502 111.708C106.127 111.743 105.729 111.779 105.303 111.821C104.869 111.873 104.415 111.849 103.937 111.865C103.455 111.87 102.944 111.88 102.416 111.832C101.891 111.801 101.343 111.771 100.774 111.732C100.21 111.667 99.6303 111.592 99.0282 111.52C97.8305 111.37 96.5792 111.144 95.2903 110.877C94.0115 110.585 92.6747 110.304 91.358 109.91C90.0218 109.563 88.693 109.11 87.3575 108.696C86.0359 108.234 84.7236 107.751 83.4423 107.251C82.1648 106.73 80.9061 106.228 79.7195 105.667C78.53 105.122 77.3819 104.595 76.3183 104.033C75.2538 103.476 74.235 102.978 73.3404 102.44C72.4258 101.921 71.6005 101.435 70.8724 100.999C70.1453 100.558 69.532 100.137 69.0201 99.8059C68.0101 99.1303 67.431 98.7375 67.431 98.7375C67.431 98.7375 68.0682 99.0232 69.1821 99.5214C69.729 99.78 70.4013 100.089 71.1663 100.441C71.9451 100.78 72.8166 101.163 73.7574 101.597C74.6972 102.037 75.7506 102.435 76.8393 102.917C77.9216 103.405 79.0977 103.836 80.2895 104.336C81.4729 104.852 82.7542 105.257 84.0056 105.768C85.2745 106.244 86.5807 106.698 87.8834 107.14C89.1889 107.566 90.4878 108.029 91.794 108.388C93.0935 108.785 94.3716 109.145 95.6165 109.47C96.2384 109.653 96.8628 109.757 97.4604 109.918C98.0663 110.064 98.655 110.213 99.2351 110.315C99.8132 110.428 100.374 110.544 100.92 110.651C101.469 110.737 101.997 110.819 102.508 110.898C103.017 110.993 103.504 111.023 103.969 111.077C104.438 111.115 104.881 111.199 105.296 111.194C106.129 111.223 106.86 111.263 107.452 111.2C108.053 111.188 108.528 111.093 108.847 111.026C109.165 110.965 109.339 110.929 109.339 110.929Z" fill="white"/>
<path d="M106.009 114.03C109.69 120.957 119.062 126.768 126.819 122.909C127.254 122.69 126.935 122.125 126.557 122.109C123.231 121.953 119.986 122.096 116.738 121.21C112.558 120.065 108.731 117.361 106.103 113.974C106.057 113.916 105.975 113.969 106.009 114.03Z" fill="white"/>
<path d="M81.8804 29.2833C89.5101 26.4627 97.8334 27.7296 105.614 29.1888C114.087 30.7789 120.985 34.709 128.294 38.9677C128.715 39.2123 129.2 38.6489 128.928 38.2604C123.997 31.2883 114.03 28.3781 106.104 26.729C98.2856 25.1017 89.0531 25.5045 81.836 29.1861C81.7804 29.216 81.8259 29.3067 81.8804 29.2833Z" fill="white"/>
<path d="M100.529 39.5802C107.525 37.5283 114.523 38.9255 121.414 40.7062C128.15 42.4506 133.38 46.5192 139.69 49.0578C140.102 49.2244 140.459 48.8178 140.253 48.43C137.181 42.6156 128.886 40.111 123.029 38.3973C115.778 36.276 107.449 36.3444 100.496 39.4768C100.436 39.5052 100.464 39.5995 100.529 39.5802Z" fill="white"/>
<path d="M117.07 51.4908C129.867 49.1643 143.22 55.2851 151.011 65.5286C151.275 65.8741 151.81 65.6297 151.695 65.2036C149.977 58.6515 142.666 54.3994 137.025 51.5555C131.43 48.7322 122.814 49.5388 117.029 51.2763C116.911 51.3125 116.948 51.513 117.07 51.4908Z" fill="white"/>
<path d="M127.136 61.9193C137.994 63.1764 148.692 70.3077 155.124 78.9128C155.527 79.4478 156.404 79.0714 156.198 78.398C152.886 67.4463 137.591 61.7493 127.15 61.8121C127.088 61.8124 127.076 61.911 127.136 61.9193Z" fill="white"/>
<path d="M88.3819 21.604C88.3819 21.604 87.7307 21.3975 86.5866 21.0387C86.0219 20.8497 85.3301 20.6204 84.5381 20.3566C83.7604 20.0753 82.8582 19.8028 81.8871 19.5091C80.9112 19.2107 79.8556 18.8888 78.7513 18.5263C77.6371 18.1879 76.4425 17.894 75.2264 17.5314C74.62 17.3563 73.9977 17.1767 73.37 16.9961C72.7323 16.8401 72.0892 16.6831 71.4462 16.5261C70.1484 16.2145 68.8445 15.8427 67.5231 15.57C66.198 15.2866 64.873 15.0027 63.5751 14.7235C62.273 14.4369 60.9705 14.2469 59.726 14.014C58.4718 13.8041 57.2718 13.54 56.1102 13.4072C54.9578 13.2543 53.8694 13.0865 52.8628 12.9308C51.853 12.7611 50.9234 12.676 50.0962 12.5804C49.2752 12.4815 48.5529 12.3933 47.9618 12.322C46.7772 12.1612 46.0951 12.0672 46.0951 12.0672C46.0951 12.0672 46.7815 12.0418 47.9744 11.9967C48.5747 11.9846 49.304 11.969 50.1344 11.9516C50.969 11.9417 51.9138 11.9093 52.9388 11.9923C53.9638 12.0439 55.082 12.1058 56.2522 12.1897C57.4338 12.241 58.6672 12.4104 59.939 12.5843C60.5835 12.6694 61.2276 12.7573 61.883 12.8444C62.545 12.9259 63.2054 13.0161 63.8666 13.1656C65.1949 13.4306 66.5392 13.7 67.8889 13.971C69.2233 14.265 70.5401 14.6587 71.8503 14.9948C72.5075 15.1672 73.1525 15.3446 73.7849 15.5305C74.4133 15.7391 75.0362 15.9473 75.6486 16.1514C76.868 16.5587 78.0452 16.9519 79.1452 17.3705C80.2479 17.8053 81.2787 18.2358 82.2262 18.6321C82.6997 18.8313 83.1523 19.0228 83.5843 19.2036C84.0068 19.4072 84.4034 19.599 84.7797 19.7788C85.5247 20.1505 86.1777 20.473 86.712 20.74C87.7722 21.2891 88.3819 21.604 88.3819 21.604Z" fill="white"/>
<path d="M150.067 86.5452C150.067 86.5452 150.054 86.2021 150.033 85.5611C150 84.9237 150.028 83.9728 149.821 82.8016C149.73 82.2097 149.66 81.5602 149.533 80.8558C149.359 80.16 149.178 79.4126 148.979 78.6061C148.815 77.7946 148.478 76.9751 148.186 76.0963C147.882 75.2216 147.593 74.2925 147.157 73.3732C146.734 72.4467 146.36 71.4596 145.861 70.4851C145.35 69.5168 144.822 68.5155 144.277 67.487C143.719 66.4674 143.038 65.4781 142.405 64.4365C142.065 63.9249 141.769 63.3836 141.405 62.8801C141.036 62.374 140.668 61.8657 140.294 61.3505C139.534 60.3366 138.844 59.2407 137.971 58.2639C137.137 57.2588 136.293 56.2409 135.44 55.2129C134.567 54.2092 133.617 53.2536 132.697 52.2612L131.308 50.7828C130.828 50.3052 130.321 49.8535 129.828 49.3842C128.846 48.4516 127.859 47.5179 126.883 46.5878C125.874 45.6849 124.821 44.8419 123.806 43.9753C123.295 43.5448 122.783 43.1159 122.277 42.6907C121.778 42.2534 121.271 41.8341 120.736 41.4468C119.69 40.6555 118.659 39.8756 117.638 39.1058C115.637 37.5215 113.556 36.1961 111.629 34.8606C110.659 34.2117 109.737 33.54 108.8 32.9578C107.863 32.3799 106.955 31.8203 106.083 31.2846C105.216 30.7451 104.379 30.2286 103.588 29.7397C102.798 29.2443 102.057 28.7559 101.32 28.3662C99.8656 27.5507 98.599 26.8405 97.5564 26.2547C95.48 25.0652 94.2916 24.3867 94.2916 24.3867C94.2916 24.3867 95.5341 24.9485 97.7016 25.9701C98.7844 26.4864 100.1 27.1117 101.611 27.8277C103.124 28.5376 104.75 29.4885 106.561 30.4714C107.463 30.9691 108.4 31.486 109.373 32.022C110.345 32.5645 111.293 33.214 112.296 33.8319C114.284 35.1104 116.439 36.3661 118.493 37.9357C119.539 38.6919 120.599 39.4603 121.675 40.2391C122.767 40.9906 123.762 41.9062 124.82 42.7545C125.857 43.6271 126.931 44.4762 127.957 45.3819C128.959 46.3206 129.967 47.2646 130.974 48.2069C131.471 48.6853 131.976 49.1499 132.466 49.6376L133.87 51.1519C134.798 52.1668 135.754 53.1481 136.64 54.1774C138.353 56.2872 140.058 58.348 141.48 60.5243C141.845 61.0559 142.21 61.5831 142.57 62.1073C142.937 62.6264 143.223 63.1922 143.548 63.7274C144.161 64.8137 144.818 65.8424 145.352 66.9041C145.868 67.9754 146.366 69.0174 146.853 70.0246C147.311 71.0421 147.649 72.0732 148.027 73.0353C148.429 73.9926 148.69 74.9531 148.937 75.8654C149.173 76.7789 149.459 77.6287 149.569 78.4641C149.718 79.2954 149.85 80.0678 149.976 80.783C150.06 81.5078 150.087 82.1832 150.137 82.7846C150.278 83.9833 150.135 84.9195 150.122 85.5656C150.088 86.2024 150.067 86.5452 150.067 86.5452Z" fill="white"/>
<path d="M113.581 45.2162C113.581 45.2162 112.813 44.6614 111.491 43.662C110.837 43.156 110.032 42.5535 109.099 41.8864C108.16 41.2167 107.123 40.4419 105.963 39.6348C104.81 38.8221 103.563 37.9365 102.218 37.0376C100.888 36.1155 99.4502 35.2024 97.9697 34.2471C96.4983 33.2717 94.9111 32.3825 93.3442 31.4098C91.7325 30.5012 90.1247 29.5386 88.4497 28.7038C86.8046 27.7939 85.1091 27.012 83.4447 26.212C82.6035 25.8474 81.7621 25.4833 80.9364 25.1258C80.521 24.9453 80.1106 24.7684 79.7 24.5931C79.2858 24.4374 78.8714 24.2833 78.4623 24.1306C77.6378 23.8299 76.8393 23.5079 76.0366 23.2423C75.2324 22.9842 74.4492 22.7349 73.6817 22.4906C72.9242 22.2217 72.1548 22.0838 71.4244 21.883C70.695 21.7085 69.9912 21.4838 69.3015 21.3689C68.6138 21.2431 67.9474 21.1234 67.319 21.0104C67.0056 20.949 66.6973 20.8901 66.3999 20.8332C66.0984 20.7996 65.8074 20.7701 65.5221 20.7394C64.9512 20.6806 64.419 20.6237 63.9306 20.5722C63.4332 20.5085 62.9811 20.473 62.5708 20.4856C60.9261 20.4617 59.9712 20.4246 59.9712 20.4246C59.9712 20.4246 60.9073 20.3147 62.5661 20.1639C62.9831 20.1128 63.4429 20.1044 63.9435 20.1184C64.446 20.122 64.9875 20.1258 65.5681 20.1298C65.8583 20.1329 66.1596 20.1357 66.4667 20.1373C66.7748 20.1654 67.0936 20.1959 67.4129 20.2237C68.0659 20.293 68.7467 20.3627 69.46 20.4382C70.1744 20.5077 70.8982 20.6828 71.6636 20.8117C72.4196 20.9623 73.2156 21.0764 74.0022 21.3068C74.798 21.5169 75.6152 21.7331 76.4485 21.9522C77.2815 22.1734 78.1024 22.4948 78.9535 22.7718C79.3757 22.9138 79.8028 23.059 80.2354 23.2051C80.6588 23.3715 81.0819 23.54 81.5107 23.7073C82.3669 24.0505 83.2413 24.3858 84.0966 24.7658C85.7949 25.5633 87.5362 26.3399 89.2145 27.2512C90.906 28.1196 92.531 29.111 94.1545 30.0479C94.9581 30.5306 95.7338 31.0452 96.502 31.5384C97.2756 32.0331 98.0381 32.5276 98.7634 33.0423C99.4954 33.5509 100.212 34.0528 100.914 34.5416C101.608 35.0435 102.272 35.558 102.924 36.0441C104.241 37.008 105.432 37.9888 106.536 38.8912C107.65 39.7684 108.612 40.6525 109.484 41.4149C110.356 42.1735 111.097 42.8525 111.696 43.4209C112.905 44.5535 113.581 45.2162 113.581 45.2162Z" fill="white"/>
<path d="M143.76 84.3655C143.76 84.3655 143.773 84.3231 143.787 84.2418C143.796 84.1595 143.851 84.0406 143.851 83.8786C143.856 83.5664 143.813 83.1116 143.639 82.5444C143.337 81.4067 142.607 79.8694 141.624 78.0918C141.132 77.2057 140.562 76.2555 139.948 75.2642C139.34 74.2738 138.643 73.2536 137.947 72.1919C136.506 70.091 134.929 67.8783 133.261 65.7324C132.434 64.6542 131.594 63.5849 130.742 62.5548C129.883 61.5297 129.064 60.5009 128.214 59.548C126.547 57.6251 124.926 55.8804 123.494 54.4272C122.771 53.7078 122.112 53.0416 121.502 52.4756C120.899 51.902 120.364 51.4164 119.915 51.0141C119.015 50.2221 118.496 49.7708 118.496 49.7708C118.496 49.7708 118.643 49.8575 118.921 50.0223C119.193 50.1948 119.618 50.4162 120.117 50.7552C121.126 51.4071 122.537 52.4066 124.131 53.7318C124.931 54.3922 125.774 55.1305 126.636 55.946C127.499 56.7578 128.402 57.6291 129.286 58.5753C130.176 59.516 131.088 60.4957 131.961 61.5383C132.84 62.5732 133.708 63.6451 134.561 64.7324C135.389 65.8371 136.211 66.9473 136.981 68.0651C137.769 69.1761 138.468 70.3145 139.158 71.4099C140.506 73.6235 141.649 75.7652 142.469 77.6762C143.295 79.5826 143.822 81.2573 143.964 82.4786C144.059 83.0823 143.999 83.5804 143.936 83.9047C143.908 84.0619 143.833 84.1716 143.808 84.251C143.778 84.324 143.76 84.3655 143.76 84.3655Z" fill="white"/>
<path d="M141.312 73.9384C145.19 75.0538 148.191 77.2151 151.028 80.0183C153.79 82.7411 154.911 86.4604 156.482 89.8844C156.64 90.2252 157.287 90.3281 157.323 89.8371C157.999 81.186 149.152 74.6808 141.33 73.8327C141.259 73.8241 141.242 73.9195 141.312 73.9384Z" fill="white"/>
</g>
</svg>
