<svg width="114" height="118" viewBox="0 0 114 118" fill="none" xmlns="http://www.w3.org/2000/svg">
<path d="M38.7866 15.5791C51.2703 8.64075 65.0223 16.6642 72.792 26.7292C76.3566 31.3479 79.5276 36.2652 82.3828 41.3485C91.3751 57.3486 98.0413 78.2065 85.5099 94.2589C85.2313 94.6142 85.7669 94.9894 86.057 94.6693C100.2 79.1573 92.6235 56.3236 83.5594 40.2486C75.2141 25.4492 58.7166 3.36122 39.4447 14.9728C39.1938 15.1247 38.9517 15.2873 38.7159 15.4627C38.6533 15.5062 38.7173 15.6147 38.7866 15.5791Z" fill="#D0C9BE"/>
<path d="M73.2517 105.059C70.6843 101.676 72.1842 96.8671 70.7893 93.0275C69.9387 90.6865 67.3701 89.2464 65.0403 90.048C65.28 90.2794 65.5189 90.5114 65.7578 90.7435C66.9259 88.0963 69.4125 86.6992 71.2406 84.62C71.5484 84.2716 71.0947 83.7873 70.7079 83.9496C67.9294 85.1142 66.5374 87.9312 64.8229 90.2168C64.5325 90.6047 64.8738 91.1248 65.3355 91.0753C70.1645 90.5421 70.3545 96.1315 70.5628 99.48C70.7003 101.68 71.4963 103.684 73.1574 105.156C73.2166 105.21 73.2953 105.117 73.2517 105.059Z" fill="#D0C9BE"/>
<path d="M69.3009 85.3955C67.2594 84.6801 64.933 83.8208 64.2835 81.4778C64.0439 80.6156 64.2794 79.5034 64.2223 78.5961C64.1417 77.2941 63.919 76.0977 63.5637 74.8415C62.4329 70.8343 59.8701 66.943 57.8149 63.3511C56.8176 61.6063 55.7598 59.8942 54.6838 58.1929C54.2297 57.4746 53.2324 56.4687 53.4431 55.517C53.6385 54.6276 53.7055 53.6658 53.6869 52.7577C53.6173 49.4101 52.8593 46.1174 50.381 43.7545C50.1163 43.5035 49.7481 43.8756 49.8623 44.1673C50.692 46.2193 51.5942 48.2287 52.0051 50.4205C52.2018 51.4764 52.1829 52.56 52.1286 53.6283C52.082 54.4694 51.5716 55.56 51.6891 56.367C51.9168 57.9285 54.0192 60.1968 54.802 61.5179C56.1181 63.743 57.3481 66.018 58.518 68.3208C59.5421 70.3359 60.5149 72.3807 61.3556 74.4731C61.9295 75.8974 62.3342 77.3194 62.5289 78.8455C62.6542 79.8443 62.4899 80.9238 62.8289 81.8964C63.8665 84.8779 66.3412 85.4506 69.2335 85.6593C69.3828 85.6692 69.4526 85.4484 69.3009 85.3955Z" fill="#D0C9BE"/>
<path d="M51.7031 41.7219C50.1756 38.9082 49.1262 35.8104 48.7504 32.6295C48.4515 30.1094 48.8432 27.7037 47.0683 25.6743C45.607 24.008 43.0609 23.2879 41.3075 21.9929C38.9874 20.2857 38.2063 17.4809 36.1128 15.7323C35.9325 15.5818 35.6461 15.7184 35.6217 15.9417C35.1708 20.0596 40.619 23.7014 43.7303 25.3259C45.8339 26.4262 46.8235 27.6323 46.9637 30.1459C47.0467 31.6892 47.1704 33.1037 47.5432 34.6111C48.2403 37.4233 49.6395 39.6868 51.5867 41.7925C51.6359 41.8458 51.7409 41.7938 51.7031 41.7219Z" fill="#D0C9BE"/>
<path d="M71.2071 104.115C70.9995 102.375 70.0775 101.324 68.6791 100.339C67.7211 99.6651 66.5022 99.3137 65.3981 98.9606C64.85 98.7853 58.8812 96.1479 60.8092 94.9807C64.1192 92.9692 62.0481 87.2099 61.0448 84.6006C59.2849 80.022 56.3461 75.928 53.6914 71.8434C50.6154 67.1122 48.3612 62.4707 46.999 56.9862C46.9297 56.7109 46.4541 56.6595 46.4559 56.9914C46.5298 66.3728 54.1921 74.3698 58.0657 82.4237C59.1604 84.6995 59.9982 87.1053 60.4274 89.5971C60.704 91.2122 60.6489 92.9211 59.1627 93.9248C58.6746 94.2533 58.8527 95.0319 58.8761 95.4899C58.9479 96.9345 60.4527 98.4427 61.6489 99.0564C64.7425 100.642 69.9192 100.019 71.0707 104.135C71.095 104.219 71.2179 104.205 71.2071 104.115Z" fill="#D0C9BE"/>
<path d="M71.5264 107.156C50.8779 109.51 38.3811 89.5032 31.13 73.2945C27.0457 64.1605 23.7744 54.4523 23.3928 44.383C23.2126 39.6187 23.8832 34.8118 25.2591 30.2557C26.5853 25.8585 28.964 22.0648 31.4717 18.2665C31.5957 18.0813 31.3593 17.8157 31.1804 17.9837C24.6386 24.0857 22.3067 34.1432 22.0694 42.7721C21.7655 53.6104 25.3107 64.1611 29.7376 73.9042C37.2438 90.426 50.48 110.628 71.5471 107.291C71.6339 107.277 71.6133 107.146 71.5264 107.156Z" fill="#D0C9BE"/>
<path d="M73.8803 105.189C81.6711 101.197 87.8552 94.5303 91.1728 86.403C94.2757 78.7983 94.1968 68.6957 90.8628 61.1893C90.6152 60.6311 89.86 60.9178 89.8875 61.4714C90.2435 69.3591 91.0888 77.4219 89.3777 85.2194C87.5638 93.4636 80.7652 100.732 73.8441 105.129C73.812 105.151 73.8446 105.205 73.8803 105.189Z" fill="#D0C9BE"/>
<path d="M80.3348 87.6944C86.7156 86.4447 89.4766 79.1359 90.802 73.5634C91.7378 69.6153 91.802 65.466 91.5276 61.4341C91.2666 57.5847 90.6216 53.4762 88.2044 50.3593C87.9274 49.997 87.3693 50.2715 87.4176 50.6995C87.7774 53.9795 88.6089 57.188 88.9952 60.4727C89.4194 64.1086 89.263 67.7451 88.8329 71.3724C88.105 77.4529 86.0984 84.5117 80.316 87.6291C80.2851 87.646 80.295 87.7007 80.3348 87.6944Z" fill="#D0C9BE"/>
<path d="M80.3643 71.3904C83.8744 67.8953 85.6927 62.6256 86.3003 57.8086C86.9354 52.7611 87.0229 45.5737 83.3506 41.5409C83.1022 41.2718 82.727 41.528 82.828 41.8578C84.3856 46.9035 85.2841 51.5877 84.8129 56.9165C84.3754 61.8612 83.4837 67.3492 80.3147 71.3419C80.29 71.3716 80.3374 71.4174 80.3643 71.3904Z" fill="#D0C9BE"/>
<path d="M81.2667 55.1975C82.9935 52.0365 83.9231 48.5803 83.6094 44.9687C83.3418 41.8953 82.3522 37.8057 79.6139 36.035C79.4261 35.9132 79.1305 36.0442 79.1795 36.2959C79.7343 39.1103 81.3189 41.5517 81.8466 44.425C82.5043 47.9956 82.3301 51.7236 81.2025 55.1748C81.189 55.2177 81.246 55.2374 81.2667 55.1975Z" fill="#D0C9BE"/>
<path d="M76.4171 43.7322C78.2964 40.0332 78.6765 35.8846 77.291 31.9515C76.1491 28.706 74.3924 24.6204 71.0325 23.1505C70.8178 23.0558 70.5943 23.3424 70.7549 23.5231C75.3962 28.7161 78.7382 36.8871 76.2919 43.6795C76.2599 43.7649 76.3785 43.8096 76.4171 43.7322Z" fill="#D0C9BE"/>
<path d="M71.0991 35.1286C72.5542 28.9696 70.443 20.9553 64.6308 17.7495C64.2921 17.5607 63.9641 18.0611 64.1953 18.3312C68.2241 23.0199 71.6486 28.6797 71.0315 35.1177C71.0272 35.1664 71.0882 35.1692 71.0991 35.1286Z" fill="#D0C9BE"/>
<path d="M57.0505 17.6179C61.2539 18.799 64.7635 22.6754 67.5541 25.8079C72.3463 31.1807 76.2155 37.3865 79.3771 43.8391C83.0919 51.4181 85.697 59.6397 86.8911 68.0001C88.2337 77.4072 87.0183 86.4828 84.5093 95.5626C84.3842 96.0235 85.0039 96.2965 85.2082 95.8457C92.7091 79.1487 88.4568 59.009 80.3863 43.3934C76.9709 36.7887 72.6827 30.5561 67.5678 25.1477C64.7538 22.1699 61.1874 18.58 57.0684 17.5533C57.0277 17.5424 57.0147 17.6074 57.0505 17.6179Z" fill="#D0C9BE"/>
<path d="M79.1535 53.957C79.1535 53.957 79.4022 54.5593 79.8159 55.6269C80.0245 56.1547 80.2512 56.8115 80.5162 57.5623C80.791 58.3139 81.0666 59.1685 81.3495 60.107C81.6549 61.0402 81.9152 62.0698 82.2096 63.1564C82.4692 64.2496 82.7727 65.4007 82.9977 66.6085C83.1142 67.2091 83.2343 67.8247 83.354 68.4452C83.4537 69.0688 83.5527 69.7022 83.6538 70.3382C83.7598 70.9746 83.8257 71.6222 83.9035 72.2733C83.9768 72.9191 84.0691 73.5715 84.1147 74.2272C84.1629 74.8806 84.211 75.534 84.2618 76.1852C84.2857 76.8365 84.3118 77.4904 84.3338 78.1342C84.3705 78.7793 84.366 79.4183 84.3545 80.0542C84.3434 80.6853 84.357 81.3136 84.3255 81.9258C84.2647 83.1527 84.2144 84.3438 84.0821 85.4641C84.0235 86.0224 83.978 86.5696 83.91 87.0953C83.83 87.6175 83.7539 88.1228 83.6796 88.6087C83.5525 89.5849 83.3483 90.4637 83.1821 91.2429C83.099 91.6325 83.0229 91.9982 82.952 92.3325C82.8639 92.6678 82.784 92.9736 82.712 93.2503C82.419 94.3567 82.2376 94.9819 82.2376 94.9819C82.2376 94.9819 82.3309 94.336 82.517 93.2112C82.5624 92.9298 82.6156 92.6193 82.6715 92.2795C82.7143 91.9418 82.759 91.5709 82.8058 91.1756C82.899 90.39 83.0202 89.5089 83.0929 88.5378C83.1355 88.0516 83.1797 87.5459 83.2252 87.0256C83.254 86.5014 83.2839 85.9626 83.3156 85.4044C83.3932 84.294 83.3856 83.1199 83.4182 81.9077C83.4321 81.3013 83.4004 80.6836 83.3961 80.061C83.3847 79.4353 83.3785 78.8052 83.3436 78.1676C83.311 77.5327 83.2814 76.8907 83.2519 76.2487C83.198 75.6046 83.1441 74.9605 83.0902 74.3164C83.0513 73.6687 82.9678 73.0269 82.8989 72.3863C82.8252 71.7454 82.7709 71.1061 82.6693 70.475C82.5823 69.8451 82.4975 69.2179 82.4119 68.6004C82.309 67.9839 82.2058 67.3722 82.1087 66.7733C82.0165 66.1748 81.8962 65.591 81.7873 65.0156C81.6761 64.4375 81.5784 63.8753 81.4643 63.3312C81.214 62.2437 81.0231 61.2054 80.7826 60.2583C80.5518 59.3121 80.3562 58.44 80.1512 57.6749C79.9537 56.9079 79.7896 56.2346 79.6243 55.6885C79.3187 54.5888 79.1535 53.957 79.1535 53.957Z" fill="#D0C9BE"/>
<path d="M62.5073 27.3805C62.5073 27.3805 62.6121 27.4141 62.8046 27.4824C62.9997 27.5485 63.2863 27.6323 63.6215 27.8332C63.7893 27.9311 63.9947 28.0202 64.1842 28.1494C64.3782 28.284 64.5838 28.4269 64.8057 28.5786C65.0351 28.7285 65.2435 28.9232 65.4797 29.108C65.7128 29.2998 65.9622 29.5005 66.1963 29.7366C66.4362 29.9633 66.6875 30.1985 66.9451 30.4464C67.1895 30.7054 67.4379 30.9746 67.6978 31.2521C68.2127 31.8067 68.7225 32.4196 69.2342 33.0671C69.7305 33.7229 70.2596 34.3964 70.7331 35.1164C71.2348 35.8218 71.6908 36.5745 72.1652 37.3118C72.6137 38.0664 73.0493 38.8272 73.4633 39.5837C73.8667 40.349 74.2692 41.0971 74.6129 41.845C74.9645 42.5862 75.3037 43.3018 75.588 44.0004C75.8749 44.6968 76.1635 45.3467 76.3764 45.9655C76.6065 46.5834 76.8068 47.1497 76.9809 47.6524C77.1523 48.1574 77.2771 48.6069 77.3897 48.9719C77.6025 49.7034 77.7224 50.1255 77.7224 50.1255C77.7224 50.1255 77.5315 49.7315 77.1973 49.0433C77.0388 48.6987 76.8403 48.2796 76.615 47.8017C76.3774 47.3253 76.1131 46.7901 75.8363 46.2025C75.5621 45.6126 75.2166 44.9968 74.8882 44.3262C74.5647 43.6561 74.1735 42.9751 73.8029 42.2543C73.4425 41.5294 72.9902 40.8186 72.5953 40.0687C72.1774 39.3291 71.733 38.5846 71.2855 37.8473C70.83 37.1166 70.3931 36.3704 69.9104 35.6716C69.4462 34.9573 68.9772 34.2695 68.5105 33.6113C68.2853 33.2731 68.0275 32.9713 67.8055 32.653C67.5733 32.3387 67.3504 32.0301 67.113 31.7472C66.8809 31.4599 66.6581 31.1783 66.4394 30.9068C66.21 30.6442 65.9895 30.3922 65.7757 30.1481C65.5698 29.8973 65.3481 29.6869 65.1463 29.4732C64.9366 29.2662 64.7574 29.0472 64.5562 28.8826C64.1679 28.5326 63.8327 28.2191 63.5227 28.0107C63.2298 27.7744 62.9633 27.6286 62.7831 27.532C62.6055 27.4332 62.5073 27.3805 62.5073 27.3805Z" fill="#D0C9BE"/>
<path d="M65.3571 27.2329C66.3806 22.4228 64.2212 15.8546 58.9405 14.5817C58.6429 14.5116 58.5687 14.9117 58.7433 15.0716C60.278 16.4871 61.8943 17.726 63.0973 19.4604C64.6436 21.6952 65.3921 24.5363 65.2894 27.2221C65.2878 27.2685 65.3484 27.2763 65.3571 27.2329Z" fill="#D0C9BE"/>
<path d="M42.7912 77.6605C37.9899 75.9404 34.5028 71.9774 31.3539 68.1409C27.9252 63.9624 26.1961 59.2948 24.4017 54.3036C24.2982 54.0165 23.8382 54.0917 23.8125 54.3881C23.3706 59.7238 26.9852 65.1386 30.1274 69.125C33.2266 73.0574 37.8232 76.5848 42.7733 77.7251C42.812 77.7331 42.8268 77.6712 42.7912 77.6605Z" fill="#D0C9BE"/>
<path d="M37.9844 65.1998C33.797 63.3655 30.999 59.8742 28.4069 56.2417C25.8749 52.6894 25.0027 48.6275 22.995 44.865C22.8642 44.6189 22.5289 44.6704 22.4713 44.9395C21.6035 48.9702 24.5782 53.5162 26.701 56.7C29.3283 60.6408 33.3565 63.9649 37.9582 65.2624C37.9988 65.2733 38.0234 65.2166 37.9844 65.1998Z" fill="#D0C9BE"/>
<path d="M34.8395 52.8126C27.7556 48.7726 23.8088 40.4512 24.195 32.3913C24.2078 32.1192 23.8523 32.021 23.7358 32.272C21.9202 36.1112 23.7178 41.0998 25.2813 44.7393C26.8307 48.3502 31.2941 51.4353 34.7725 52.9319C34.8438 52.9622 34.9067 52.8508 34.8395 52.8126Z" fill="#D0C9BE"/>
<path d="M34.2076 43.7468C29.4996 38.7675 27.235 31.0305 27.6141 24.3056C27.6361 23.8862 27.0633 23.7136 26.8906 24.1198C24.0676 30.7147 29.1178 39.6151 34.158 43.793C34.1877 43.8176 34.2331 43.775 34.2076 43.7468Z" fill="#D0C9BE"/>
<path d="M36.5733 78.7285C36.5733 78.7285 36.8029 79.0901 37.2078 79.7235C37.4028 80.0419 37.6427 80.4309 37.9168 80.8767C38.1769 81.3253 38.5004 81.8198 38.8485 82.3522C39.1969 82.8888 39.5742 83.4689 39.9585 84.088C40.3572 84.6996 40.8126 85.3222 41.2505 85.9865C41.4712 86.3149 41.6977 86.652 41.9264 86.9917C42.1698 87.3237 42.4154 87.6582 42.661 87.9928C43.1588 88.6655 43.6352 89.3696 44.1599 90.0331C44.6821 90.7032 45.2041 91.3736 45.715 92.0307C46.2249 92.6932 46.7739 93.3093 47.2778 93.9228C47.7955 94.5291 48.2654 95.1395 48.7699 95.6714C49.2618 96.2093 49.7168 96.7285 50.1375 97.209C50.5542 97.6974 50.9664 98.113 51.3252 98.4923C51.6796 98.8707 51.9909 99.2041 52.2461 99.4766C52.7503 100.031 53.04 100.351 53.04 100.351C53.04 100.351 52.7001 100.087 52.109 99.6277C51.8158 99.3917 51.4592 99.1052 51.0534 98.7789C50.6485 98.4473 50.1817 98.0821 49.7228 97.6291C49.2513 97.1913 48.7392 96.7109 48.2109 96.199C47.6641 95.6981 47.14 95.1197 46.5993 94.5236C46.324 94.2229 46.0501 93.9212 45.7704 93.6152C45.4853 93.3093 45.2044 92.9998 44.9471 92.6615C44.4159 91.9989 43.8788 91.3277 43.3398 90.6536C42.8174 89.9747 42.3436 89.2548 41.8498 88.5654C41.6036 88.2178 41.3653 87.8726 41.1365 87.5284C40.9187 87.175 40.7035 86.8239 40.4916 86.4791C40.0701 85.792 39.6631 85.1288 39.3035 84.4844C38.9491 83.8311 38.6275 83.2089 38.3321 82.6368C38.185 82.3503 38.0449 82.0759 37.9102 81.8149C37.7893 81.5469 37.6761 81.2949 37.5678 81.0569C37.3598 80.5781 37.1762 80.16 37.0272 79.8165C36.7392 79.1255 36.5733 78.7285 36.5733 78.7285Z" fill="#D0C9BE"/>
<path d="M33.1193 22.6781C33.1193 22.6781 32.9869 22.8478 32.7387 23.1641C32.4977 23.4836 32.101 23.929 31.7285 24.575C31.5338 24.8961 31.3056 25.2362 31.0829 25.6259C30.8858 26.03 30.6716 26.462 30.4421 26.9295C30.194 27.3855 30.0252 27.9146 29.8114 28.4544C29.6049 28.9971 29.3692 29.5598 29.2082 30.177C29.0382 30.7927 28.8199 31.4174 28.6668 32.0866C28.5221 32.7577 28.372 33.4513 28.2194 34.1651C28.0765 34.8797 28.0048 35.6292 27.8888 36.3843C27.846 36.7672 27.7699 37.1464 27.7418 37.5349C27.7151 37.9267 27.6874 38.3195 27.6589 38.7173C27.6155 39.5107 27.5052 40.3151 27.5309 41.1361C27.5266 41.9551 27.5214 42.784 27.5168 43.6214C27.532 44.4557 27.6029 45.2972 27.6451 46.1449L27.716 47.4145C27.7542 47.8375 27.8158 48.2589 27.8635 48.6829C27.959 49.5264 28.0567 50.3725 28.1507 51.2127C28.2715 52.053 28.4376 52.8824 28.576 53.7078C28.648 54.1206 28.7207 54.5326 28.7925 54.9409C28.8558 55.3519 28.9305 55.7577 29.0316 56.1595C29.2147 56.961 29.3955 57.7509 29.5758 58.5323C29.8985 60.0997 30.3635 61.5748 30.7512 62.9931C30.9555 63.6957 31.1273 64.3896 31.3428 65.0468C31.5603 65.7023 31.7706 66.3369 31.9738 66.9458C32.1724 67.554 32.3662 68.1394 32.5492 68.6931C32.7291 69.2495 32.8883 69.7828 33.0848 70.2667C33.4549 71.2447 33.777 72.0963 34.0417 72.7978C34.5596 74.2059 34.8569 75.0107 34.8569 75.0107C34.8569 75.0107 34.4866 74.2402 33.8573 72.876C33.5453 72.1916 33.1656 71.3612 32.7282 70.4082C32.2878 69.4576 31.8898 68.3454 31.4161 67.1434C31.1836 66.541 30.9417 65.915 30.6904 65.2654C30.4422 64.6131 30.2488 63.9193 30.0159 63.2181C29.5763 61.8028 29.0477 60.3315 28.6937 58.7498C28.4961 57.965 28.2963 57.1685 28.0935 56.3609C27.8721 55.5601 27.7629 54.719 27.5967 53.8853C27.4505 53.0484 27.2766 52.2076 27.1492 51.3593C27.0459 50.5043 26.9425 49.645 26.8383 48.7862C26.7924 48.3562 26.7371 47.9295 26.6984 47.4979L26.6342 46.2047C26.5976 45.3433 26.5339 44.4866 26.5231 43.6351C26.5507 41.9315 26.5624 40.2546 26.7566 38.6364C26.7957 38.2341 26.8327 37.8336 26.8709 37.4367C26.9039 37.0395 26.9946 36.6525 27.0543 36.2645C27.1975 35.4956 27.2965 34.7367 27.468 34.0116C27.6522 33.2894 27.8328 32.5881 28.0046 31.9078C28.1948 31.2346 28.448 30.6032 28.6541 29.9887C28.8472 29.3671 29.1089 28.8006 29.3578 28.2628C29.6127 27.729 29.8177 27.2056 30.1017 26.76C30.3648 26.3004 30.6126 25.8763 30.8406 25.4822C31.0921 25.1 31.3517 24.765 31.5699 24.4558C31.9853 23.8234 32.4312 23.4312 32.6979 23.1263C32.9709 22.8341 33.1193 22.6781 33.1193 22.6781Z" fill="#D0C9BE"/>
<path d="M33.9865 57.2322C33.9865 57.2322 34.1321 57.8084 34.3641 58.8211C34.4744 59.3278 34.6181 59.9415 34.7975 60.638C34.9784 61.3379 35.1642 62.128 35.3961 62.9832C35.6226 63.8384 35.8646 64.7662 36.1483 65.7401C36.4155 66.7189 36.738 67.7369 37.0641 68.7924C37.3776 69.8539 37.7816 70.9206 38.1422 72.0193C38.5501 73.1052 38.9343 74.2155 39.4024 75.2915C39.8258 76.3915 40.325 77.4504 40.8021 78.5054C41.0592 79.0195 41.3165 79.5335 41.5691 80.038C41.6958 80.2921 41.8216 80.5425 41.9482 80.7921C42.0843 81.0338 42.2213 81.2749 42.3562 81.513C42.631 81.9898 42.8848 82.4662 43.1633 82.9173C43.4455 83.3654 43.7213 83.8008 43.9914 84.2274C44.2469 84.6618 44.5608 85.0381 44.8307 85.429C45.1107 85.8067 45.3582 86.1983 45.6431 86.5315C45.9227 86.869 46.1945 87.1951 46.4508 87.5027C46.5766 87.6584 46.701 87.8109 46.8209 87.9581C46.9521 88.0958 47.08 88.2273 47.2046 88.357C47.4552 88.6153 47.6878 88.8571 47.9017 89.0787C48.1149 89.3097 48.3177 89.509 48.5199 89.6683C49.3002 90.3426 49.7439 90.7453 49.7439 90.7453C49.7439 90.7453 49.25 90.4208 48.3925 89.8247C48.1716 89.6812 47.9474 89.4999 47.7125 89.2914C47.4727 89.0872 47.2141 88.8671 46.9369 88.6312C46.7988 88.5128 46.6552 88.39 46.5083 88.2654C46.3716 88.1278 46.2308 87.9847 46.0887 87.8426C45.803 87.5462 45.5041 87.2383 45.1919 86.9146C44.8768 86.5933 44.5997 86.2175 44.284 85.8471C43.9816 85.4701 43.6453 85.0945 43.3603 84.6668C43.0628 84.2452 42.7575 83.812 42.4455 83.3709C42.1346 82.929 41.8698 82.4438 41.5727 81.9677C41.4272 81.7294 41.2805 81.4875 41.1317 81.243C40.9953 80.9925 40.86 80.741 40.7215 80.4878C40.4486 79.9779 40.1638 79.4645 39.9061 78.9373C39.4118 77.8698 38.8885 76.7951 38.4497 75.681C37.9872 74.5822 37.6063 73.4511 37.2041 72.3468C37.0127 71.7911 36.8475 71.2313 36.6773 70.6848C36.5051 70.1355 36.3382 69.5907 36.1973 69.0512C36.0507 68.5119 35.9088 67.9821 35.7687 67.4644C35.6376 66.9436 35.5261 66.429 35.4088 65.9327C35.1648 64.939 34.9881 63.9879 34.8214 63.1096C34.6398 62.2392 34.534 61.4268 34.4226 60.7093C34.3093 59.9934 34.2271 59.3686 34.1687 58.8544C34.0445 57.8232 33.9865 57.2322 33.9865 57.2322Z" fill="#D0C9BE"/>
<path d="M35.2694 26.2666C35.2694 26.2666 35.246 26.2817 35.2064 26.315C35.1689 26.3509 35.0948 26.386 35.0292 26.4636C34.9011 26.6116 34.7384 26.8473 34.5933 27.1898C34.2801 27.8582 34.0109 28.8905 33.7668 30.1406C33.6461 30.7645 33.537 31.4507 33.4321 32.1741C33.325 32.8947 33.2489 33.6659 33.1552 34.4563C33.0005 36.0459 32.8664 37.7444 32.8024 39.4471C32.7652 40.2983 32.7377 41.1504 32.7319 41.9887C32.7313 42.8273 32.7102 43.6515 32.734 44.4515C32.76 46.0471 32.8354 47.5383 32.9374 48.8133C32.9946 49.4501 33.0429 50.0359 33.1078 50.5536C33.1663 51.0722 33.2275 51.521 33.281 51.8951C33.3941 52.6382 33.4612 53.064 33.4612 53.064C33.4612 53.064 33.4257 52.9631 33.3584 52.7718C33.2975 52.5795 33.1827 52.302 33.0795 51.938C32.8578 51.2184 32.5828 50.1696 32.3513 48.8906C32.2331 48.2509 32.126 47.5568 32.0405 46.8176C31.9531 46.0799 31.8707 45.2976 31.8274 44.4868C31.7788 43.6761 31.7358 42.8382 31.7368 41.9857C31.7315 41.1342 31.7468 40.2697 31.7751 39.4035C31.8225 38.5392 31.8754 37.6749 31.9561 36.8277C32.0254 35.9766 32.1484 35.148 32.2584 34.3438C32.5031 32.7373 32.8174 31.2481 33.1936 29.9998C33.565 28.751 33.9871 27.7345 34.4109 27.0906C34.6086 26.7624 34.8382 26.5474 34.999 26.4169C35.0757 26.3525 35.156 26.3302 35.2001 26.3022C35.2438 26.2791 35.2694 26.2666 35.2694 26.2666Z" fill="#D0C9BE"/>
<path d="M32.2433 32.2613C30.8301 30.1626 30.2599 27.9152 30.0269 25.4254C29.7978 23.0045 30.758 20.7661 31.3835 18.4886C31.445 18.2613 31.1757 17.9511 30.9604 18.1723C27.1493 22.055 28.7769 28.7451 32.1917 32.3045C32.2224 32.3373 32.2689 32.2983 32.2433 32.2613Z" fill="#D0C9BE"/>
</svg>
