<svg width="100" height="97" viewBox="0 0 100 97" fill="none" xmlns="http://www.w3.org/2000/svg">
<path d="M28.2517 15.082C37.6777 7.43128 50.3738 12.1179 58.3634 19.3965C62.0291 22.7366 65.4094 26.3849 68.5498 30.2186C78.4389 42.285 87.0979 58.7613 78.9772 74.0484C78.7965 74.387 79.3002 74.622 79.4958 74.3112C89.0451 59.2385 79.3327 41.2427 69.3724 29.1242C60.2021 17.9674 43.1318 1.91267 28.7131 14.4773C28.5255 14.6416 28.3468 14.8134 28.1753 14.995C28.1293 15.0407 28.1989 15.122 28.2517 15.082" fill="#D0C9BE"/>
<path d="M70.3099 84.8981C67.6614 82.4452 68.2072 78.1984 66.4728 75.1901C65.4153 73.356 63.0525 72.5296 61.2205 73.5445C61.4553 73.7029 61.6896 73.8619 61.9238 74.0209C62.5109 71.6325 64.3862 70.0959 65.6097 68.0856C65.8159 67.7485 65.3646 67.41 65.0648 67.6031C62.9107 68.9881 62.1613 71.5516 61.0635 73.718C60.8776 74.0855 61.2401 74.4705 61.6193 74.3609C65.5829 73.2018 66.567 77.8527 67.2356 80.625C67.6755 82.4467 68.6377 84.0066 70.2454 84.9933C70.3029 85.0297 70.3551 84.9402 70.3099 84.8981" fill="#D0C9BE"/>
<path d="M64.1004 69.0211C62.2858 68.7236 60.2116 68.3477 59.322 66.4822C58.9942 65.7958 59.0272 64.83 58.8455 64.079C58.5858 63.001 58.2228 62.0323 57.74 61.0332C56.2019 57.8457 53.4822 54.9665 51.2316 52.2631C50.1392 50.9497 49.0011 49.6726 47.8492 48.4074C47.363 47.8731 46.3798 47.1782 46.4156 46.3505C46.4479 45.5772 46.362 44.7621 46.2125 44.0047C45.66 41.2127 44.5395 38.5682 42.1162 36.9561C41.8576 36.7851 41.6043 37.1508 41.7428 37.3782C42.7404 38.9734 43.7921 40.5223 44.4596 42.2964C44.7801 43.1513 44.9243 44.0612 45.0365 44.9635C45.1216 45.6744 44.8553 46.6627 45.0729 47.3209C45.4939 48.5945 47.5887 50.1829 48.4389 51.1732C49.8691 52.8417 51.2345 54.5645 52.5537 56.3195C53.7085 57.8552 54.8246 59.4233 55.8372 61.0508C56.5278 62.1583 57.0765 63.2889 57.4648 64.5377C57.717 65.3553 57.7389 66.2832 58.1662 67.0473C59.4748 69.39 61.6309 69.5042 64.0829 69.2519C64.2094 69.2382 64.2352 69.0431 64.1004 69.0211" fill="#D0C9BE"/>
<path d="M42.9229 35.0595C41.2289 32.9295 39.8932 30.4913 39.1091 27.884C38.4869 25.8186 38.4598 23.747 36.6744 22.3101C35.2052 21.1309 32.9676 20.904 31.3086 20.0787C29.1145 18.9921 28.0467 16.7595 26.0361 15.6048C25.8629 15.5054 25.6434 15.662 25.6559 15.8525C25.8862 19.3661 30.9845 21.6106 33.8287 22.5112C35.7521 23.1217 36.7585 23.9853 37.2469 26.0687C37.5442 27.3484 37.8565 28.5142 38.391 29.7211C39.3897 31.9722 40.8951 33.6605 42.8359 35.1358C42.8849 35.1731 42.9652 35.1141 42.9229 35.0595" fill="#D0C9BE"/>
<path d="M68.4593 84.4103C68.0286 82.9839 67.1017 82.2402 65.7857 81.6223C64.8843 81.1995 63.8121 81.0853 62.8357 80.9527C62.351 80.8868 56.9653 79.5601 58.4069 78.2984C60.8808 76.126 58.297 71.6107 57.072 69.5745C54.923 66.0015 51.8586 63.0082 49.0335 59.9808C45.7601 56.4743 43.1881 52.9217 41.2382 48.5317C41.1396 48.3114 40.7339 48.3386 40.7844 48.6161C42.231 56.4584 49.8255 62.0218 54.2569 68.1919C55.5091 69.9355 56.5656 71.8257 57.2927 73.8482C57.7626 75.1594 57.9687 76.598 56.8727 77.6576C56.5127 78.0046 56.7767 78.6301 56.8638 79.01C57.1372 80.2087 58.6194 81.2491 59.7114 81.5863C62.535 82.4567 66.7766 81.1716 68.348 84.4472C68.3807 84.5132 68.4816 84.4842 68.4593 84.4103" fill="#D0C9BE"/>
<path d="M69.1752 86.9078C52.2378 91.9266 38.8237 77.0234 30.3613 64.5254C25.5941 57.4821 21.4228 49.8383 19.617 41.4656C18.7629 37.504 18.6148 33.3811 19.0941 29.3641C19.5551 25.4874 20.9864 21.9606 22.525 18.4109C22.6015 18.2376 22.3643 18.0501 22.2394 18.2172C17.664 24.2908 17.1964 33.0542 18.2715 40.3124C19.6168 49.43 24.1418 57.7387 29.2857 65.2413C38.0078 77.9637 52.0697 92.921 69.2125 87.0185C69.2831 86.9938 69.2464 86.8868 69.1752 86.9078" fill="#D0C9BE"/>
<path d="M70.8555 84.9142C76.788 80.4228 80.9806 73.9292 82.5582 66.6361C84.0332 59.8122 82.4759 51.367 78.577 45.5755C78.2874 45.1448 77.6975 45.4962 77.8023 45.9556C79.2645 52.5059 81.1623 59.1305 80.8808 65.9103C80.5793 73.0793 75.961 80.1669 70.8164 84.8695C70.7928 84.893 70.828 84.9332 70.8555 84.9142Z" fill="#D0C9BE"/>
<path d="M73.676 69.3168C78.8329 67.3288 80.0654 60.8031 80.3523 55.9427C80.5529 52.4996 79.9942 49.0168 79.1694 45.6822C78.3827 42.4983 77.2364 39.1543 74.7529 36.9019C74.4675 36.6395 74.0409 36.9517 74.1445 37.3029C74.9298 39.9954 76.0994 42.5586 76.9076 45.2512C77.7994 48.2322 78.2052 51.2994 78.3806 54.3993C78.6687 59.5967 78.0309 65.8018 73.6506 69.2649C73.6273 69.2836 73.6436 69.3279 73.676 69.3168" fill="#D0C9BE"/>
<path d="M71.2944 55.6645C73.7168 52.2207 74.4611 47.5411 74.2587 43.419C74.0453 39.1001 73.0576 33.0705 69.3883 30.2368C69.1407 30.0481 68.8644 30.318 68.9976 30.5791C71.0463 34.573 72.4898 38.3616 72.8819 42.8918C73.2456 47.0956 73.3091 51.8212 71.2457 55.6313C71.2294 55.6598 71.2759 55.6911 71.2944 55.6645" fill="#D0C9BE"/>
<path d="M69.6596 41.9764C70.6386 39.0754 70.9066 36.045 70.111 33.0681C69.4333 30.5348 68.0013 27.2575 65.4476 26.1794C65.2725 26.1052 65.0443 26.2584 65.1225 26.4619C66.0024 28.7359 67.6892 30.5458 68.555 32.8731C69.6327 35.765 70.0371 38.9115 69.6026 41.9669C69.5976 42.0048 69.6483 42.0128 69.6596 41.9764" fill="#D0C9BE"/>
<path d="M63.9077 33.0941C64.9348 29.7203 64.6407 26.1914 62.9003 23.1035C61.4655 20.5553 59.3918 17.3945 56.3623 16.66C56.1686 16.6124 56.0238 16.8853 56.1849 17.0128C60.8366 20.6748 64.8403 27.0215 63.7951 33.0685C63.7809 33.1447 63.8868 33.1646 63.9077 33.0941" fill="#D0C9BE"/>
<path d="M58.1861 26.677C58.4951 21.3066 55.5448 14.9094 50.2062 13.0838C49.8948 12.9757 49.6942 13.443 49.9275 13.635C53.9921 16.9652 57.6942 21.1976 58.1279 26.678C58.1315 26.7193 58.183 26.7127 58.1861 26.677" fill="#D0C9BE"/>
<path d="M43.8412 14.0928C47.5343 14.461 51.0443 17.1879 53.8427 19.3982C58.6473 23.1885 62.8022 27.8123 66.4012 32.7471C70.6295 38.5431 74.0238 45.0409 76.2574 51.8631C78.7699 59.5397 79.092 67.3163 78.332 75.2873C78.2953 75.6916 78.8543 75.8286 78.9588 75.4211C82.7732 60.3369 76.2409 44.1056 67.1802 32.225C63.3463 27.2003 58.8367 22.6159 53.7567 18.8435C50.9616 16.7662 47.4462 14.2875 43.8467 14.036C43.811 14.0329 43.8097 14.0893 43.8412 14.0928" fill="#D0C9BE"/>
<path d="M67.7076 41.2499C67.7076 41.2499 68.0046 41.7174 68.5085 42.55C68.7611 42.9611 69.0478 43.4774 69.3805 44.0668C69.7214 44.6554 70.0783 45.3301 70.4536 46.074C70.847 46.81 71.2169 47.6336 71.6237 48.4996C72.0024 49.3765 72.4263 50.2952 72.793 51.2731C72.9792 51.7587 73.1706 52.2563 73.3623 52.758C73.5379 53.2653 73.7142 53.7809 73.8927 54.2984C74.0754 54.8155 74.2261 55.3479 74.3873 55.8814C74.5441 56.4112 74.7177 56.9437 74.8525 57.4858C74.9893 58.0257 75.1261 58.5656 75.2647 59.1032C75.3808 59.6449 75.4992 60.1884 75.6127 60.7241C75.7386 61.2586 75.8292 61.7942 75.9134 62.3283C75.9972 62.8582 76.1014 63.3821 76.1654 63.8992C76.2956 64.9353 76.4293 65.9398 76.4839 66.8971C76.5172 67.3731 76.5599 67.8379 76.5806 68.288C76.5907 68.7369 76.6016 69.1711 76.6111 69.5889C76.6488 70.4248 76.6076 71.1905 76.5835 71.8673C76.5714 72.2057 76.5617 72.5231 76.5517 72.8134C76.5274 73.1071 76.5057 73.3749 76.4862 73.6171C76.4043 74.5866 76.3447 75.1367 76.3447 75.1367C76.3447 75.1367 76.3275 74.5823 76.3172 73.6132C76.3137 73.3709 76.3124 73.1032 76.3091 72.8105C76.295 72.5215 76.2777 72.2043 76.2585 71.8666C76.2206 71.1952 76.192 70.4397 76.1095 69.6161C76.0734 69.2028 76.0358 68.7729 75.9971 68.3307C75.9438 67.8876 75.8893 67.4322 75.8334 66.9602C75.7345 66.0193 75.5549 65.0376 75.4032 64.018C75.3253 63.5084 75.2076 62.996 75.1121 62.4754C75.0102 61.9533 74.912 61.4267 74.7887 60.8982C74.6677 60.3715 74.5482 59.8385 74.4287 59.3054C74.2885 58.7742 74.1483 58.243 74.0081 57.7117C73.88 57.1753 73.7154 56.6503 73.5631 56.1243C73.4068 55.5987 73.267 55.0715 73.0888 54.5582C72.923 54.0438 72.7594 53.5313 72.5966 53.027C72.4195 52.5261 72.2428 52.0293 72.0731 51.5422C71.9076 51.0549 71.7207 50.5839 71.5446 50.1183C71.3663 49.6508 71.2014 49.1946 71.0256 48.756C70.6556 47.8826 70.3425 47.0416 70.0014 46.2843C69.6685 45.5263 69.376 44.8251 69.0915 44.2149C68.813 43.6021 68.5763 43.0626 68.3573 42.6299C67.9392 41.7544 67.7076 41.2499 67.7076 41.2499" fill="#D0C9BE"/>
<path d="M49.8502 21.4596C49.8502 21.4596 49.9429 21.4723 50.1141 21.501C50.2872 21.5275 50.5395 21.5554 50.8498 21.6741C51.0047 21.7313 51.1897 21.7755 51.3675 21.8558C51.5498 21.9398 51.7429 22.0291 51.9511 22.1233C52.1652 22.2149 52.3684 22.3471 52.5934 22.4669C52.8168 22.5932 53.0553 22.7243 53.2861 22.8874C53.5203 23.0418 53.7654 23.2015 54.0177 23.371C54.2604 23.5518 54.5081 23.7404 54.7666 23.9344C55.2796 24.3227 55.7968 24.7605 56.3207 25.2269C56.833 25.7027 57.3752 26.1884 57.8779 26.7212C58.402 27.2376 58.8948 27.8004 59.4008 28.3476C59.8876 28.913 60.3646 29.4856 60.8228 30.0577C61.2734 30.6389 61.7207 31.2057 62.1188 31.781C62.5226 32.3496 62.9121 32.8986 63.2532 33.4414C63.5962 33.982 63.9337 34.4834 64.2033 34.97C64.4871 35.4533 64.7384 35.8978 64.9583 36.2929C65.1763 36.6903 65.3471 37.0481 65.4953 37.3371C65.7814 37.9181 65.944 38.2537 65.944 38.2537C65.944 38.2537 65.7261 37.952 65.3447 37.4253C65.1612 37.1602 64.9331 36.8386 64.6741 36.4719C64.4049 36.1081 64.1046 35.6992 63.7861 35.2481C63.4695 34.7948 63.0894 34.3303 62.7155 33.8174C62.3458 33.3042 61.9178 32.7919 61.5012 32.2432C61.0926 31.6896 60.609 31.1614 60.1677 30.5919C59.7087 30.0344 59.2268 29.4769 58.7434 28.9257C58.2543 28.3812 57.7784 27.8211 57.2711 27.3074C56.7771 26.7779 56.283 26.2714 55.7952 25.7893C55.5568 25.5395 55.2964 25.3249 55.0636 25.0912C54.8228 24.8624 54.5907 24.6369 54.3502 24.4352C54.1135 24.2289 53.8855 24.026 53.6622 23.8311C53.4315 23.6451 53.2098 23.4667 52.9947 23.2939C52.7854 23.1144 52.5687 22.9709 52.3683 22.8219C52.1622 22.6796 51.9798 22.5227 51.7871 22.4146C51.4104 22.1789 51.0835 21.966 50.7932 21.8373C50.5132 21.6827 50.2685 21.6 50.1034 21.5457C49.9402 21.4892 49.8502 21.4596 49.8502 21.4596" fill="#D0C9BE"/>
<path d="M52.2138 20.9153C52.3606 16.7377 49.5835 11.5581 44.9751 11.272C44.7156 11.2572 44.7126 11.6032 44.8824 11.7112C46.376 12.6696 47.9118 13.4681 49.1749 14.7424C50.7991 16.3849 51.8451 18.6527 52.1556 20.9162C52.1611 20.9553 52.2129 20.9528 52.2138 20.9153" fill="#D0C9BE"/>
<path d="M40.7674 66.4591C36.4943 65.7278 32.9903 62.9251 29.7881 60.1783C26.3011 57.1866 24.1647 53.5346 21.9259 49.6213C21.7969 49.3963 21.4229 49.5271 21.4452 49.779C21.8629 54.3108 25.6879 58.31 28.9066 61.1832C32.0814 64.0175 36.4499 66.2918 40.7619 66.5158C40.7955 66.5168 40.7987 66.4628 40.7674 66.4591" fill="#D0C9BE"/>
<path d="M34.9044 56.7377C31.1283 55.8203 28.2708 53.3108 25.5648 50.6526C22.9209 48.0527 21.5912 44.7812 19.3552 41.928C19.2094 41.7413 18.9363 41.8339 18.9278 42.0676C18.7963 45.5698 21.9575 48.9362 24.2044 51.2881C26.9854 54.1991 30.848 56.3871 34.8916 56.794C34.9273 56.7972 34.9395 56.7461 34.9044 56.7377" fill="#D0C9BE"/>
<path d="M30.4436 46.8325C23.9173 44.4962 19.3852 38.1129 18.5188 31.3089C18.4893 31.0793 18.1773 31.0496 18.1168 31.2769C17.1637 34.7587 19.4047 38.6693 21.2508 41.4852C23.0807 44.2791 27.2724 46.2028 30.4051 46.9423C30.4692 46.957 30.5055 46.8545 30.4436 46.8325" fill="#D0C9BE"/>
<path d="M28.5763 39.3371C23.9002 35.8638 20.8625 29.7214 20.1873 24.036C20.1438 23.6817 19.6388 23.6217 19.5541 23.9873C18.1644 29.9246 23.7057 36.6296 28.5415 39.383C28.57 39.3993 28.6017 39.3569 28.5763 39.3371Z" fill="#D0C9BE"/>
<path d="M35.7202 68.2712C35.7202 68.2712 35.9657 68.54 36.3982 69.0104C36.6084 69.2482 36.8666 69.5384 37.1619 69.8711C37.4458 70.2082 37.7896 70.5744 38.1596 70.9687C38.5305 71.3665 38.9319 71.7964 39.345 72.2579C39.7691 72.711 40.2421 73.165 40.7068 73.6564C40.94 73.8988 41.1794 74.1475 41.421 74.3981C41.6737 74.6401 41.9287 74.8839 42.1836 75.1277C42.6996 75.6173 43.2023 76.1364 43.7395 76.6144C44.2756 77.0983 44.8115 77.5824 45.3361 78.0571C45.8608 78.5364 46.4112 78.9711 46.9236 79.4103C47.4465 79.8414 47.93 80.283 48.4307 80.6538C48.9219 81.0315 49.3795 81.399 49.8026 81.7391C50.2234 82.0864 50.6298 82.3735 50.9862 82.638C51.3387 82.9024 51.6486 83.1356 51.9024 83.326C52.4063 83.7159 52.6961 83.941 52.6961 83.941C52.6961 83.941 52.3725 83.7699 51.8099 83.4728C51.5296 83.3184 51.1888 83.1313 50.801 82.918C50.4131 82.7002 49.9684 82.4634 49.5174 82.152C49.0581 81.855 48.5585 81.5285 48.0408 81.1779C47.5091 80.8394 46.9849 80.4325 46.4443 80.0134C46.1695 79.8023 45.8957 79.5901 45.6164 79.3753C45.3326 79.1613 45.0518 78.9437 44.7865 78.6985C44.244 78.2222 43.6953 77.7396 43.1446 77.2549C42.6071 76.7637 42.1042 76.231 41.5891 75.7268C41.3317 75.4721 41.0812 75.2183 40.8389 74.964C40.6045 74.7003 40.3725 74.4382 40.1442 74.1808C39.6899 73.6679 39.2514 73.1728 38.8552 72.6864C38.4621 72.1919 38.1011 71.7185 37.7694 71.2832C37.6039 71.065 37.4461 70.856 37.2948 70.6575C37.1541 70.4509 37.0222 70.2567 36.8964 70.0734C36.6516 69.7034 36.4361 69.3805 36.2607 69.1149C35.9177 68.5789 35.7202 68.2712 35.7202 68.2712" fill="#D0C9BE"/>
<path d="M24.5553 21.8609C24.5553 21.8609 24.4694 22.0225 24.3084 22.3239C24.1537 22.6269 23.8875 23.0583 23.671 23.6541C23.5554 23.9516 23.4146 24.27 23.2856 24.6291C23.1803 24.9964 23.0648 25.3897 22.9416 25.8149C22.8012 26.2332 22.7381 26.701 22.6388 27.1845C22.546 27.6693 22.4318 28.1751 22.3881 28.7155C22.3367 29.256 22.2461 29.8112 22.2167 30.3939C22.1947 30.9771 22.1714 31.5799 22.149 32.1999C22.1349 32.8192 22.1855 33.4572 22.1998 34.1064C22.2205 34.4332 22.2128 34.7619 22.2466 35.0913C22.2821 35.4232 22.3169 35.7561 22.3518 36.0933C22.4325 36.7638 22.4589 37.4535 22.6016 38.1369C22.7189 38.8232 22.837 39.5178 22.9566 40.2195C23.0925 40.9156 23.2761 41.6096 23.4365 42.313L23.6833 43.3653C23.7777 43.7137 23.8915 44.0574 23.994 44.4053C24.1984 45.0973 24.4051 45.7912 24.6079 46.4806C24.833 47.1662 25.0944 47.836 25.3322 48.5065C25.4533 48.8414 25.575 49.1756 25.6954 49.5068C25.809 49.8415 25.9314 50.1702 26.0753 50.4916C26.347 51.1354 26.6149 51.77 26.8812 52.3975C27.3827 53.662 27.9897 54.8281 28.5235 55.9581C28.7983 56.5161 29.0445 57.0716 29.3218 57.59C29.6007 58.1066 29.8704 58.6067 30.1304 59.0865C30.3864 59.5663 30.635 60.0277 30.87 60.4642C31.1027 60.9035 31.3147 61.3264 31.5506 61.7024C32.0048 62.4665 32.4001 63.1318 32.7252 63.68C33.3666 64.7823 33.7343 65.4121 33.7343 65.4121C33.7343 65.4121 33.3105 64.8218 32.5824 63.7726C32.2202 63.2458 31.7798 62.6067 31.273 61.8735C30.764 61.1428 30.2667 60.2705 29.6927 59.3343C29.4092 58.8643 29.1143 58.3759 28.808 57.8692C28.504 57.3598 28.2397 56.8076 27.9412 56.255C27.3643 55.1352 26.7047 53.9816 26.1749 52.7098C25.8936 52.082 25.6088 51.4447 25.3199 50.7986C25.0163 50.1609 24.8007 49.473 24.5386 48.7996C24.2926 48.1206 24.023 47.4424 23.7911 46.7512C23.5784 46.0507 23.365 45.3466 23.151 44.6431C23.0491 44.2899 22.9399 43.9409 22.8438 43.5853L22.5991 42.5122C22.4414 41.7966 22.2616 41.0889 22.1269 40.3777C21.8985 38.9475 21.6608 37.542 21.5845 36.1587C21.5579 35.8162 21.5298 35.4755 21.5031 35.1376C21.4721 34.8002 21.4909 34.4629 21.4836 34.1293C21.49 33.4645 21.4609 32.8146 21.4974 32.1823C21.545 31.5505 21.5927 30.9368 21.636 30.3421C21.6959 29.7504 21.8146 29.1845 21.8965 28.6397C21.9663 28.0909 22.1018 27.578 22.2308 27.0911C22.3654 26.6066 22.4597 26.1381 22.6317 25.7233C22.7841 25.2997 22.929 24.9081 23.0617 24.5445C23.2157 24.1875 23.3836 23.8688 23.5206 23.5777C23.775 22.987 24.0904 22.5929 24.2687 22.2982C24.4541 22.0134 24.5553 21.8609 24.5553 21.8609" fill="#D0C9BE"/>
<path d="M30.3817 50.6582C30.3817 50.6582 30.5886 51.119 30.9323 51.9325C31.0994 52.3404 31.3103 52.833 31.5633 53.3896C31.818 53.9487 32.0902 54.5827 32.4105 55.2643C32.7264 55.9468 33.0659 56.6878 33.4472 57.4611C33.8153 58.2411 34.2355 59.0456 34.6642 59.881C35.0834 60.7233 35.579 61.5566 36.043 62.4231C36.5448 63.2719 37.0303 64.1446 37.581 64.9763C38.0977 65.8346 38.6719 66.6473 39.227 67.46C39.5181 67.8525 39.8094 68.2448 40.0953 68.6298C40.2388 68.8238 40.3811 69.0148 40.5239 69.2051C40.6736 69.3873 40.8238 69.5689 40.9719 69.7483C41.2723 70.1069 41.5551 70.4682 41.8548 70.8048C42.1572 71.1381 42.4523 71.4619 42.7414 71.7792C43.0193 72.1051 43.3377 72.3738 43.6213 72.6612C43.9114 72.936 44.1764 73.2273 44.4641 73.4641C44.748 73.7054 45.0237 73.9382 45.2836 74.1579C45.4119 74.2697 45.5385 74.379 45.6606 74.4845C45.7908 74.5804 45.9172 74.6716 46.0407 74.7618C46.2886 74.941 46.519 75.1091 46.7307 75.263C46.9433 75.425 47.1425 75.5618 47.3352 75.6653C48.088 76.1147 48.5189 76.3862 48.5189 76.3862C48.5189 76.3862 48.0575 76.1875 47.2517 75.8151C47.0456 75.7275 46.8312 75.6089 46.6038 75.469C46.3729 75.3335 46.124 75.1874 45.857 75.0308C45.724 74.9521 45.5856 74.8705 45.4443 74.7879C45.3096 74.6929 45.1706 74.5938 45.0306 74.4959C44.7477 74.29 44.4521 74.0764 44.1429 73.8514C43.8317 73.629 43.5444 73.3553 43.2254 73.0919C42.9166 72.8209 42.5797 72.5561 42.278 72.2402C41.9667 71.9311 41.6471 71.6136 41.3209 71.2904C40.9954 70.9664 40.7021 70.5993 40.3831 70.2446C40.2261 70.0666 40.0677 69.8858 39.907 69.703C39.7559 69.5134 39.6055 69.3229 39.4521 69.1314C39.1485 68.7449 38.8342 68.3571 38.5407 67.9538C37.9694 67.1332 37.3727 66.3108 36.8409 65.4429C36.2916 64.5914 35.8058 63.7008 35.3061 62.8358C35.0638 62.3988 34.843 61.9546 34.6198 61.5223C34.3946 61.0878 34.1744 60.6564 33.9768 60.2256C33.7745 59.7958 33.5776 59.3732 33.3838 58.9606C33.1973 58.544 33.028 58.1296 32.8565 57.7315C32.5056 56.9357 32.2172 56.1656 31.9481 55.4549C31.6676 54.7531 31.4591 54.0888 31.26 53.5046C31.0595 52.922 30.8984 52.4111 30.7736 51.9893C30.5175 51.1444 30.3817 50.6582 30.3817 50.6582" fill="#D0C9BE"/>
<path d="M26.8851 24.5473C26.8851 24.5473 26.8677 24.5634 26.8394 24.5971C26.8134 24.6327 26.7566 24.6731 26.7131 24.7477C26.6277 24.8905 26.5263 25.1118 26.4554 25.42C26.2918 26.0257 26.2189 26.9296 26.1991 28.012C26.1901 28.5522 26.2001 29.1427 26.219 29.7637C26.2357 30.3828 26.2859 31.0395 26.3242 31.715C26.4292 33.0685 26.5677 34.5101 26.7654 35.9449C26.8599 36.663 26.9627 37.3803 27.0816 38.0829C27.2049 38.7849 27.3088 39.478 27.4469 40.1441C27.7042 41.476 27.9873 42.7132 28.261 43.7654C28.4029 44.29 28.5297 44.7733 28.6605 45.1971C28.786 45.6225 28.9034 45.9892 29.0034 46.2945C29.2078 46.8998 29.3268 47.2463 29.3268 47.2463C29.3268 47.2463 29.2822 47.1672 29.1976 47.0169C29.1183 46.865 28.9812 46.6496 28.8411 46.3601C28.5493 45.7905 28.1643 44.9531 27.7817 43.9167C27.5883 43.3986 27.3962 42.8334 27.2155 42.2272C27.0335 41.6226 26.849 40.9798 26.6932 40.3075C26.5328 39.6361 26.3731 38.941 26.2482 38.2272C26.118 37.5152 26.0033 36.7893 25.8991 36.06C25.8112 35.3295 25.7278 34.5982 25.6704 33.8771C25.6028 33.1544 25.5834 32.4427 25.5568 31.7532C25.5245 30.3723 25.5678 29.0793 25.6985 27.9788C25.825 26.8786 26.0283 25.9654 26.288 25.3638C26.4051 25.0599 26.5655 24.846 26.6809 24.7131C26.7356 24.6479 26.7996 24.6173 26.8324 24.5873C26.8655 24.5615 26.8851 24.5473 26.8851 24.5473" fill="#D0C9BE"/>
<path d="M25.2366 30.0123C23.7438 28.4641 22.9348 26.6669 22.3723 24.6171C21.8231 22.6244 22.2965 20.6089 22.484 18.6101C22.5019 18.4107 22.2307 18.1908 22.0831 18.4078C19.4659 22.2205 21.8159 27.5805 25.1998 30.0561C25.2303 30.079 25.2635 30.0395 25.2366 30.0123" fill="#D0C9BE"/>
</svg>
