<svg width="108" height="117" viewBox="0 0 108 117" fill="none" xmlns="http://www.w3.org/2000/svg">
<path d="M87.7 26.6768C98.4896 36.0347 95.6535 51.7014 88.8529 62.445C85.7319 67.3744 82.1957 72.036 78.3955 76.4576C66.4359 90.3799 49.1158 103.778 29.7455 97.4924C29.3163 97.3523 29.147 97.9838 29.547 98.147C48.9606 106.131 67.8261 91.2025 79.8315 77.187C90.8841 64.2833 105.998 41.2262 88.4949 27.0879C88.2662 26.9041 88.0307 26.7322 87.7853 26.5706C87.723 26.5266 87.6429 26.6239 87.7 26.6768" fill="#D0C9BE"/>
<path d="M15.4046 89.6672C17.7054 86.0977 22.7372 85.8624 25.8682 83.2384C27.7771 81.6385 28.2519 78.7322 26.7018 76.8171C26.5663 77.1214 26.4299 77.4253 26.2935 77.7291C29.1807 77.9215 31.344 79.7802 33.9231 80.787C34.3557 80.9571 34.6556 80.3651 34.3707 80.0571C32.3261 77.8444 29.2029 77.4999 26.4687 76.6705C26.0049 76.5303 25.6329 77.0289 25.8374 77.4459C27.99 81.8012 22.8026 83.8915 19.7273 85.2325C17.7066 86.1143 16.0959 87.5477 15.2811 89.6119C15.2507 89.686 15.3651 89.7281 15.4046 89.6672" fill="#D0C9BE"/>
<path d="M32.5308 79.2296C32.5048 77.0665 32.5166 74.5865 34.4962 73.1748C35.2244 72.6548 36.3501 72.4957 37.1831 72.1317C38.3791 71.6107 39.4272 70.9923 40.4861 70.2287C43.8648 67.7956 46.6449 64.0564 49.3173 60.8966C50.6158 59.3627 51.8629 57.7832 53.0935 56.1901C53.6132 55.5178 54.2174 54.2366 55.1837 54.1091C56.0862 53.9885 57.013 53.7225 57.8599 53.3945C60.9819 52.184 63.8168 50.3456 65.1895 47.2086C65.3348 46.8741 64.8593 46.6553 64.6242 46.8623C62.9797 48.3439 61.4001 49.8789 59.481 51.0147C58.5561 51.5606 57.5313 51.9135 56.5089 52.2279C55.7026 52.4718 54.5032 52.3651 53.7851 52.7516C52.3956 53.4996 50.9832 56.251 50.0095 57.4384C48.3687 59.4362 46.6516 61.3701 44.8878 63.2571C43.3444 64.9087 41.7557 66.5221 40.077 68.0278C38.9349 69.0542 37.7371 69.9208 36.3696 70.6258C35.4739 71.0851 34.4034 71.3 33.6053 71.9511C31.1585 73.9459 31.4667 76.4672 32.2598 79.2565C32.3016 79.4002 32.5329 79.3902 32.5308 79.2296" fill="#D0C9BE"/>
<path d="M67.5516 47.7558C69.6732 45.3581 72.2252 43.3125 75.0857 41.8714C77.3516 40.7286 79.7462 40.2739 81.0462 37.9119C82.1122 35.9689 81.9181 33.3301 82.5353 31.2394C83.346 28.4754 85.7145 26.7821 86.6416 24.2168C86.7213 23.9959 86.495 23.7735 86.2769 23.8269C82.2531 24.8116 80.6943 31.1769 80.2319 34.6561C79.9174 37.0092 79.1225 38.3516 76.8085 39.343C75.3867 39.9489 74.0997 40.5489 72.8107 41.4148C70.4066 43.0317 68.7581 45.1207 67.4454 47.6706C67.4121 47.7351 67.4969 47.816 67.5516 47.7558" fill="#D0C9BE"/>
<path d="M15.5917 87.4237C17.1563 86.6333 17.8286 85.4074 18.2756 83.7565C18.5813 82.6258 18.4946 81.3603 18.4488 80.202C18.4261 79.627 18.863 73.1161 20.6192 74.5286C23.6415 76.951 28.345 73.035 30.4539 71.1998C34.1544 67.9801 36.9964 63.8183 39.9267 59.9267C43.3205 55.4179 46.9111 51.7122 51.5989 48.5564C51.834 48.3971 51.7196 47.9326 51.4084 48.0478C42.618 51.3259 37.7239 61.2613 31.4806 67.6558C29.7164 69.4628 27.7422 71.073 25.5475 72.3285C24.1244 73.1409 22.4998 73.6735 21.0482 72.6203C20.5727 72.2739 19.9019 72.7076 19.4795 72.8862C18.1466 73.4478 17.244 75.3776 17.0764 76.7116C16.6449 80.1608 19.0002 84.8125 15.5263 87.3023C15.4564 87.3536 15.5107 87.4646 15.5917 87.4237" fill="#D0C9BE"/>
<path d="M12.8444 88.7631C3.56967 70.1651 18.0959 51.5792 30.8469 39.2217C38.0332 32.2597 46.0371 25.8653 55.3686 22.0628C59.7839 20.264 64.5303 19.2501 69.2822 18.9847C73.8679 18.727 78.2464 19.6647 82.6733 20.7221C82.8897 20.7753 83.0585 20.4623 82.8393 20.3517C74.868 16.2914 64.6194 17.54 56.4298 20.2683C46.1411 23.6896 37.4393 30.6295 29.7978 38.1218C16.8397 50.8261 2.38318 70.1735 12.7239 88.829C12.7669 88.9056 12.8833 88.8413 12.8444 88.7631" fill="#D0C9BE"/>
<path d="M15.4974 90.3028C21.913 96.2585 30.2928 99.7894 39.0647 100.127C47.272 100.442 56.7384 96.9126 62.6518 91.2123C63.0916 90.7887 62.5639 90.1772 62.0531 90.3924C54.7628 93.4246 47.4754 96.9766 39.5629 98.0356C31.1955 99.1508 22.0404 95.248 15.5412 90.2483C15.5092 90.2258 15.4697 90.2748 15.4974 90.3028Z" fill="#D0C9BE"/>
<path d="M34.1445 90.384C37.5012 95.9526 45.3135 96.0473 51.0033 95.3869C55.0334 94.9159 58.9544 93.5571 62.6493 91.9202C66.1773 90.3584 69.8174 88.3471 71.9196 85.0097C72.1653 84.6255 71.7165 84.1949 71.3308 84.3867C68.3717 85.8466 65.6411 87.7253 62.6866 89.2118C59.415 90.8539 55.9443 91.9507 52.3887 92.7872C46.4259 94.1828 39.1065 94.7115 34.1995 90.344C34.173 90.3208 34.125 90.3488 34.1445 90.384" fill="#D0C9BE"/>
<path d="M49.4751 84.8358C53.9599 86.9389 59.5337 86.8451 64.268 85.7686C69.2283 84.6391 76.0122 82.263 78.5458 77.4329C78.7137 77.1074 78.3446 76.8425 78.0693 77.0502C73.8606 80.2396 69.7661 82.6859 64.5976 84.0658C59.8015 85.3459 54.3395 86.3849 49.5036 84.7726C49.4673 84.7596 49.4405 84.8198 49.4751 84.8358" fill="#D0C9BE"/>
<path d="M64.9999 80.1454C68.561 80.687 72.1267 80.3784 75.4131 78.8484C78.2097 77.5458 81.7142 75.2171 82.4416 72.0383C82.4918 71.8202 82.2676 71.5872 82.0478 71.7193C79.5929 73.2033 77.8407 75.5274 75.3212 77.0059C72.1909 78.8452 68.628 79.9565 64.9994 80.0774C64.9544 80.0793 64.9554 80.1396 64.9999 80.1454" fill="#D0C9BE"/>
<path d="M74.1155 71.6668C78.2341 72.1676 82.2625 71.1059 85.4846 68.4588C88.1438 66.2758 91.3822 63.2276 91.6143 59.5676C91.6299 59.3335 91.2841 59.2215 91.1693 59.4342C87.8768 65.5717 81.3416 71.5068 74.1221 71.5312C74.0309 71.5303 74.0295 71.657 74.1155 71.6668" fill="#D0C9BE"/>
<path d="M80.3814 63.727C86.6665 62.9878 93.4755 58.2629 94.5 51.7047C94.5616 51.3218 93.9792 51.1848 93.8044 51.4944C90.7765 56.8839 86.6292 62.0377 80.3684 63.6597C80.3212 63.6723 80.3394 63.7306 80.3814 63.727" fill="#D0C9BE"/>
<path d="M92.0309 44.5365C92.3587 48.8904 89.9164 53.5141 87.9272 57.2078C84.5175 63.5485 80.0092 69.3069 75.0271 74.4848C69.1758 80.5677 62.3409 85.8276 54.8932 89.8092C46.5125 94.2883 37.5686 96.2502 28.1783 96.998C27.7024 97.0381 27.6578 97.7138 28.1513 97.7516C46.4068 99.0893 63.8775 88.2053 75.7912 75.2806C80.8294 69.8123 85.2195 63.651 88.5523 56.9948C90.388 53.3321 92.5416 48.7529 92.0977 44.5312C92.094 44.4892 92.0285 44.4992 92.0309 44.5365" fill="#D0C9BE"/>
<path d="M65.443 77.7356C65.443 77.7356 64.962 78.1752 64.1003 78.9291C63.6756 79.3057 63.136 79.7433 62.5211 80.2492C61.9088 80.7644 61.2 81.3157 60.4148 81.9026C59.6424 82.5087 58.7639 83.1054 57.8436 83.7537C56.905 84.3716 55.9272 85.0505 54.8692 85.6751C54.3446 85.9899 53.8072 86.3133 53.2651 86.638C52.7132 86.945 52.1519 87.2546 51.5888 87.5672C51.027 87.8845 50.441 88.1678 49.8558 88.4636C49.274 88.7534 48.6925 89.0633 48.092 89.3304C47.4945 89.5991 46.8969 89.8678 46.3024 90.1383C45.6985 90.3835 45.093 90.6317 44.4955 90.8726C43.9019 91.1277 43.2999 91.342 42.6984 91.5487C42.1015 91.7541 41.5158 91.9818 40.9298 92.1616C39.756 92.5241 38.6195 92.8842 37.5216 93.143C36.9769 93.2789 36.4471 93.4233 35.9299 93.5392C35.4119 93.6426 34.911 93.744 34.4289 93.8403C33.4682 94.0548 32.5726 94.1634 31.7835 94.2737C31.389 94.3289 31.0193 94.3825 30.6809 94.4302C30.3357 94.4621 30.021 94.4916 29.7364 94.5186C28.5965 94.6216 27.9469 94.665 27.9469 94.665C27.9469 94.665 28.5858 94.5318 29.7064 94.3219C29.9864 94.2684 30.2963 94.2121 30.6347 94.1485C30.9667 94.0732 31.3306 93.9883 31.718 93.8971C32.4881 93.716 33.3575 93.5286 34.2949 93.2648C34.7664 93.1384 35.2567 93.0071 35.7612 92.8719C36.2636 92.7196 36.7802 92.5635 37.3156 92.4023C38.3855 92.0954 39.4862 91.6868 40.6365 91.3028C41.211 91.1084 41.7806 90.8674 42.3642 90.6504C42.9483 90.4256 43.5383 90.2043 44.1255 89.9535C44.7109 89.7057 45.3041 89.4584 45.8972 89.211C46.4841 88.94 47.0709 88.6691 47.6577 88.3982C48.2531 88.1401 48.8277 87.8422 49.406 87.5583C49.9831 87.2698 50.5652 87.0001 51.1236 86.6888C51.6857 86.3916 52.2461 86.0974 52.797 85.8058C53.3412 85.4983 53.8807 85.192 54.4103 84.896C54.9411 84.6047 55.4486 84.2919 55.9521 83.9927C56.4573 83.6906 56.9521 83.4064 57.4243 83.1132C58.3607 82.506 59.2711 81.9715 60.0788 81.4216C60.889 80.8811 61.6416 80.399 62.2905 79.9447C62.9436 79.4968 63.5202 79.1123 63.9768 78.7702C64.9057 78.1069 65.443 77.7356 65.443 77.7356" fill="#D0C9BE"/>
<path d="M84.7235 53.0033C84.7235 53.0033 84.7277 53.1133 84.7294 53.3175C84.734 53.5234 84.7533 53.8215 84.6792 54.2052C84.6445 54.3964 84.6311 54.6198 84.5745 54.8421C84.5144 55.0705 84.4504 55.3125 84.3837 55.5729C84.3213 55.8398 84.2097 56.1021 84.1168 56.3873C84.0162 56.6719 83.913 56.975 83.7712 57.2757C83.6401 57.5786 83.5052 57.8953 83.3603 58.2221C83.2005 58.5403 83.0325 58.8658 82.8606 59.2049C82.5156 59.8785 82.114 60.5672 81.6806 61.2695C81.234 61.9602 80.7821 62.6877 80.2675 63.3789C79.7763 64.0916 79.2248 64.7775 78.6943 65.4755C78.1386 66.155 77.5727 66.8246 77.0034 67.4724C76.4222 68.1132 75.8569 68.7472 75.2717 69.326C74.6954 69.9099 74.1389 70.4734 73.5797 70.9795C73.0235 71.4873 72.5115 71.9807 72.0028 72.3924C71.5008 72.82 71.0373 73.202 70.6244 73.5375C70.2085 73.8712 69.8288 74.1423 69.5243 74.3729C68.9097 74.8231 68.554 75.0801 68.554 75.0801C68.554 75.0801 68.859 74.7659 69.3914 74.2165C69.661 73.9497 69.987 73.6198 70.3589 73.2447C70.7254 72.8585 71.1379 72.4271 71.5954 71.966C72.0559 71.5065 72.5164 70.9713 73.0342 70.4334C73.5533 69.9001 74.0594 69.2996 74.61 68.7049C75.1679 68.1183 75.6811 67.4502 76.2507 66.8226C76.8028 66.1769 77.3504 65.5047 77.8902 64.832C78.4211 64.1541 78.9729 63.4883 79.4644 62.7957C79.9769 62.1151 80.4628 61.4392 80.9216 60.7756C81.1624 60.4483 81.3579 60.1028 81.581 59.7853C81.797 59.4596 82.0107 59.1446 82.1954 58.8248C82.386 58.5084 82.5744 58.2028 82.7547 57.9043C82.923 57.599 83.0844 57.3056 83.2407 57.0212C83.4059 56.742 83.5278 56.4617 83.6596 56.199C83.7824 55.9311 83.9269 55.6877 84.0127 55.4424C84.2088 54.9578 84.3888 54.5356 84.4786 54.173C84.6004 53.817 84.6463 53.5167 84.6754 53.3143C84.7076 53.1137 84.7235 53.0033 84.7235 53.0033" fill="#D0C9BE"/>
<path d="M85.8369 55.6306C90.7069 54.9472 96.1405 50.6716 95.5305 45.274C95.4946 44.9703 95.0932 45.0375 95.0028 45.2562C94.1975 47.1825 93.5861 49.125 92.3678 50.8487C90.7966 53.0661 88.3829 54.7412 85.8239 55.5633C85.7797 55.5777 85.7932 55.6372 85.8369 55.6306" fill="#D0C9BE"/>
<path d="M30.7323 51.6731C30.7065 46.573 33.2378 41.9409 35.766 37.6697C38.5198 33.0186 42.3145 29.7974 46.391 26.4041C46.6254 26.2087 46.3974 25.8021 46.1101 25.8793C40.945 27.2891 37.093 32.5376 34.4218 36.8537C31.7865 41.111 30.044 46.6369 30.6655 51.6784C30.6712 51.7176 30.7344 51.7102 30.7323 51.6731" fill="#D0C9BE"/>
<path d="M40.7978 42.8942C41.0893 38.332 43.413 34.5086 45.9399 30.8305C48.412 27.2362 51.9307 25.0274 54.7795 21.8539C54.966 21.6468 54.803 21.3493 54.5304 21.3873C50.446 21.9503 47.1916 26.3005 44.9258 29.3842C42.1212 33.2009 40.3753 38.1231 40.7299 42.891C40.7336 42.9329 40.7953 42.9366 40.7978 42.8942" fill="#D0C9BE"/>
<path d="M51.3622 35.7027C52.7357 27.6642 59.2054 21.1094 66.9113 18.7157C67.1713 18.6346 67.1421 18.267 66.8664 18.2433C62.6377 17.8504 58.5648 21.2457 55.6795 23.9597C52.8163 26.6507 51.4439 31.9 51.2272 35.6805C51.2231 35.7579 51.3493 35.7789 51.3622 35.7027" fill="#D0C9BE"/>
<path d="M59.6651 32.0081C62.7339 25.8809 69.2297 21.1067 75.6787 19.1629C76.0804 19.0401 76.0467 18.4428 75.6059 18.4194C68.4432 18.0223 61.8069 25.812 59.6048 31.9772C59.5918 32.0135 59.6473 32.0416 59.6651 32.0081Z" fill="#D0C9BE"/>
<path d="M27.602 46.1958C27.602 46.1958 27.3407 46.5352 26.884 47.1323C26.6515 47.4245 26.3681 47.7829 26.0428 48.193C25.7103 48.5908 25.3563 49.0639 24.975 49.5731C24.5899 50.0841 24.1739 50.637 23.7236 51.2099C23.2852 51.7937 22.8559 52.4346 22.3815 53.0733C22.1483 53.393 21.909 53.7211 21.668 54.0523C21.4394 54.3945 21.209 54.7397 20.9786 55.0849C20.5167 55.7827 20.018 56.4712 19.574 57.1913C19.1229 57.9112 18.6714 58.6309 18.2287 59.3358C17.7805 60.0415 17.3893 60.7681 16.9852 61.4514C16.5926 62.1453 16.1797 62.7957 15.8524 63.4516C15.5152 64.0978 15.1829 64.703 14.8753 65.2627C14.5588 65.8212 14.3093 66.3507 14.0756 66.8176C13.8412 67.2801 13.6344 67.6867 13.4657 68.0197C13.1169 68.6831 12.9152 69.0649 12.9152 69.0649C12.9152 69.0649 13.0474 68.655 13.2767 67.9425C13.3983 67.5862 13.5455 67.1532 13.7133 66.6602C13.8864 66.1664 14.07 65.6028 14.3386 65.0166C14.5888 64.4238 14.8651 63.7783 15.1655 63.1068C15.4491 62.4217 15.8134 61.7313 16.1886 61.0193C16.3769 60.6578 16.5668 60.2972 16.7587 59.9297C16.9486 59.5572 17.1434 59.1874 17.3733 58.8299C17.8143 58.1041 18.2613 57.3699 18.7103 56.6328C19.1697 55.9097 19.6841 55.2183 20.1631 54.5184C20.4055 54.1682 20.6484 53.8262 20.8935 53.4935C21.1511 53.168 21.4074 52.8457 21.659 52.5286C22.1604 51.8975 22.6445 51.2883 23.1271 50.73C23.6197 50.1735 24.0944 49.6585 24.531 49.1852C24.7499 48.949 24.9598 48.7234 25.159 48.5076C25.3695 48.3024 25.5676 48.1098 25.7542 47.9267C26.133 47.5675 26.463 47.2519 26.7349 46.9944C27.2858 46.4875 27.602 46.1958 27.602 46.1958" fill="#D0C9BE"/>
<path d="M79.0911 23.7792C79.0911 23.7792 78.8864 23.7127 78.5042 23.5877C78.1216 23.4705 77.5673 23.2501 76.8329 23.121C76.4646 23.0478 76.0669 22.9497 75.6246 22.8737C75.1774 22.8268 74.6982 22.7732 74.1804 22.7174C73.6671 22.6402 73.1122 22.6626 72.5317 22.6463C71.9511 22.6379 71.3418 22.6089 70.7067 22.6687C70.07 22.7195 69.4083 22.728 68.7272 22.813C68.0471 22.9066 67.3439 23.0028 66.621 23.1035C65.9006 23.2136 65.1718 23.4026 64.4225 23.5519C64.0481 23.6426 63.6658 23.7008 63.2911 23.8072C62.9137 23.9162 62.5352 24.0245 62.1516 24.1338C61.3912 24.3643 60.5976 24.5358 59.8349 24.8407C59.0638 25.1168 58.2832 25.3955 57.4947 25.6775C56.7159 25.9771 55.9493 26.3316 55.1672 26.6612L53.9985 27.162C53.6141 27.3426 53.2391 27.5447 52.857 27.7345C52.097 28.1127 51.3353 28.4939 50.578 28.8696C49.8296 29.2705 49.1071 29.7102 48.3788 30.1227C48.0155 30.3314 47.6532 30.5407 47.2941 30.7478C46.9295 30.9478 46.5737 31.1568 46.2307 31.3892C45.5403 31.8355 44.8598 32.2755 44.1872 32.7122C42.8247 33.5515 41.5976 34.493 40.3975 35.3424C39.8071 35.7747 39.2138 36.1735 38.6699 36.6007C38.1283 37.0293 37.604 37.4439 37.1013 37.8431C36.5976 38.2378 36.1139 38.6201 35.6561 38.9815C35.1948 39.3408 34.7481 39.6728 34.3606 40.023C33.5682 40.7053 32.8781 41.2992 32.3095 41.7878C31.1634 42.7561 30.5088 43.3108 30.5088 43.3108C30.5088 43.3108 31.1062 42.6992 32.1729 41.6413C32.7093 41.114 33.3597 40.4733 34.1057 39.7363C34.8483 38.9973 35.7574 38.2429 36.7248 37.3867C37.2114 36.9622 37.7169 36.5208 38.2414 36.0624C38.7695 35.6061 39.3553 35.1871 39.9346 34.7284C41.1141 33.8312 42.3159 32.8313 43.6811 31.9577C44.351 31.5035 45.0312 31.0434 45.7207 30.5767C46.3975 30.0947 47.1505 29.7044 47.8771 29.2631C48.6135 28.8394 49.3441 28.3885 50.0977 27.9786C50.8657 27.5891 51.6379 27.198 52.4092 26.8064C52.7976 26.6162 53.1797 26.4183 53.572 26.2344L54.7653 25.7317C55.5622 25.4027 56.3454 25.0498 57.1419 24.7485C58.7522 24.1917 60.332 23.6292 61.9191 23.2582C62.3104 23.1574 62.6994 23.0552 63.0855 22.9553C63.47 22.8505 63.8647 22.8034 64.2497 22.7267C65.0212 22.5983 65.7682 22.4318 66.5082 22.3449C67.2499 22.271 67.9707 22.2009 68.6686 22.1296C69.3663 22.0781 70.0463 22.1001 70.6942 22.0836C71.3443 22.0524 71.9662 22.1046 72.5566 22.1545C73.1454 22.2115 73.7075 22.2251 74.2232 22.3396C74.7451 22.4297 75.2285 22.5175 75.6768 22.597C76.1219 22.7025 76.5255 22.8319 76.8906 22.9312C77.627 23.1053 78.148 23.3901 78.5258 23.5365C78.8937 23.6931 79.0911 23.7792 79.0911 23.7792" fill="#D0C9BE"/>
<path d="M46.9174 36.4124C46.9174 36.4124 46.4258 36.7462 45.5535 37.3107C45.115 37.5876 44.5875 37.9326 43.9943 38.3394C43.3986 38.7486 42.7196 39.1936 41.9953 39.704C41.2692 40.2093 40.48 40.754 39.6619 41.3537C38.8335 41.9395 37.9873 42.5907 37.107 43.2582C36.2167 43.9159 35.3525 44.6604 34.4434 45.3749C33.5625 46.1297 32.6506 46.8705 31.7995 47.6784C30.9107 48.4524 30.0864 49.2837 29.2582 50.0928C28.863 50.5102 28.468 50.9279 28.0803 51.3377C27.8849 51.5437 27.6927 51.7475 27.5013 51.9519C27.3208 52.1625 27.1411 52.3736 26.9635 52.5819C26.6094 53.0032 26.2486 53.4046 25.9199 53.8206C25.5954 54.239 25.2805 54.6471 24.972 55.0468C24.6512 55.4355 24.405 55.8592 24.13 56.2464C23.8708 56.6388 23.5875 57.0053 23.3719 57.387C23.1503 57.7652 22.9369 58.1321 22.7355 58.4781C22.6321 58.6496 22.5314 58.8186 22.4341 58.9816C22.3496 59.1521 22.2698 59.3172 22.1905 59.4787C22.0335 59.8025 21.8858 60.1038 21.7507 60.3805C21.6066 60.6599 21.4887 60.9187 21.4081 61.1631C21.0413 62.127 20.8148 62.6816 20.8148 62.6816C20.8148 62.6816 20.9507 62.1065 21.2176 61.0969C21.2769 60.8402 21.3706 60.5675 21.4861 60.2756C21.596 59.9803 21.7144 59.6621 21.8413 59.3209C21.9053 59.1506 21.9716 58.9737 22.0384 58.793C22.121 58.6175 22.2073 58.4363 22.2922 58.2541C22.473 57.8843 22.6601 57.4981 22.8575 57.094C23.0517 56.688 23.3101 56.2991 23.5501 55.8758C23.801 55.4627 24.0389 55.0182 24.3433 54.6041C24.6378 54.1803 24.9404 53.7453 25.2481 53.3012C25.5571 52.8579 25.9225 52.4432 26.2682 52.0011C26.4424 51.7829 26.6195 51.5624 26.7984 51.3388C26.9872 51.125 27.1772 50.9119 27.3677 50.6951C27.7536 50.2643 28.1386 49.821 28.5459 49.3986C29.3799 48.569 30.2109 47.7096 31.1077 46.9162C31.9821 46.1059 32.9146 45.3611 33.8148 44.6055C34.2715 44.2355 34.741 43.8889 35.1963 43.542C35.6537 43.1923 36.1085 42.8491 36.5673 42.5321C37.0239 42.2099 37.4733 41.8955 37.9118 41.5867C38.3563 41.2854 38.8018 41.0046 39.2281 40.7247C40.0784 40.1555 40.9116 39.6642 41.68 39.2071C42.4358 38.7388 43.163 38.3615 43.7991 38.0114C44.4331 37.6601 44.9921 37.3691 45.4553 37.1384C46.3818 36.6691 46.9174 36.4124 46.9174 36.4124" fill="#D0C9BE"/>
<path d="M76.4545 27.0273C76.4545 27.0273 76.4323 27.0105 76.3875 26.9846C76.3409 26.9617 76.2825 26.9041 76.1872 26.869C76.0043 26.7993 75.7272 26.727 75.3557 26.7078C74.6205 26.642 73.5584 26.7422 72.3002 26.9403C71.6726 27.0403 70.9905 27.1725 70.2749 27.3213C69.561 27.4671 68.8104 27.6594 68.0356 27.8417C66.4889 28.24 64.847 28.6949 63.2251 29.2171C62.4125 29.4733 61.6024 29.7389 60.8126 30.0202C60.0245 30.3064 59.2427 30.5684 58.4991 30.8644C57.0086 31.4346 55.6331 32.0154 54.4699 32.5474C53.8911 32.819 53.3571 33.0646 52.8929 33.3027C52.4256 33.5351 52.0248 33.7461 51.6915 33.9243C51.0319 34.2847 50.6548 34.4934 50.6548 34.4934C50.6548 34.4934 50.7374 34.4255 50.8942 34.2969C51.054 34.1739 51.2755 33.9711 51.5823 33.7497C52.1826 33.2952 53.0742 32.6781 54.1968 32.0231C54.7575 31.6932 55.3731 31.3552 56.0385 31.022C56.7019 30.6876 57.4088 30.3425 58.1559 30.0246C58.9011 29.7016 59.6737 29.3746 60.4752 29.0841C61.2735 28.7878 62.091 28.5066 62.9147 28.2368C63.7431 27.9858 64.5734 27.7398 65.3971 27.526C66.2206 27.3 67.0412 27.1322 67.8346 26.9605C69.4279 26.641 70.9347 26.427 72.2365 26.3536C73.5369 26.2754 74.6365 26.3244 75.3866 26.5024C75.7626 26.576 76.0432 26.7181 76.2208 26.8247C76.3075 26.8747 76.356 26.9426 76.3974 26.9744C76.434 27.0076 76.4545 27.0273 76.4545 27.0273" fill="#D0C9BE"/>
<path d="M69.7862 26.2338C71.275 24.188 73.1918 22.8836 75.4518 21.8131C77.6483 20.7698 80.0801 20.9065 82.4342 20.7153C82.6689 20.6954 82.8683 20.3363 82.5867 20.2096C77.6347 17.9563 71.9048 21.7739 69.7279 26.2001C69.7076 26.2402 69.7602 26.2706 69.7862 26.2338" fill="#D0C9BE"/>
</svg>
